<svg id="svg" version="1.1" xmlns="http://www.w3.org/2000/svg" xmlns:xlink="http://www.w3.org/1999/xlink" width="400"
    height="203.48652931854198" viewBox="0, 0, 400,203.48652931854198">
    <g id="svgg">
        <path id="path0"
            d="M0.000 101.781 L 0.000 203.562 200.000 203.562 L 400.000 203.562 400.000 101.781 L 400.000 0.000 200.000 0.000 L 0.000 0.000 0.000 101.781 M281.005 0.606 L 281.527 0.804 281.527 5.671 L 281.527 10.537 286.606 10.687 C 291.040 10.817,291.725 10.881,292.003 11.188 C 292.280 11.494,292.314 12.388,292.267 18.136 L 292.214 24.733 274.758 24.785 L 257.303 24.837 257.303 19.543 L 257.303 14.249 253.235 14.249 L 249.167 14.249 249.113 19.491 L 249.059 24.733 243.766 24.835 L 238.473 24.936 238.421 39.644 L 238.369 54.351 243.443 54.351 C 246.233 54.351,248.661 54.407,248.838 54.475 C 249.120 54.583,249.160 55.251,249.160 59.869 L 249.160 65.140 253.228 65.140 L 257.296 65.140 257.350 59.796 L 257.405 54.453 274.464 54.401 C 285.992 54.366,291.652 54.418,291.920 54.561 C 292.444 54.842,292.544 67.396,292.027 68.104 C 291.758 68.471,291.387 68.506,286.683 68.601 L 281.628 68.702 281.527 73.757 C 281.432 78.461,281.398 78.832,281.030 79.101 C 280.457 79.519,225.515 79.536,225.169 79.118 C 225.021 78.941,224.925 77.100,224.889 73.775 L 224.835 68.702 219.717 68.648 C 215.791 68.606,214.547 68.531,214.377 68.326 C 214.233 68.153,214.136 66.271,214.100 62.986 L 214.046 57.913 208.928 57.859 C 204.947 57.817,203.760 57.744,203.583 57.532 C 203.420 57.334,203.371 52.311,203.409 39.469 L 203.461 21.679 208.804 21.498 L 214.148 21.317 214.151 16.307 C 214.152 13.552,214.221 11.193,214.303 11.065 C 214.405 10.907,216.135 10.784,219.695 10.682 L 224.936 10.532 224.936 5.605 C 224.936 2.896,224.997 0.617,225.072 0.543 C 225.296 0.319,280.414 0.381,281.005 0.606 M78.677 7.328 L 78.677 13.944 67.990 14.052 C 62.112 14.112,57.280 14.180,57.252 14.205 C 57.224 14.229,57.201 28.711,57.201 46.387 C 57.201 76.034,57.175 78.547,56.864 78.805 C 56.243 79.321,23.264 79.208,22.884 78.689 C 22.638 78.352,22.595 73.606,22.595 46.272 C 22.595 28.659,22.573 14.229,22.545 14.203 C 22.517 14.178,17.684 14.109,11.807 14.050 L 1.120 13.944 1.066 7.534 C 1.036 4.008,1.056 1.008,1.110 0.866 C 1.189 0.661,8.913 0.620,39.943 0.661 L 78.677 0.712 78.677 7.328 M185.123 0.734 C 185.570 0.906,185.616 13.447,185.171 13.817 C 184.972 13.981,177.531 14.059,158.250 14.096 L 131.603 14.148 131.550 23.091 C 131.508 30.111,131.552 32.069,131.754 32.197 C 131.895 32.287,138.880 32.360,147.277 32.360 C 162.408 32.361,173.912 32.645,174.402 33.030 C 174.840 33.375,174.762 46.071,174.320 46.438 C 174.041 46.670,170.425 46.729,153.101 46.787 C 140.549 46.829,132.076 46.933,131.860 47.049 C 131.547 47.216,131.247 64.895,131.552 65.189 C 131.580 65.216,143.695 65.285,158.473 65.342 L 185.344 65.445 185.397 71.891 C 185.443 77.345,185.405 78.383,185.151 78.636 C 184.392 79.396,97.739 79.447,97.185 78.689 C 96.789 78.148,96.745 1.250,97.140 0.855 C 97.399 0.596,184.452 0.476,185.123 0.734 M344.105 0.734 C 344.395 0.845,344.427 2.424,344.427 16.503 C 344.427 31.816,344.436 32.153,344.825 32.361 C 345.089 32.503,348.319 32.556,354.443 32.521 L 363.664 32.468 363.716 16.767 C 363.759 3.863,363.817 1.025,364.044 0.837 C 364.244 0.671,368.941 0.623,381.193 0.660 L 398.066 0.712 398.066 39.695 L 398.066 78.677 392.570 78.912 C 382.872 79.328,364.739 79.078,364.020 78.520 C 363.821 78.364,363.766 74.930,363.766 62.570 L 363.766 46.819 354.419 46.819 C 349.278 46.819,344.927 46.875,344.749 46.943 C 344.460 47.054,344.427 48.632,344.427 62.694 C 344.427 74.955,344.373 78.364,344.173 78.520 C 343.455 79.078,325.321 79.328,315.623 78.912 L 310.127 78.677 310.075 39.898 C 310.046 18.570,310.066 1.005,310.120 0.865 C 310.222 0.597,343.414 0.469,344.105 0.734 M194.000 87.443 C 194.258 88.121,194.259 95.286,194.001 95.964 L 193.804 96.483 187.029 96.537 L 180.254 96.590 180.254 112.570 L 180.254 128.550 186.938 128.651 C 193.255 128.748,193.637 128.775,193.910 129.148 C 194.255 129.620,194.331 137.030,194.000 137.900 L 193.801 138.422 172.104 138.422 C 157.536 138.422,150.276 138.353,150.012 138.212 C 149.356 137.861,149.410 129.431,150.071 128.968 C 150.457 128.698,151.467 128.651,156.993 128.651 L 163.463 128.651 163.411 112.621 L 163.359 96.590 156.760 96.537 C 152.306 96.500,150.074 96.410,149.890 96.257 C 149.443 95.886,149.502 87.794,149.955 87.293 C 150.278 86.937,151.230 86.921,172.047 86.921 L 193.801 86.921 194.000 87.443 M384.670 87.176 C 384.760 87.316,384.880 88.850,384.936 90.585 L 385.038 93.740 388.224 93.796 C 390.579 93.838,391.468 93.923,391.635 94.125 C 391.796 94.319,391.846 97.692,391.808 105.875 L 391.756 117.354 384.885 117.407 L 378.015 117.461 378.015 119.596 L 378.015 121.730 381.156 121.730 C 385.204 121.730,384.936 121.462,384.936 125.511 L 384.936 128.651 387.875 128.651 C 389.491 128.651,391.048 128.741,391.335 128.850 L 391.858 129.048 391.858 133.612 C 391.858 137.585,391.816 138.191,391.536 138.299 C 390.708 138.616,368.891 138.430,368.564 138.103 C 368.301 137.839,368.244 137.226,368.244 134.642 L 368.244 131.501 365.213 131.501 C 361.118 131.501,361.341 131.720,361.273 127.634 L 361.221 124.478 359.186 124.478 L 357.150 124.478 357.096 131.178 C 357.060 135.709,356.970 137.967,356.817 138.150 C 356.451 138.591,341.119 138.546,340.676 138.103 C 340.172 137.599,340.189 87.850,340.693 87.293 C 341.126 86.816,384.362 86.700,384.670 87.176 M26.680 87.539 C 27.063 87.744,27.074 88.112,27.077 101.229 C 27.079 108.642,27.155 114.825,27.246 114.969 C 27.369 115.163,28.014 115.215,29.736 115.172 L 32.061 115.115 32.113 101.495 C 32.150 91.846,32.232 87.796,32.393 87.602 C 32.676 87.261,39.898 87.205,40.522 87.539 C 40.905 87.744,40.916 88.110,40.919 101.025 C 40.920 108.326,40.977 114.506,41.044 114.758 C 41.206 115.360,45.858 115.485,46.085 114.894 C 46.153 114.717,46.209 108.498,46.209 101.074 C 46.209 88.953,46.242 87.563,46.531 87.452 C 47.106 87.231,61.065 87.312,61.489 87.539 C 61.930 87.775,62.121 129.994,61.684 130.687 C 61.531 130.930,60.834 131.013,58.278 131.094 L 55.064 131.196 54.962 134.410 C 54.838 138.334,55.255 138.008,50.353 138.012 C 45.751 138.016,46.209 138.406,46.209 134.477 C 46.209 130.848,46.470 131.094,42.618 131.094 C 38.890 131.094,39.213 131.429,39.084 127.430 L 38.982 124.275 36.658 124.217 C 33.824 124.146,34.003 123.924,33.995 127.532 C 33.987 131.245,34.263 130.971,30.390 131.094 L 27.176 131.196 27.074 134.410 C 26.950 138.334,27.366 138.008,22.465 138.012 C 17.863 138.016,18.321 138.406,18.321 134.477 C 18.321 130.847,18.583 131.094,14.725 131.094 C 11.861 131.094,11.601 131.063,11.407 130.700 C 11.083 130.096,11.116 87.897,11.440 87.573 C 11.760 87.253,26.086 87.221,26.680 87.539 M120.594 87.452 C 120.867 87.557,120.916 88.023,120.916 90.519 C 120.916 94.496,120.694 94.249,124.265 94.249 C 125.876 94.249,127.338 94.305,127.515 94.373 C 127.796 94.481,128.062 116.854,127.786 117.092 C 127.758 117.117,124.667 117.185,120.916 117.245 L 114.097 117.354 114.038 119.461 C 113.961 122.267,113.797 122.137,117.440 122.137 C 121.167 122.137,120.916 121.888,120.916 125.598 C 120.916 129.296,120.689 129.059,124.227 129.059 C 128.157 129.059,127.837 128.653,127.837 133.639 C 127.837 137.542,127.813 137.810,127.443 138.008 C 126.845 138.329,105.604 138.296,105.282 137.975 C 105.114 137.806,105.038 136.768,105.038 134.623 C 105.038 130.843,105.306 131.094,101.281 131.094 L 98.311 131.094 98.112 130.572 C 98.003 130.285,97.913 128.783,97.913 127.235 C 97.913 123.945,98.101 124.173,95.393 124.173 C 92.826 124.173,93.028 123.571,93.028 131.229 C 93.028 137.515,93.011 137.806,92.634 138.008 C 92.040 138.326,77.714 138.294,77.394 137.975 C 77.128 137.708,77.020 87.729,77.286 87.464 C 77.455 87.294,120.153 87.282,120.594 87.452 M259.705 87.573 C 260.106 87.974,260.042 95.248,259.632 95.833 C 259.316 96.284,259.298 96.285,252.931 96.285 C 249.420 96.285,246.402 96.341,246.225 96.409 C 245.935 96.520,245.903 98.524,245.903 117.003 C 245.903 135.766,245.875 137.505,245.566 137.847 C 245.029 138.440,230.351 138.420,230.033 137.825 C 229.891 137.561,229.822 130.689,229.822 116.984 L 229.822 96.536 229.364 96.413 C 229.112 96.346,226.053 96.289,222.566 96.288 C 216.975 96.285,216.212 96.247,216.103 95.963 C 215.934 95.523,215.946 87.634,216.115 87.464 C 216.381 87.199,259.438 87.306,259.705 87.573 M325.178 87.527 L 325.700 87.725 325.700 91.598 C 325.700 95.199,325.671 95.499,325.293 95.878 C 324.892 96.278,324.614 96.285,308.031 96.285 C 295.193 96.285,291.117 96.343,290.931 96.529 C 290.614 96.847,290.583 107.313,290.898 107.901 C 291.103 108.285,291.469 108.295,304.520 108.295 C 311.896 108.295,318.076 108.351,318.253 108.419 C 318.671 108.579,318.743 116.392,318.331 116.804 C 318.146 116.989,314.842 117.048,304.707 117.048 C 292.815 117.048,291.291 117.084,291.007 117.368 C 290.620 117.755,290.521 128.165,290.898 128.868 C 291.103 129.253,291.508 129.262,308.010 129.262 C 319.272 129.262,325.044 129.332,325.306 129.473 C 325.864 129.772,325.915 137.033,325.363 137.643 C 324.876 138.181,275.342 138.230,275.136 137.693 C 274.880 137.024,274.998 87.832,275.257 87.573 C 275.570 87.259,324.357 87.215,325.178 87.527 M93.272 96.529 C 92.951 96.850,92.919 114.226,93.239 114.823 C 93.439 115.197,93.720 115.216,98.907 115.216 C 105.632 115.216,105.038 115.574,105.038 111.526 C 105.038 107.847,104.791 108.092,108.499 108.092 C 110.539 108.092,111.547 108.015,111.715 107.847 C 112.063 107.499,112.063 96.877,111.715 96.529 C 111.364 96.178,93.624 96.178,93.272 96.529 M357.142 96.743 C 357.088 96.883,357.068 100.982,357.097 105.852 L 357.150 114.707 362.646 114.707 L 368.142 114.707 368.199 111.614 C 368.272 107.549,368.133 107.684,372.241 107.684 L 375.165 107.684 375.165 102.087 L 375.165 96.489 366.202 96.489 C 359.220 96.489,357.218 96.545,357.142 96.743 M53.404 144.224 C 53.806 144.392,54.359 144.529,54.633 144.529 C 54.908 144.529,55.392 144.659,55.709 144.818 C 56.026 144.977,56.697 145.261,57.201 145.450 C 57.705 145.638,58.418 145.920,58.786 146.077 C 59.153 146.233,59.617 146.361,59.815 146.361 C 60.014 146.361,60.354 146.496,60.572 146.660 C 60.789 146.825,61.104 146.963,61.272 146.967 C 61.440 146.971,61.840 147.111,62.161 147.279 C 62.481 147.446,62.899 147.583,63.089 147.583 C 63.278 147.583,63.611 147.717,63.829 147.882 C 64.046 148.046,64.361 148.186,64.529 148.194 C 64.697 148.201,65.201 148.384,65.649 148.601 C 66.097 148.817,66.579 148.997,66.720 149.001 C 66.862 149.005,67.137 149.088,67.331 149.187 C 67.525 149.286,68.234 149.567,68.906 149.812 C 69.578 150.057,70.428 150.388,70.796 150.549 C 71.163 150.709,71.621 150.843,71.814 150.846 C 72.006 150.850,72.341 150.987,72.558 151.152 C 72.775 151.316,73.142 151.453,73.372 151.457 C 73.603 151.460,73.969 151.598,74.186 151.762 C 74.404 151.927,74.776 152.061,75.013 152.061 C 75.250 152.061,75.622 152.196,75.839 152.360 C 76.056 152.524,76.420 152.662,76.647 152.665 C 76.874 152.669,77.240 152.797,77.461 152.951 C 77.682 153.105,78.160 153.295,78.524 153.374 C 78.888 153.454,79.186 153.603,79.186 153.706 C 79.186 153.809,79.325 153.893,79.496 153.893 C 79.957 153.893,81.530 155.423,82.071 156.398 L 82.544 157.252 82.600 171.978 L 82.657 186.703 82.193 187.650 C 81.939 188.171,81.353 188.965,80.891 189.413 C 80.063 190.218,79.765 190.400,77.557 191.446 C 76.941 191.737,76.300 192.057,76.132 192.157 C 75.964 192.256,75.415 192.534,74.911 192.775 C 73.799 193.306,72.071 194.174,71.654 194.412 C 71.486 194.507,70.936 194.780,70.433 195.017 C 69.929 195.254,69.379 195.529,69.211 195.628 C 68.882 195.821,67.936 196.290,66.158 197.140 C 65.542 197.435,64.901 197.762,64.733 197.868 C 64.448 198.046,64.092 198.223,61.539 199.455 C 61.001 199.714,60.422 200.006,60.254 200.103 C 60.087 200.200,58.896 200.794,57.608 201.423 C 56.321 202.052,55.084 202.669,54.860 202.793 C 54.064 203.235,51.694 203.233,50.585 202.789 C 49.703 202.436,45.870 200.603,44.987 200.113 C 44.819 200.019,44.316 199.773,43.868 199.566 C 43.420 199.359,42.916 199.088,42.748 198.963 C 42.580 198.839,41.916 198.524,41.272 198.263 C 40.628 198.001,40.102 197.713,40.102 197.622 C 40.102 197.530,39.994 197.455,39.863 197.455 C 39.654 197.455,36.883 196.133,36.031 195.627 C 35.863 195.527,34.443 194.827,32.875 194.071 C 31.308 193.315,29.995 192.622,29.958 192.531 C 29.920 192.441,29.761 192.366,29.604 192.366 C 29.247 192.366,25.493 190.407,25.103 190.017 C 24.944 189.859,24.648 189.613,24.445 189.470 C 24.242 189.328,23.765 188.753,23.386 188.193 L 22.697 187.176 22.697 172.316 L 22.697 157.455 23.164 156.507 C 23.753 155.311,24.834 154.156,25.524 153.982 C 25.817 153.909,26.056 153.775,26.056 153.684 C 26.056 153.593,26.337 153.457,26.680 153.381 C 27.024 153.306,27.551 153.116,27.851 152.959 C 28.151 152.802,28.539 152.674,28.712 152.673 C 28.886 152.672,29.127 152.573,29.247 152.452 C 29.368 152.332,29.776 152.155,30.153 152.059 C 30.822 151.890,31.273 151.729,33.588 150.833 C 34.204 150.595,35.028 150.307,35.420 150.194 C 35.812 150.080,36.219 149.905,36.326 149.803 C 36.432 149.701,36.661 149.618,36.835 149.617 C 37.008 149.616,37.413 149.479,37.733 149.312 C 38.054 149.144,38.420 149.005,38.547 149.001 C 38.675 148.997,39.145 148.817,39.593 148.601 C 40.041 148.384,40.562 148.204,40.751 148.200 C 40.941 148.196,41.148 148.109,41.212 148.005 C 41.276 147.902,41.624 147.753,41.986 147.673 C 42.596 147.539,43.062 147.364,44.682 146.662 C 45.018 146.517,45.476 146.350,45.700 146.291 C 46.113 146.183,46.836 145.917,48.855 145.131 C 49.471 144.891,50.369 144.613,50.850 144.514 C 51.332 144.415,51.882 144.243,52.072 144.132 C 52.527 143.867,52.554 143.869,53.404 144.224 M182.741 146.669 C 183.003 146.853,183.206 147.244,183.244 147.636 L 183.308 148.295 185.133 148.355 C 187.587 148.435,187.684 148.531,187.684 150.878 C 187.684 152.833,187.806 153.042,188.799 152.793 C 189.299 152.667,189.302 152.654,189.358 149.870 L 189.415 147.074 191.756 146.892 C 194.859 146.651,221.745 146.646,224.733 146.886 L 227.074 147.074 227.143 147.684 C 227.256 148.688,227.483 148.804,229.321 148.804 C 231.742 148.804,231.654 148.724,231.654 150.923 C 231.654 152.970,231.795 153.282,232.719 153.282 C 233.036 153.282,233.326 153.397,233.363 153.537 C 233.400 153.677,233.514 154.066,233.615 154.402 L 233.800 155.013 235.831 155.115 L 237.863 155.216 237.922 157.139 C 237.987 159.271,238.109 159.541,239.048 159.632 C 239.602 159.686,239.703 159.782,239.750 160.305 C 239.973 162.736,240.116 160.901,240.204 154.504 L 240.305 147.074 244.850 146.894 C 247.484 146.789,251.332 146.789,254.002 146.894 L 258.609 147.074 258.775 147.876 C 258.995 148.940,258.893 148.891,261.136 149.008 L 263.104 149.109 263.229 153.181 C 263.298 155.420,263.367 163.348,263.382 170.799 C 263.403 181.033,263.469 184.406,263.654 184.590 C 263.912 184.848,270.798 184.955,271.434 184.711 C 271.724 184.600,271.756 182.762,271.756 166.008 C 271.756 148.975,271.784 147.406,272.092 147.150 C 272.366 146.923,274.053 146.870,281.120 146.870 C 290.398 146.870,290.480 146.879,290.487 147.862 C 290.493 148.763,290.774 148.898,292.867 149.006 L 294.860 149.109 295.011 154.504 C 295.095 157.471,295.140 163.997,295.113 169.008 L 295.064 178.117 302.092 178.117 C 309.885 178.117,309.941 178.126,310.064 179.392 L 310.127 180.051 311.953 180.110 C 314.367 180.189,314.471 180.288,314.547 182.569 L 314.606 184.326 318.270 184.326 L 321.934 184.326 322.036 165.757 C 322.130 148.494,322.162 147.160,322.492 146.775 C 322.838 146.371,323.051 146.361,331.790 146.361 C 341.140 146.361,341.374 146.382,341.374 147.222 C 341.374 147.343,341.567 147.268,341.803 147.054 C 342.253 146.646,389.865 146.422,391.290 146.821 C 391.710 146.939,391.894 147.167,392.056 147.767 C 392.315 148.730,392.489 148.804,394.480 148.804 C 395.430 148.804,396.147 148.901,396.295 149.048 C 396.645 149.399,396.645 163.884,396.295 164.234 C 396.110 164.420,392.375 164.478,380.730 164.478 C 365.900 164.478,365.402 164.491,365.202 164.864 C 364.803 165.610,365.268 165.650,375.305 165.742 C 385.717 165.837,385.751 165.841,385.751 166.804 C 385.751 167.563,386.142 167.735,387.862 167.735 C 390.415 167.735,390.229 167.110,390.229 175.691 C 390.229 182.040,390.188 183.014,389.909 183.293 C 389.626 183.577,388.220 183.613,377.517 183.613 C 365.172 183.613,364.700 183.642,365.152 184.360 C 365.251 184.517,369.133 184.612,378.219 184.679 C 391.839 184.780,391.788 184.776,391.988 185.620 C 392.242 186.688,392.591 186.870,394.393 186.870 C 396.716 186.870,396.539 186.225,396.539 194.707 C 396.539 200.152,396.476 202.119,396.295 202.300 C 395.872 202.724,350.617 202.647,350.454 202.223 C 350.386 202.045,350.331 201.068,350.331 200.050 C 350.331 197.658,350.172 197.455,348.304 197.455 C 346.748 197.455,346.463 197.266,346.463 196.232 C 346.463 194.680,344.401 194.814,369.059 194.758 L 391.145 194.707 391.145 190.941 L 391.145 187.176 375.514 187.074 C 361.917 186.985,359.858 186.932,359.690 186.667 C 359.481 186.335,359.411 176.730,359.615 176.200 C 359.725 175.911,361.015 175.878,372.093 175.878 C 381.431 175.878,384.507 175.818,384.692 175.634 C 385.035 175.290,385.035 168.526,384.692 168.183 C 384.507 167.999,381.431 167.939,372.093 167.939 C 361.015 167.939,359.725 167.906,359.615 167.617 C 359.360 166.954,359.478 157.449,359.746 157.087 C 359.980 156.770,361.219 156.739,375.573 156.692 L 391.145 156.641 391.145 152.875 L 391.145 149.109 368.459 149.058 C 355.982 149.029,345.700 149.078,345.612 149.167 C 345.201 149.578,345.460 194.465,345.875 194.721 C 346.142 194.886,346.095 195.901,345.802 196.293 C 345.590 196.577,345.089 196.643,342.799 196.688 L 340.051 196.743 339.949 199.559 C 339.859 202.043,339.801 202.409,339.452 202.663 C 339.119 202.906,336.480 202.952,322.639 202.952 C 303.449 202.952,305.592 203.309,305.504 200.094 L 305.445 197.964 303.876 197.905 C 302.399 197.849,302.280 197.810,301.877 197.243 C 301.531 196.758,301.299 196.641,300.679 196.641 C 299.643 196.641,299.276 196.187,299.198 194.807 L 299.135 193.690 298.237 193.570 C 297.302 193.445,296.590 192.844,296.590 192.179 C 296.590 191.988,296.316 191.629,295.980 191.381 C 295.434 190.977,295.369 190.814,295.369 189.841 C 295.369 188.319,295.467 188.272,298.553 188.340 L 301.170 188.397 301.272 191.450 L 301.374 194.504 317.659 194.504 L 333.944 194.504 334.046 191.450 L 334.148 188.397 337.201 188.295 L 340.254 188.193 340.254 168.753 L 340.254 149.313 333.486 149.259 L 326.718 149.206 326.718 167.848 C 326.718 180.309,326.648 186.620,326.507 186.884 C 326.247 187.369,309.324 187.513,308.845 187.033 C 308.678 186.866,308.601 185.871,308.601 183.878 L 308.601 180.967 301.792 180.967 L 294.983 180.967 294.885 183.868 C 294.831 185.463,294.803 187.181,294.822 187.684 C 294.842 188.188,294.858 190.249,294.859 192.265 L 294.860 195.929 291.807 196.050 C 290.127 196.117,288.730 196.185,288.702 196.203 C 288.674 196.220,288.651 197.544,288.651 199.145 C 288.651 201.138,288.574 202.133,288.407 202.300 C 288.034 202.674,255.813 202.652,255.503 202.278 C 255.381 202.131,255.256 201.009,255.224 199.784 L 255.165 197.557 253.842 197.505 C 252.171 197.439,251.604 197.310,251.600 196.994 C 251.593 196.443,251.200 196.190,250.154 196.063 L 249.059 195.929 248.957 194.504 L 248.855 193.079 248.142 193.024 C 246.742 192.916,246.514 192.802,246.511 192.210 C 246.507 191.506,246.328 191.237,245.741 191.054 C 245.315 190.921,245.279 190.805,245.334 189.754 L 245.394 188.601 247.786 188.543 C 249.102 188.512,250.192 188.512,250.210 188.543 C 250.227 188.575,250.296 189.975,250.362 191.654 L 250.483 194.707 266.746 194.759 C 278.399 194.797,283.086 194.748,283.280 194.586 C 283.477 194.423,283.567 193.576,283.608 191.481 L 283.664 188.601 286.544 188.544 C 288.638 188.503,289.486 188.414,289.650 188.217 C 289.811 188.022,289.860 182.476,289.823 168.528 L 289.771 149.109 282.748 149.109 L 275.725 149.109 275.673 167.966 L 275.621 186.823 275.164 186.946 C 274.387 187.154,259.203 187.090,258.640 186.876 L 258.119 186.678 258.067 167.893 L 258.015 149.109 251.043 149.056 L 244.071 149.002 244.071 167.631 C 244.071 185.234,244.052 186.260,243.715 186.266 C 243.390 186.271,243.388 186.289,243.694 186.468 C 244.158 186.739,244.451 189.483,244.043 189.742 C 243.891 189.838,242.563 189.919,241.094 189.921 C 237.800 189.924,237.991 189.721,237.919 193.296 L 237.863 196.132 234.982 196.189 C 231.461 196.258,231.681 196.035,231.609 199.607 L 231.552 202.443 214.962 202.443 L 198.372 202.443 198.270 200.285 C 198.141 197.563,198.085 197.489,196.063 197.413 L 194.504 197.354 194.444 196.216 C 194.352 194.483,193.070 194.614,210.605 194.556 L 226.260 194.504 226.361 191.450 L 226.463 188.397 229.517 188.295 L 232.570 188.193 232.672 185.140 L 232.774 182.087 235.827 181.985 L 238.880 181.883 238.880 171.908 L 238.880 161.934 236.234 161.884 C 232.307 161.810,232.693 162.159,232.626 158.623 L 232.570 155.623 229.720 155.522 C 226.088 155.392,226.361 155.656,226.361 152.278 C 226.361 150.154,226.293 149.408,226.085 149.235 C 225.883 149.068,221.417 149.019,209.647 149.057 L 193.486 149.109 193.486 171.872 C 193.486 193.339,193.506 194.646,193.842 194.834 C 194.360 195.123,194.286 195.926,193.706 196.306 C 193.332 196.551,192.560 196.643,190.500 196.686 L 187.786 196.743 187.729 199.482 C 187.647 203.417,189.944 202.952,170.593 202.952 C 151.359 202.952,153.426 203.284,153.282 200.170 L 153.181 197.964 151.704 197.905 C 150.336 197.849,150.195 197.801,149.783 197.243 C 149.411 196.740,149.196 196.641,148.472 196.641 C 147.353 196.641,146.972 196.139,146.972 194.662 L 146.972 193.588 146.166 193.588 C 145.260 193.588,144.529 192.997,144.529 192.265 C 144.529 192.020,144.264 191.636,143.919 191.381 C 143.385 190.986,143.308 190.804,143.308 189.934 C 143.308 188.240,143.209 188.295,146.258 188.295 C 149.473 188.295,149.204 187.966,149.208 191.908 L 149.211 194.606 165.496 194.606 L 181.781 194.606 181.781 191.772 C 181.781 187.954,181.460 188.295,185.060 188.295 L 188.092 188.295 188.092 171.908 L 188.092 155.522 185.181 155.522 C 181.546 155.522,181.781 155.757,181.781 152.122 L 181.781 149.211 165.496 149.211 L 149.211 149.211 149.211 152.022 C 149.211 155.722,149.426 155.501,145.751 155.569 L 142.799 155.623 142.697 171.175 C 142.597 186.491,142.589 186.730,142.188 186.886 C 141.844 187.021,141.836 187.047,142.137 187.059 C 142.380 187.069,142.494 187.240,142.494 187.596 C 142.494 187.883,142.591 188.300,142.709 188.521 C 143.023 189.107,142.993 201.883,142.677 202.264 C 142.479 202.502,140.791 202.540,132.340 202.496 L 122.239 202.443 122.181 200.313 C 122.106 197.611,121.993 197.455,120.085 197.455 C 118.828 197.455,118.668 197.407,118.272 196.904 C 117.946 196.488,117.602 196.325,116.884 196.242 L 115.929 196.132 115.826 194.911 C 115.696 193.363,115.569 193.181,114.625 193.181 C 113.782 193.181,113.314 192.800,113.113 191.952 C 113.046 191.668,112.717 191.233,112.383 190.986 L 111.774 190.536 111.563 191.299 C 111.443 191.728,111.350 194.180,111.350 196.909 C 111.349 199.859,111.266 201.911,111.138 202.151 C 110.878 202.636,97.414 202.778,96.936 202.300 C 96.778 202.142,96.692 201.320,96.692 199.966 C 96.692 197.501,96.653 197.455,94.564 197.455 C 92.973 197.455,92.602 197.047,92.942 195.670 L 93.130 194.911 99.321 194.857 C 103.475 194.821,105.602 194.729,105.784 194.578 C 106.000 194.399,106.056 193.093,106.056 188.270 L 106.056 182.188 108.397 182.188 C 109.684 182.188,110.752 182.211,110.769 182.239 C 110.787 182.267,110.855 183.664,110.922 185.344 L 111.043 188.397 114.043 188.453 C 117.579 188.520,117.230 188.134,117.304 192.061 L 117.354 194.707 127.430 194.707 L 137.506 194.707 137.562 190.906 L 137.617 187.104 134.653 187.038 C 131.068 186.958,131.305 187.204,131.301 183.566 C 131.297 180.265,131.666 180.582,127.735 180.508 L 125.089 180.458 125.032 177.622 C 124.961 174.050,125.180 174.273,121.659 174.204 L 118.779 174.148 118.720 172.028 C 118.647 169.363,118.495 169.487,121.994 169.364 L 124.885 169.262 124.942 166.416 C 125.012 162.955,124.789 163.177,128.305 163.053 L 131.196 162.952 131.298 160.060 C 131.421 156.545,131.199 156.767,134.661 156.698 L 137.506 156.641 137.562 152.822 L 137.617 149.002 130.641 149.056 L 123.664 149.109 123.562 151.994 C 123.439 155.487,123.731 155.195,120.238 155.318 L 117.354 155.420 117.252 158.311 C 117.128 161.826,117.351 161.604,113.889 161.673 L 111.043 161.730 110.922 164.784 C 110.855 166.463,110.787 167.863,110.769 167.895 C 110.752 167.926,109.707 167.926,108.448 167.895 L 106.158 167.837 106.051 158.473 C 105.992 153.323,105.923 149.085,105.898 149.056 C 105.873 149.026,102.715 149.026,98.880 149.056 L 91.908 149.109 91.857 170.947 L 91.805 192.784 91.284 192.982 C 90.423 193.310,88.531 193.227,88.108 192.844 C 87.751 192.521,87.735 191.545,87.735 169.975 L 87.735 147.442 88.164 147.054 C 88.571 146.686,89.023 146.667,97.303 146.667 C 106.835 146.667,106.870 146.671,106.870 147.879 C 106.870 148.636,107.263 148.804,109.034 148.804 C 111.474 148.804,111.349 148.514,111.349 154.172 C 111.349 159.137,111.393 159.389,112.265 159.389 C 113.073 159.389,113.181 159.029,113.181 156.320 C 113.181 153.194,113.010 153.370,116.177 153.219 C 119.656 153.052,119.491 153.210,119.491 150.050 C 119.491 146.306,118.471 146.667,129.049 146.667 C 138.316 146.667,138.422 146.678,138.422 147.642 C 138.422 148.532,138.972 148.804,140.770 148.804 C 142.895 148.804,142.951 148.866,142.865 151.144 C 142.802 152.813,142.818 152.892,143.206 152.787 C 143.430 152.727,143.819 152.676,144.071 152.675 C 144.523 152.672,144.529 152.635,144.529 149.988 C 144.529 147.512,144.564 147.267,144.972 146.832 L 145.414 146.361 163.858 146.361 C 179.993 146.361,182.356 146.400,182.741 146.669 M52.112 152.394 C 51.944 152.455,51.518 152.634,51.165 152.792 C 50.812 152.950,50.331 153.079,50.096 153.079 C 49.861 153.079,49.669 153.166,49.669 153.273 C 49.669 153.380,49.328 153.532,48.911 153.610 C 48.494 153.688,48.029 153.875,47.879 154.026 C 47.728 154.177,47.347 154.300,47.033 154.300 C 46.719 154.300,46.348 154.438,46.209 154.606 C 46.069 154.774,45.745 154.911,45.488 154.911 C 45.231 154.911,44.738 155.048,44.393 155.216 C 44.048 155.384,43.484 155.659,43.139 155.827 C 42.794 155.995,42.359 156.133,42.172 156.134 C 41.985 156.134,41.570 156.272,41.249 156.439 C 40.928 156.606,40.562 156.746,40.435 156.750 C 40.308 156.754,39.837 156.934,39.389 157.150 C 38.941 157.366,38.471 157.547,38.344 157.550 C 38.217 157.554,37.850 157.694,37.530 157.861 C 37.209 158.029,36.809 158.169,36.641 158.173 C 36.473 158.177,36.158 158.315,35.941 158.480 C 35.723 158.644,35.357 158.782,35.126 158.785 C 34.896 158.789,34.530 158.926,34.312 159.090 C 34.095 159.255,33.671 159.389,33.370 159.389 C 33.069 159.389,32.709 159.527,32.570 159.695 C 32.431 159.863,32.053 160.000,31.731 160.000 C 30.741 160.000,31.109 160.644,32.264 160.934 C 32.598 161.018,32.993 161.208,33.142 161.357 C 33.291 161.507,33.583 161.628,33.789 161.628 C 33.996 161.628,34.448 161.766,34.793 161.934 C 35.138 162.102,35.702 162.377,36.047 162.545 C 36.392 162.712,36.839 162.850,37.040 162.850 C 37.241 162.850,37.520 162.987,37.659 163.155 C 37.798 163.323,38.113 163.461,38.358 163.461 C 38.602 163.461,38.980 163.595,39.198 163.759 C 39.415 163.924,39.788 164.061,40.026 164.065 C 40.264 164.068,40.573 164.209,40.712 164.377 C 40.852 164.545,41.138 164.682,41.349 164.682 C 41.559 164.682,42.074 164.865,42.491 165.089 C 42.909 165.313,43.413 165.496,43.610 165.496 C 43.808 165.496,43.969 165.588,43.969 165.700 C 43.969 165.812,44.120 165.903,44.303 165.903 C 44.487 165.903,45.014 166.077,45.474 166.288 C 45.934 166.500,46.723 166.832,47.226 167.026 C 47.730 167.221,48.417 167.497,48.753 167.640 C 49.089 167.784,49.776 168.055,50.280 168.242 C 50.784 168.429,51.455 168.712,51.772 168.871 C 52.089 169.030,52.471 169.160,52.621 169.160 C 52.771 169.160,53.153 169.030,53.470 168.871 C 53.786 168.712,54.458 168.429,54.962 168.242 C 55.466 168.055,56.153 167.784,56.489 167.640 C 56.824 167.497,57.511 167.221,58.015 167.026 C 58.519 166.832,59.308 166.500,59.768 166.288 C 60.228 166.077,60.755 165.903,60.938 165.903 C 61.122 165.903,61.272 165.812,61.272 165.700 C 61.272 165.588,61.434 165.496,61.632 165.496 C 61.829 165.496,62.333 165.313,62.750 165.089 C 63.168 164.865,63.682 164.682,63.893 164.682 C 64.104 164.682,64.390 164.545,64.529 164.377 C 64.669 164.209,64.978 164.068,65.216 164.065 C 65.454 164.061,65.827 163.924,66.044 163.759 C 66.261 163.595,66.639 163.461,66.884 163.461 C 67.129 163.461,67.443 163.323,67.583 163.155 C 67.722 162.987,68.017 162.850,68.238 162.850 C 68.459 162.850,68.883 162.728,69.180 162.580 C 69.477 162.431,70.025 162.157,70.398 161.969 C 70.771 161.782,71.203 161.628,71.359 161.628 C 71.599 161.628,72.459 161.258,73.677 160.631 C 74.226 160.348,74.151 160.000,73.542 160.000 C 73.218 160.000,72.775 159.866,72.558 159.701 C 72.341 159.537,71.963 159.399,71.719 159.396 C 71.475 159.392,71.138 159.252,70.971 159.084 C 70.803 158.916,70.447 158.779,70.181 158.779 C 69.914 158.779,69.518 158.644,69.301 158.480 C 69.084 158.315,68.768 158.177,68.601 158.173 C 68.433 158.169,68.033 158.029,67.712 157.861 C 67.391 157.694,67.025 157.554,66.898 157.550 C 66.771 157.547,66.300 157.366,65.852 157.150 C 65.405 156.934,64.934 156.754,64.807 156.750 C 64.680 156.746,64.313 156.606,63.993 156.439 C 63.672 156.272,63.267 156.134,63.092 156.134 C 62.918 156.133,62.597 155.998,62.380 155.833 C 62.163 155.669,61.796 155.532,61.566 155.528 C 61.335 155.525,60.969 155.387,60.751 155.223 C 60.534 155.058,60.116 154.921,59.821 154.917 C 59.527 154.914,59.172 154.774,59.033 154.606 C 58.894 154.438,58.582 154.300,58.341 154.300 C 58.100 154.300,57.722 154.176,57.501 154.024 C 57.280 153.872,56.756 153.684,56.336 153.607 C 55.916 153.531,55.573 153.392,55.573 153.299 C 55.573 153.207,55.214 153.074,54.775 153.003 C 54.337 152.933,53.948 152.792,53.910 152.689 C 53.826 152.457,52.527 152.244,52.112 152.394 M174.403 171.794 C 174.445 183.781,174.402 186.980,174.200 187.109 C 173.904 187.296,157.345 187.339,156.861 187.154 C 156.524 187.024,156.343 157.008,156.677 156.673 C 156.753 156.597,160.761 156.559,165.583 156.588 L 174.351 156.641 174.403 171.794 M218.510 156.859 C 218.770 157.120,218.830 157.708,218.830 160.015 L 218.830 162.850 221.463 162.850 C 222.911 162.850,224.331 162.939,224.618 163.048 L 225.140 163.247 225.137 171.751 C 225.135 176.428,225.063 180.366,224.976 180.503 C 224.866 180.676,223.916 180.769,221.875 180.808 L 218.931 180.865 218.882 183.511 C 218.854 184.967,218.784 186.364,218.725 186.616 L 218.618 187.074 213.046 187.074 C 208.152 187.074,207.459 187.035,207.350 186.752 C 207.125 186.166,207.209 157.359,207.437 156.933 C 207.731 156.385,217.967 156.317,218.510 156.859 M136.947 164.698 C 136.634 164.880,136.590 165.255,136.590 167.738 C 136.590 171.180,136.788 170.992,133.157 170.992 C 129.996 170.992,130.276 170.600,130.373 174.900 C 130.452 178.365,130.487 178.524,131.167 178.524 C 131.739 178.524,132.112 178.885,132.112 179.440 C 132.112 180.188,132.510 180.356,134.276 180.356 C 136.475 180.356,136.590 180.471,136.590 182.671 C 136.590 184.450,136.757 184.835,137.530 184.835 C 137.778 184.835,138.028 184.949,138.084 185.089 C 138.140 185.229,138.194 180.649,138.203 174.911 L 138.219 164.478 137.761 164.485 C 137.509 164.488,137.142 164.584,136.947 164.698 M213.153 164.756 C 212.987 164.956,212.937 167.753,212.975 174.782 L 213.028 184.529 213.600 184.595 C 214.656 184.716,214.758 184.437,214.758 181.455 C 214.758 178.268,214.399 178.593,218.064 178.461 C 221.350 178.342,221.069 178.930,221.069 172.189 C 221.069 166.294,220.981 165.706,220.102 165.698 C 220.018 165.698,219.793 165.423,219.602 165.088 L 219.256 164.478 216.319 164.478 C 214.088 164.478,213.328 164.545,213.153 164.756 M162.583 165.017 C 162.506 165.094,162.443 169.493,162.443 174.792 L 162.443 184.427 166.109 184.427 L 169.775 184.427 169.722 174.707 L 169.669 164.987 166.196 164.932 C 164.286 164.901,162.660 164.939,162.583 165.017 M74.097 169.177 C 73.542 169.491,71.883 170.178,71.682 170.178 C 71.573 170.178,71.224 170.307,70.907 170.463 C 69.753 171.035,68.782 171.399,68.415 171.399 C 68.209 171.399,67.926 171.537,67.786 171.705 C 67.647 171.873,67.439 172.010,67.325 172.010 C 67.001 172.010,62.467 173.801,61.631 174.259 C 61.437 174.366,61.161 174.453,61.018 174.453 C 60.874 174.453,60.416 174.636,59.998 174.860 C 59.580 175.084,59.066 175.267,58.855 175.267 C 58.645 175.267,58.358 175.405,58.219 175.573 C 58.079 175.740,57.751 175.878,57.489 175.878 C 57.226 175.878,56.917 176.054,56.801 176.272 C 56.517 176.803,56.511 192.497,56.794 192.672 C 56.953 192.770,61.341 190.719,63.104 189.723 C 63.272 189.628,64.765 188.886,66.421 188.075 C 68.077 187.263,69.480 186.523,69.537 186.429 C 69.595 186.336,69.809 186.260,70.013 186.260 C 70.216 186.260,70.497 186.122,70.636 185.954 C 70.776 185.786,71.050 185.649,71.247 185.649 C 71.443 185.649,71.718 185.511,71.858 185.344 C 71.997 185.176,72.272 185.038,72.468 185.038 C 72.665 185.038,72.940 184.901,73.079 184.733 C 73.218 184.565,73.499 184.427,73.703 184.427 C 74.654 184.427,74.707 183.995,74.707 176.353 C 74.707 169.212,74.677 168.850,74.097 169.177 "
            stroke="none" fill="none" fill-rule="evenodd"></path>
        <path id="path1"
            d="M97.140 0.855 C 96.745 1.250,96.789 78.148,97.185 78.689 C 97.739 79.447,184.392 79.396,185.151 78.636 C 185.405 78.383,185.443 77.345,185.397 71.891 L 185.344 65.445 158.473 65.342 C 143.695 65.285,131.580 65.216,131.552 65.189 C 131.247 64.895,131.547 47.216,131.860 47.049 C 132.076 46.933,140.549 46.829,153.101 46.787 C 170.425 46.729,174.041 46.670,174.320 46.438 C 174.762 46.071,174.840 33.375,174.402 33.030 C 173.912 32.645,162.408 32.361,147.277 32.360 C 138.880 32.360,131.895 32.287,131.754 32.197 C 131.552 32.069,131.508 30.111,131.550 23.091 L 131.603 14.148 158.250 14.096 C 177.531 14.059,184.972 13.981,185.171 13.817 C 185.616 13.447,185.570 0.906,185.123 0.734 C 184.452 0.476,97.399 0.596,97.140 0.855 M77.286 87.464 C 77.020 87.729,77.128 137.708,77.394 137.975 C 77.714 138.294,92.040 138.326,92.634 138.008 C 93.011 137.806,93.028 137.515,93.028 131.229 C 93.028 123.571,92.826 124.173,95.393 124.173 C 98.101 124.173,97.913 123.945,97.913 127.235 C 97.913 128.783,98.003 130.285,98.112 130.572 L 98.311 131.094 101.281 131.094 C 105.306 131.094,105.038 130.843,105.038 134.623 C 105.038 136.768,105.114 137.806,105.282 137.975 C 105.604 138.296,126.845 138.329,127.443 138.008 C 127.813 137.810,127.837 137.542,127.837 133.639 C 127.837 128.653,128.157 129.059,124.227 129.059 C 120.689 129.059,120.916 129.296,120.916 125.598 C 120.916 121.888,121.167 122.137,117.440 122.137 C 113.797 122.137,113.961 122.267,114.038 119.461 L 114.097 117.354 120.916 117.245 C 124.667 117.185,127.758 117.117,127.786 117.092 C 128.062 116.854,127.796 94.481,127.515 94.373 C 127.338 94.305,125.876 94.249,124.265 94.249 C 120.694 94.249,120.916 94.496,120.916 90.519 C 120.916 88.023,120.867 87.557,120.594 87.452 C 120.153 87.282,77.455 87.294,77.286 87.464 M111.715 96.529 C 112.063 96.877,112.063 107.499,111.715 107.847 C 111.547 108.015,110.539 108.092,108.499 108.092 C 104.791 108.092,105.038 107.847,105.038 111.526 C 105.038 115.574,105.632 115.216,98.907 115.216 C 93.720 115.216,93.439 115.197,93.239 114.823 C 92.919 114.226,92.951 96.850,93.272 96.529 C 93.624 96.178,111.364 96.178,111.715 96.529 M90.593 146.701 C 87.358 146.826,87.735 143.752,87.735 169.975 C 87.735 191.545,87.751 192.521,88.108 192.844 C 88.531 193.227,90.423 193.310,91.284 192.982 L 91.805 192.784 91.857 170.947 L 91.908 149.109 98.880 149.056 C 102.715 149.026,105.873 149.026,105.898 149.056 C 105.923 149.085,105.992 153.323,106.051 158.473 L 106.158 167.837 108.448 167.895 C 109.707 167.926,110.752 167.926,110.769 167.895 C 110.787 167.863,110.855 166.463,110.922 164.784 L 111.043 161.730 113.889 161.673 C 117.351 161.604,117.128 161.826,117.252 158.311 L 117.354 155.420 120.238 155.318 C 123.731 155.195,123.439 155.487,123.562 151.994 L 123.664 149.109 130.641 149.056 L 137.617 149.002 137.562 152.822 L 137.506 156.641 134.661 156.698 C 131.199 156.767,131.421 156.545,131.298 160.060 L 131.196 162.952 128.305 163.053 C 124.789 163.177,125.012 162.955,124.942 166.416 L 124.885 169.262 121.994 169.364 C 118.495 169.487,118.647 169.363,118.720 172.028 L 118.779 174.148 121.659 174.204 C 125.180 174.273,124.961 174.050,125.032 177.622 L 125.089 180.458 127.735 180.508 C 131.666 180.582,131.297 180.265,131.301 183.566 C 131.305 187.204,131.068 186.958,134.653 187.038 L 137.617 187.104 137.562 190.906 L 137.506 194.707 127.430 194.707 L 117.354 194.707 117.304 192.061 C 117.230 188.134,117.579 188.520,114.043 188.453 L 111.043 188.397 110.922 185.344 C 110.855 183.664,110.787 182.267,110.769 182.239 C 110.752 182.211,109.684 182.188,108.397 182.188 L 106.056 182.188 106.056 188.270 C 106.056 193.093,106.000 194.399,105.784 194.578 C 105.602 194.729,103.475 194.821,99.321 194.857 L 93.130 194.911 92.942 195.670 C 92.602 197.047,92.973 197.455,94.564 197.455 C 96.653 197.455,96.692 197.501,96.692 199.966 C 96.692 201.320,96.778 202.142,96.936 202.300 C 97.414 202.778,110.878 202.636,111.138 202.151 C 111.266 201.911,111.349 199.859,111.350 196.909 C 111.350 194.180,111.443 191.728,111.563 191.299 L 111.774 190.536 112.383 190.986 C 112.717 191.233,113.046 191.668,113.113 191.952 C 113.314 192.800,113.782 193.181,114.625 193.181 C 115.569 193.181,115.696 193.363,115.826 194.911 L 115.929 196.132 116.884 196.242 C 117.602 196.325,117.946 196.488,118.272 196.904 C 118.668 197.407,118.828 197.455,120.085 197.455 C 121.993 197.455,122.106 197.611,122.181 200.313 L 122.239 202.443 132.340 202.496 C 140.791 202.540,142.479 202.502,142.677 202.264 C 142.993 201.883,143.023 189.107,142.709 188.521 C 142.591 188.300,142.494 187.883,142.494 187.596 C 142.494 187.076,142.485 187.074,140.763 187.074 C 138.909 187.074,138.219 186.747,138.219 185.869 C 138.219 185.184,137.984 184.835,137.525 184.835 C 136.758 184.835,136.590 184.447,136.590 182.671 C 136.590 180.471,136.475 180.356,134.276 180.356 C 132.510 180.356,132.112 180.188,132.112 179.440 C 132.112 178.885,131.739 178.524,131.167 178.524 C 130.487 178.524,130.452 178.365,130.373 174.900 C 130.276 170.596,129.988 170.992,133.206 170.992 C 136.763 170.992,136.570 171.181,136.638 167.638 L 136.692 164.793 137.303 164.608 C 137.639 164.506,138.028 164.392,138.168 164.355 C 138.363 164.303,138.422 163.058,138.422 159.000 C 138.422 152.751,138.287 153.079,140.870 153.079 C 142.823 153.079,142.901 152.997,142.901 150.941 C 142.901 148.868,142.836 148.804,140.754 148.804 C 138.973 148.804,138.422 148.530,138.422 147.642 C 138.422 146.678,138.316 146.667,129.049 146.667 C 118.471 146.667,119.491 146.306,119.491 150.050 C 119.491 153.210,119.656 153.052,116.177 153.219 C 113.010 153.370,113.181 153.194,113.181 156.320 C 113.181 159.029,113.073 159.389,112.265 159.389 C 111.393 159.389,111.349 159.137,111.349 154.172 C 111.349 148.514,111.474 148.804,109.034 148.804 C 107.263 148.804,106.870 148.636,106.870 147.879 C 106.870 146.796,106.655 146.761,99.417 146.687 C 95.735 146.650,91.764 146.656,90.593 146.701 M344.199 146.708 C 341.129 146.812,341.460 143.851,341.578 170.178 L 341.679 192.875 343.461 192.934 C 344.440 192.966,345.264 192.966,345.290 192.934 C 345.317 192.902,345.386 183.028,345.443 170.992 L 345.547 149.109 368.346 149.109 L 391.145 149.109 391.145 152.875 L 391.145 156.641 375.573 156.692 C 361.219 156.739,359.980 156.770,359.746 157.087 C 359.478 157.449,359.360 166.954,359.615 167.617 C 359.725 167.906,361.015 167.939,372.093 167.939 C 381.431 167.939,384.507 167.999,384.692 168.183 C 384.863 168.354,384.936 169.472,384.936 171.908 C 384.936 174.344,384.863 175.463,384.692 175.634 C 384.507 175.818,381.431 175.878,372.093 175.878 C 361.015 175.878,359.725 175.911,359.615 176.200 C 359.411 176.730,359.481 186.335,359.690 186.667 C 359.858 186.932,361.917 186.985,375.514 187.074 L 391.145 187.176 391.145 190.941 L 391.145 194.707 369.059 194.758 C 344.401 194.814,346.463 194.680,346.463 196.232 C 346.463 197.266,346.748 197.455,348.304 197.455 C 350.172 197.455,350.331 197.658,350.331 200.050 C 350.331 201.068,350.386 202.045,350.454 202.223 C 350.617 202.647,395.872 202.724,396.295 202.300 C 396.476 202.119,396.539 200.152,396.539 194.707 C 396.539 186.225,396.716 186.870,394.393 186.870 C 392.591 186.870,392.242 186.688,391.988 185.620 C 391.788 184.776,391.839 184.780,378.219 184.679 C 369.133 184.612,365.251 184.517,365.152 184.360 C 364.700 183.642,365.172 183.613,377.517 183.613 C 388.220 183.613,389.626 183.577,389.909 183.293 C 390.188 183.014,390.229 182.040,390.229 175.691 C 390.229 167.110,390.415 167.735,387.862 167.735 C 386.142 167.735,385.751 167.563,385.751 166.804 C 385.751 165.841,385.717 165.837,375.305 165.742 C 365.268 165.650,364.803 165.610,365.202 164.864 C 365.402 164.491,365.900 164.478,380.730 164.478 C 392.375 164.478,396.110 164.420,396.295 164.234 C 396.645 163.884,396.645 149.399,396.295 149.048 C 396.147 148.901,395.430 148.804,394.480 148.804 C 392.494 148.804,392.315 148.728,392.061 147.786 C 391.947 147.361,391.694 146.940,391.499 146.849 C 391.155 146.689,348.516 146.562,344.199 146.708 "
            stroke="none" fill="#05e1f9" fill-rule="evenodd"></path>
        <path id="path2"
            d="M310.120 0.865 C 310.066 1.005,310.046 18.570,310.075 39.898 L 310.127 78.677 315.623 78.912 C 325.321 79.328,343.455 79.078,344.173 78.520 C 344.373 78.364,344.427 74.955,344.427 62.694 C 344.427 48.632,344.460 47.054,344.749 46.943 C 344.927 46.875,349.278 46.819,354.419 46.819 L 363.766 46.819 363.766 62.570 C 363.766 74.930,363.821 78.364,364.020 78.520 C 364.739 79.078,382.872 79.328,392.570 78.912 L 398.066 78.677 398.066 39.695 L 398.066 0.712 381.193 0.660 C 368.941 0.623,364.244 0.671,364.044 0.837 C 363.817 1.025,363.759 3.863,363.716 16.767 L 363.664 32.468 354.443 32.521 C 348.319 32.556,345.089 32.503,344.825 32.361 C 344.436 32.153,344.427 31.816,344.427 16.503 C 344.427 2.424,344.395 0.845,344.105 0.734 C 343.414 0.469,310.222 0.597,310.120 0.865 M11.440 87.573 C 11.116 87.897,11.083 130.096,11.407 130.700 C 11.601 131.063,11.861 131.094,14.725 131.094 C 18.583 131.094,18.321 130.847,18.321 134.477 C 18.321 138.406,17.863 138.016,22.465 138.012 C 27.366 138.008,26.950 138.334,27.074 134.410 L 27.176 131.196 30.390 131.094 C 34.263 130.971,33.987 131.245,33.995 127.532 C 34.003 123.924,33.824 124.146,36.658 124.217 L 38.982 124.275 39.084 127.430 C 39.213 131.429,38.890 131.094,42.618 131.094 C 46.470 131.094,46.209 130.848,46.209 134.477 C 46.209 138.406,45.751 138.016,50.353 138.012 C 55.255 138.008,54.838 138.334,54.962 134.410 L 55.064 131.196 58.278 131.094 C 60.834 131.013,61.531 130.930,61.684 130.687 C 62.121 129.994,61.930 87.775,61.489 87.539 C 61.065 87.312,47.106 87.231,46.531 87.452 C 46.242 87.563,46.209 88.953,46.209 101.074 C 46.209 108.498,46.153 114.717,46.085 114.894 C 45.858 115.485,41.206 115.360,41.044 114.758 C 40.977 114.506,40.920 108.326,40.919 101.025 C 40.916 88.110,40.905 87.744,40.522 87.539 C 39.898 87.205,32.676 87.261,32.393 87.602 C 32.232 87.796,32.150 91.846,32.113 101.495 L 32.061 115.115 29.736 115.172 C 28.014 115.215,27.369 115.163,27.246 114.969 C 27.155 114.825,27.079 108.642,27.077 101.229 C 27.074 88.112,27.063 87.744,26.680 87.539 C 26.086 87.221,11.760 87.253,11.440 87.573 M275.257 87.573 C 274.998 87.832,274.880 137.024,275.136 137.693 C 275.342 138.230,324.876 138.181,325.363 137.643 C 325.915 137.033,325.864 129.772,325.306 129.473 C 325.044 129.332,319.272 129.262,308.010 129.262 C 291.508 129.262,291.103 129.253,290.898 128.868 C 290.521 128.165,290.620 117.755,291.007 117.368 C 291.291 117.084,292.815 117.048,304.707 117.048 C 314.842 117.048,318.146 116.989,318.331 116.804 C 318.743 116.392,318.671 108.579,318.253 108.419 C 318.076 108.351,311.896 108.295,304.520 108.295 C 291.469 108.295,291.103 108.285,290.898 107.901 C 290.583 107.313,290.614 96.847,290.931 96.529 C 291.117 96.343,295.193 96.285,308.031 96.285 C 324.614 96.285,324.892 96.278,325.293 95.878 C 325.671 95.499,325.700 95.199,325.700 91.598 L 325.700 87.725 325.178 87.527 C 324.357 87.215,275.570 87.259,275.257 87.573 M242.646 146.962 L 240.305 147.074 240.253 166.603 C 240.212 182.092,240.254 186.166,240.457 186.295 C 240.756 186.485,242.949 186.513,243.613 186.335 L 244.071 186.212 244.071 167.607 L 244.071 149.002 251.043 149.056 L 258.015 149.109 258.067 167.893 L 258.119 186.678 258.640 186.876 C 259.203 187.090,274.387 187.154,275.164 186.946 L 275.621 186.823 275.673 167.966 L 275.725 149.109 282.748 149.109 L 289.771 149.109 289.823 168.528 C 289.860 182.476,289.811 188.022,289.650 188.217 C 289.486 188.414,288.638 188.503,286.544 188.544 L 283.664 188.601 283.608 191.481 C 283.567 193.576,283.477 194.423,283.280 194.586 C 283.086 194.748,278.399 194.797,266.746 194.759 L 250.483 194.707 250.362 191.654 C 250.296 189.975,250.227 188.575,250.210 188.543 C 250.192 188.512,249.102 188.512,247.786 188.543 L 245.394 188.601 245.334 189.754 C 245.279 190.805,245.315 190.921,245.741 191.054 C 246.328 191.237,246.507 191.506,246.511 192.210 C 246.514 192.802,246.742 192.916,248.142 193.024 L 248.855 193.079 248.957 194.504 L 249.059 195.929 250.154 196.063 C 251.200 196.190,251.593 196.443,251.600 196.994 C 251.604 197.310,252.171 197.439,253.842 197.505 L 255.165 197.557 255.224 199.784 C 255.256 201.009,255.381 202.131,255.503 202.278 C 255.813 202.652,288.034 202.674,288.407 202.300 C 288.574 202.133,288.651 201.138,288.651 199.145 C 288.651 197.544,288.674 196.220,288.702 196.203 C 288.730 196.185,290.127 196.117,291.807 196.050 L 294.860 195.929 294.859 191.959 C 294.859 186.646,294.942 186.870,292.968 186.870 C 290.438 186.870,290.483 186.947,290.483 182.717 C 290.483 178.427,290.428 178.524,292.877 178.524 C 295.386 178.524,295.170 179.553,295.137 167.772 C 295.121 162.210,295.052 155.735,294.984 153.384 L 294.860 149.109 292.867 149.006 C 290.774 148.898,290.493 148.763,290.487 147.862 C 290.480 146.879,290.398 146.870,281.120 146.870 C 274.053 146.870,272.366 146.923,272.092 147.150 C 271.784 147.406,271.756 148.975,271.756 166.008 C 271.756 182.762,271.724 184.600,271.434 184.711 C 270.798 184.955,263.912 184.848,263.654 184.590 C 263.469 184.406,263.403 181.033,263.382 170.799 C 263.367 163.348,263.298 155.420,263.229 153.181 L 263.104 149.109 261.136 149.008 C 258.893 148.891,258.995 148.940,258.775 147.876 L 258.609 147.074 255.971 146.944 C 252.882 146.793,245.989 146.802,242.646 146.962 "
            stroke="none" fill="#05ca2c" fill-rule="evenodd"></path>
        <path id="path3"
            d="M1.628 7.226 L 1.628 13.639 11.994 13.639 C 17.694 13.639,22.503 13.694,22.681 13.762 C 22.972 13.874,23.003 16.913,23.003 46.098 L 23.003 78.311 31.544 78.459 C 36.242 78.540,43.846 78.540,48.440 78.459 L 56.794 78.311 56.794 46.185 C 56.794 14.632,56.801 14.056,57.188 13.849 C 57.444 13.712,61.200 13.639,67.976 13.639 L 78.372 13.639 78.372 7.226 L 78.372 0.814 40.000 0.814 L 1.628 0.814 1.628 7.226 M225.093 5.852 L 225.038 10.891 222.188 11.045 C 220.621 11.130,218.239 11.268,216.896 11.351 L 214.453 11.501 214.351 16.590 L 214.249 21.679 211.399 21.829 C 209.832 21.911,207.450 22.048,206.107 22.134 L 203.664 22.290 203.664 39.695 L 203.664 57.099 208.799 57.308 C 211.670 57.425,214.025 57.607,214.139 57.722 C 214.262 57.845,214.366 59.916,214.398 62.907 L 214.453 67.888 219.583 68.092 C 222.552 68.209,224.801 68.384,224.923 68.505 C 225.052 68.635,225.153 70.621,225.187 73.696 L 225.242 78.677 230.534 78.910 C 237.432 79.213,268.624 79.213,275.522 78.910 L 280.814 78.677 280.869 73.743 C 280.936 67.633,280.277 68.282,286.616 68.096 C 289.247 68.019,291.470 67.889,291.555 67.807 C 291.641 67.725,291.686 64.733,291.657 61.157 L 291.603 54.656 274.606 54.656 L 257.608 54.656 257.506 59.949 L 257.405 65.242 253.435 65.299 C 251.252 65.331,249.261 65.307,249.011 65.246 C 248.557 65.134,248.556 65.127,248.502 59.895 L 248.448 54.656 243.155 54.555 L 237.863 54.453 237.810 39.796 C 237.761 26.198,237.782 25.122,238.103 24.885 C 238.358 24.698,239.780 24.631,243.499 24.631 L 248.550 24.631 248.550 19.447 C 248.550 14.531,248.570 14.253,248.943 14.053 C 249.363 13.828,256.625 13.751,257.184 13.966 C 257.467 14.074,257.506 14.742,257.506 19.360 L 257.506 24.631 274.608 24.631 L 291.710 24.631 291.657 18.066 L 291.603 11.501 289.364 11.358 C 288.132 11.278,285.842 11.154,284.275 11.081 C 280.584 10.910,280.916 11.443,280.916 5.675 L 280.916 0.814 253.032 0.814 L 225.147 0.814 225.093 5.852 M150.276 91.755 L 150.331 95.980 156.947 96.081 C 160.585 96.137,163.677 96.257,163.817 96.348 C 164.205 96.599,164.187 128.709,163.799 129.031 C 163.616 129.183,161.384 129.274,156.929 129.310 L 150.331 129.364 150.331 133.639 L 150.331 137.913 171.688 137.965 C 191.343 138.013,193.074 137.990,193.418 137.679 C 194.005 137.148,193.987 129.788,193.398 129.473 C 193.150 129.340,190.621 129.262,186.585 129.262 C 180.448 129.262,180.158 129.245,179.956 128.868 C 179.505 128.025,179.682 96.537,180.139 96.292 C 180.387 96.160,182.911 96.081,186.934 96.081 C 192.125 96.081,193.378 96.028,193.567 95.801 C 193.729 95.606,193.783 94.313,193.745 91.577 L 193.690 87.634 171.955 87.582 L 150.221 87.530 150.276 91.755 M341.104 87.667 C 340.933 87.837,340.920 137.250,341.090 137.693 C 341.252 138.115,355.978 138.189,356.397 137.771 C 356.577 137.591,356.641 135.796,356.641 130.959 C 356.641 123.221,356.363 123.894,359.520 124.002 C 362.032 124.088,361.927 123.929,361.931 127.644 C 361.935 131.341,361.687 131.094,365.394 131.094 C 369.098 131.094,368.855 130.857,368.855 134.477 C 368.855 136.069,368.911 137.516,368.979 137.693 C 369.141 138.116,390.785 138.192,391.206 137.771 C 391.618 137.359,391.546 129.546,391.128 129.386 C 390.951 129.318,389.504 129.262,387.912 129.262 C 384.283 129.262,384.529 129.522,384.529 125.681 C 384.529 122.007,384.883 122.341,380.991 122.341 C 377.448 122.341,377.608 122.466,377.608 119.695 C 377.608 116.803,376.964 117.048,384.545 117.048 C 389.741 117.048,391.038 116.994,391.224 116.771 C 391.390 116.570,391.439 113.456,391.401 105.524 L 391.349 94.555 388.163 94.499 C 384.268 94.430,384.555 94.721,384.484 90.775 L 384.427 87.634 362.834 87.582 C 350.957 87.553,341.179 87.591,341.104 87.667 M216.387 91.705 L 216.387 95.674 223.211 95.674 L 230.036 95.674 230.234 96.196 C 230.358 96.523,230.433 104.336,230.433 117.062 L 230.433 137.405 237.761 137.405 L 245.089 137.405 245.089 117.062 C 245.089 104.410,245.164 96.522,245.287 96.199 L 245.484 95.680 252.259 95.626 L 259.033 95.573 259.088 91.654 L 259.144 87.735 237.765 87.735 L 216.387 87.735 216.387 91.705 M375.382 96.292 C 375.778 96.504,376.021 107.013,375.653 107.973 C 375.547 108.247,375.069 108.295,372.436 108.295 C 368.590 108.295,368.856 108.040,368.852 111.746 C 368.850 113.375,368.762 114.845,368.656 115.013 C 368.352 115.493,357.444 115.583,356.970 115.109 C 356.445 114.584,356.472 96.608,356.997 96.301 C 357.489 96.015,374.848 96.006,375.382 96.292 M50.687 144.953 C 50.071 145.177,49.064 145.537,48.448 145.751 C 47.832 145.966,46.824 146.335,46.209 146.571 C 44.018 147.410,41.812 148.229,40.407 148.723 C 39.623 148.999,38.799 149.305,38.575 149.404 C 38.351 149.502,37.618 149.786,36.947 150.033 C 36.275 150.281,35.359 150.620,34.911 150.787 C 34.463 150.953,33.776 151.206,33.384 151.349 C 32.992 151.491,32.305 151.750,31.858 151.923 C 31.410 152.096,30.265 152.529,29.313 152.884 C 25.892 154.161,25.370 154.413,24.622 155.142 C 22.962 156.762,23.003 156.326,23.003 172.387 C 23.003 188.437,22.898 187.377,24.646 189.124 C 25.358 189.836,47.244 200.982,50.763 202.425 C 52.960 203.326,52.646 203.445,67.225 196.144 C 81.613 188.938,80.890 189.374,81.902 187.297 C 82.427 186.218,82.414 158.860,81.887 157.188 C 81.305 155.342,80.108 154.390,76.947 153.255 C 76.107 152.954,74.916 152.509,74.300 152.267 C 73.684 152.025,72.952 151.749,72.672 151.654 C 72.392 151.559,71.659 151.284,71.043 151.042 C 70.427 150.801,69.631 150.516,69.272 150.410 C 68.914 150.303,68.365 150.082,68.051 149.918 C 67.737 149.755,67.365 149.620,67.224 149.620 C 67.082 149.619,66.807 149.528,66.613 149.418 C 66.419 149.307,65.618 148.993,64.835 148.719 C 63.419 148.225,61.176 147.393,59.033 146.569 C 53.314 144.368,52.644 144.238,50.687 144.953 M147.590 146.921 C 145.011 147.001,145.147 146.827,145.143 150.051 C 145.139 153.301,145.310 153.162,140.967 153.452 L 138.931 153.588 138.830 168.957 C 138.774 177.410,138.774 184.784,138.830 185.344 L 138.931 186.361 140.248 186.423 C 140.972 186.457,141.774 186.432,142.029 186.368 L 142.494 186.252 142.494 170.807 C 142.494 156.911,142.526 155.349,142.816 155.238 C 142.993 155.170,144.303 155.115,145.727 155.115 C 148.983 155.115,148.804 155.305,148.804 151.839 C 148.804 149.485,148.854 149.032,149.126 148.928 C 149.846 148.651,181.721 148.792,181.954 149.072 C 182.085 149.230,182.200 150.510,182.233 152.176 L 182.290 155.013 185.170 155.069 C 187.265 155.110,188.112 155.199,188.276 155.397 C 188.437 155.591,188.486 160.305,188.449 172.033 L 188.397 188.397 185.547 188.499 C 181.916 188.628,182.188 188.367,182.188 191.727 C 182.188 193.631,182.110 194.602,181.944 194.768 C 181.590 195.122,149.402 195.122,149.048 194.768 C 148.883 194.603,148.804 193.654,148.804 191.831 C 148.804 188.387,148.868 188.465,146.085 188.543 L 144.020 188.601 143.960 189.734 C 143.905 190.775,143.942 190.887,144.413 191.101 C 144.714 191.238,144.977 191.569,145.050 191.901 C 145.280 192.950,145.309 192.977,146.228 192.977 C 147.359 192.977,147.545 193.209,147.622 194.714 C 147.683 195.900,147.699 195.930,148.295 195.985 C 149.473 196.092,149.838 196.250,150.065 196.749 C 150.276 197.211,150.405 197.252,151.664 197.252 C 153.723 197.252,153.875 197.442,153.941 200.102 L 153.995 202.239 170.483 202.239 L 186.972 202.239 187.074 199.355 C 187.197 195.862,186.906 196.154,190.398 196.031 L 193.282 195.929 193.270 195.369 C 193.227 193.508,193.148 192.974,192.875 192.701 C 192.313 192.138,192.426 149.653,192.992 148.933 L 193.414 148.397 209.774 148.397 C 220.461 148.397,226.177 148.468,226.260 148.601 C 226.522 149.024,226.768 148.778,226.768 148.092 L 226.768 147.379 208.249 147.379 L 189.729 147.379 189.674 150.976 C 189.635 153.511,189.548 154.596,189.379 154.652 C 189.242 154.697,189.111 154.489,189.073 154.167 C 189.020 153.710,188.878 153.576,188.327 153.464 C 187.304 153.257,187.184 153.020,187.074 150.983 L 186.972 149.109 185.098 149.008 C 183.062 148.897,182.825 148.777,182.617 147.754 L 182.478 147.074 180.145 146.948 C 177.782 146.820,151.510 146.798,147.590 146.921 M324.885 146.961 L 322.748 147.074 322.646 165.758 C 322.557 182.070,322.506 184.467,322.239 184.635 C 321.820 184.900,314.784 184.890,314.287 184.624 C 313.946 184.442,313.893 184.186,313.893 182.731 C 313.893 180.624,313.831 180.561,311.766 180.557 C 309.864 180.553,309.627 180.447,309.437 179.517 L 309.297 178.830 306.455 178.666 C 302.528 178.441,291.536 178.649,291.166 178.956 C 290.938 179.145,290.892 179.907,290.937 182.777 L 290.992 186.361 292.723 186.361 L 294.453 186.361 294.555 183.511 L 294.656 180.662 301.553 180.608 C 306.394 180.570,308.532 180.622,308.724 180.781 C 308.923 180.947,309.012 181.783,309.053 183.888 L 309.109 186.768 317.432 186.822 C 323.406 186.860,325.833 186.810,326.032 186.644 C 326.264 186.452,326.310 183.276,326.310 167.732 C 326.310 150.885,326.342 149.039,326.632 148.928 C 327.115 148.742,340.011 148.785,340.306 148.973 C 340.509 149.101,340.551 153.195,340.510 168.766 L 340.458 188.397 337.549 188.499 C 334.038 188.622,334.257 188.399,334.252 191.868 C 334.250 193.659,334.170 194.604,334.005 194.768 C 333.682 195.092,301.861 195.124,301.259 194.802 C 300.899 194.609,300.865 194.351,300.865 191.756 C 300.865 188.382,300.958 188.499,298.273 188.499 C 296.193 188.499,295.980 188.624,295.980 189.849 C 295.980 190.574,296.076 190.779,296.590 191.145 C 296.957 191.406,297.201 191.762,297.201 192.034 C 297.201 192.687,297.582 192.977,298.438 192.977 C 299.412 192.977,299.721 193.375,299.847 194.790 L 299.949 195.929 300.848 196.049 C 301.488 196.134,301.871 196.325,302.179 196.710 C 302.567 197.197,302.745 197.252,303.938 197.252 C 305.933 197.252,306.035 197.381,306.158 200.034 L 306.260 202.239 322.748 202.239 L 339.237 202.239 339.291 199.389 C 339.359 195.841,339.165 196.031,342.724 196.031 C 345.749 196.031,345.752 196.029,345.401 194.671 C 345.078 193.425,345.023 193.391,343.289 193.387 C 340.819 193.382,341.085 196.085,340.967 169.801 L 340.865 147.074 338.524 146.948 C 335.711 146.797,327.857 146.804,324.885 146.961 M227.017 151.901 L 227.074 154.606 229.711 154.663 C 231.801 154.708,232.424 154.789,232.714 155.051 C 233.059 155.363,233.079 155.336,233.079 154.547 L 233.079 153.713 232.214 153.650 L 231.349 153.588 231.247 151.450 L 231.145 149.313 229.053 149.255 L 226.960 149.197 227.017 151.901 M54.230 152.386 C 54.555 152.543,54.921 152.672,55.044 152.673 C 55.167 152.674,55.524 152.808,55.837 152.972 C 56.151 153.135,56.700 153.356,57.059 153.463 C 57.417 153.570,58.214 153.855,58.830 154.096 C 59.445 154.337,60.178 154.612,60.458 154.707 C 60.738 154.803,61.471 155.077,62.087 155.318 C 62.702 155.559,63.435 155.834,63.715 155.929 C 63.995 156.024,64.682 156.280,65.242 156.499 C 65.802 156.717,66.947 157.146,67.786 157.453 C 68.626 157.759,69.602 158.137,69.954 158.292 C 70.307 158.448,70.737 158.575,70.909 158.575 C 71.082 158.575,71.273 158.656,71.334 158.755 C 71.395 158.854,72.110 159.146,72.924 159.404 C 74.925 160.039,75.268 160.747,73.746 161.103 C 73.435 161.176,72.884 161.372,72.522 161.539 C 71.357 162.077,69.930 162.663,66.463 164.026 C 64.958 164.619,63.819 165.102,63.463 165.300 C 63.269 165.408,63.004 165.496,62.875 165.496 C 62.649 165.496,61.350 166.057,60.223 166.641 C 59.926 166.795,59.544 166.921,59.374 166.921 C 59.205 166.921,58.807 167.047,58.490 167.202 C 57.704 167.584,56.668 168.023,55.573 168.438 C 55.069 168.629,54.397 168.916,54.080 169.075 C 53.329 169.452,51.902 169.444,51.111 169.059 C 50.766 168.891,50.201 168.616,49.856 168.448 C 49.511 168.280,49.107 168.142,48.957 168.142 C 48.807 168.142,48.402 168.005,48.057 167.837 C 47.712 167.669,47.148 167.394,46.803 167.226 C 46.458 167.059,46.082 166.921,45.968 166.921 C 45.855 166.921,45.473 166.790,45.120 166.630 C 43.275 165.794,42.546 165.496,42.349 165.496 C 42.230 165.496,41.973 165.408,41.778 165.300 C 41.431 165.107,40.489 164.706,38.677 163.980 C 37.414 163.474,36.441 163.055,35.760 162.723 C 35.443 162.569,35.045 162.443,34.875 162.443 C 34.705 162.443,34.323 162.319,34.026 162.168 C 33.307 161.803,32.209 161.321,31.414 161.021 C 30.477 160.667,30.258 159.798,31.106 159.795 C 31.295 159.794,31.713 159.657,32.033 159.490 C 32.354 159.323,32.772 159.186,32.961 159.186 C 33.151 159.186,33.484 159.051,33.702 158.887 C 33.919 158.723,34.220 158.585,34.371 158.582 C 34.522 158.578,34.935 158.448,35.287 158.292 C 35.640 158.137,36.616 157.759,37.455 157.453 C 38.295 157.146,39.440 156.717,40.000 156.499 C 40.560 156.280,41.247 156.024,41.527 155.929 C 41.807 155.834,42.539 155.559,43.155 155.318 C 43.771 155.077,44.504 154.803,44.784 154.707 C 45.064 154.612,45.796 154.337,46.412 154.096 C 47.028 153.855,47.852 153.564,48.244 153.451 C 48.636 153.337,49.044 153.162,49.150 153.060 C 49.256 152.958,49.468 152.875,49.619 152.875 C 49.771 152.875,50.279 152.702,50.749 152.490 C 52.250 151.812,52.997 151.790,54.230 152.386 M233.374 155.781 C 233.316 155.931,233.295 157.148,233.327 158.485 L 233.384 160.916 236.132 161.018 C 237.644 161.074,238.995 161.194,239.135 161.284 C 239.321 161.405,239.389 161.259,239.389 160.736 C 239.389 160.043,239.365 160.022,238.524 159.961 L 237.659 159.898 237.557 157.761 L 237.455 155.623 235.467 155.565 C 233.948 155.521,233.454 155.571,233.374 155.781 M156.955 157.338 C 156.623 157.957,156.664 186.075,156.997 186.529 C 157.231 186.847,157.932 186.871,165.598 186.822 L 173.944 186.768 173.944 171.908 L 173.944 157.048 165.555 156.995 C 157.425 156.944,157.160 156.954,156.955 157.338 M208.136 157.604 C 208.081 157.746,208.061 164.275,208.090 172.112 L 208.142 186.361 213.028 186.361 L 217.913 186.361 217.970 183.583 C 218.041 180.100,217.852 180.285,221.455 180.153 L 224.224 180.051 224.224 171.908 L 224.224 163.766 221.557 163.709 C 217.989 163.634,218.049 163.694,217.971 160.095 L 217.913 157.455 213.074 157.401 C 209.313 157.358,208.212 157.404,208.136 157.604 M220.179 164.661 C 220.268 165.107,220.440 165.279,220.886 165.368 L 221.476 165.486 221.476 172.095 C 221.476 179.836,221.877 179.011,218.066 179.103 L 215.165 179.173 215.165 181.989 C 215.165 185.350,215.069 185.547,213.496 185.395 C 212.954 185.343,212.443 185.234,212.362 185.153 C 212.097 184.888,212.071 164.671,212.335 164.353 C 212.519 164.132,213.371 164.071,216.315 164.071 L 220.061 164.071 220.179 164.661 M169.929 164.592 L 170.382 164.909 170.382 174.627 C 170.382 181.915,170.321 184.407,170.137 184.590 C 169.965 184.762,168.803 184.835,166.209 184.835 C 163.614 184.835,162.452 184.762,162.280 184.590 C 161.863 184.173,161.935 165.015,162.356 164.595 C 162.825 164.125,169.260 164.123,169.929 164.592 M74.870 168.794 C 75.166 169.089,75.224 183.096,74.933 183.861 C 74.793 184.228,73.315 185.063,68.571 187.454 C 61.940 190.797,61.993 190.771,61.359 191.092 C 60.896 191.328,59.528 192.010,57.843 192.845 C 57.245 193.142,56.673 193.333,56.571 193.271 C 56.176 193.026,56.344 175.878,56.743 175.757 C 56.939 175.697,57.374 175.520,57.710 175.363 C 58.046 175.206,58.824 174.888,59.440 174.658 C 60.056 174.427,60.743 174.154,60.967 174.051 C 61.191 173.948,61.878 173.666,62.494 173.425 C 63.109 173.184,63.796 172.909,64.020 172.814 C 64.244 172.720,64.931 172.445,65.547 172.202 C 66.163 171.960,66.941 171.642,67.277 171.494 C 67.613 171.347,68.392 171.032,69.008 170.793 C 69.623 170.555,70.310 170.281,70.534 170.185 C 70.758 170.089,71.491 169.797,72.163 169.536 C 72.835 169.276,73.613 168.948,73.893 168.807 C 74.522 168.492,74.568 168.491,74.870 168.794 M239.003 182.468 C 238.792 182.723,238.195 182.799,236.061 182.844 L 233.384 182.901 233.327 185.541 C 233.249 189.139,233.309 189.079,229.741 189.155 L 227.074 189.211 227.016 191.851 C 226.965 194.225,226.915 194.538,226.523 194.956 L 226.087 195.420 210.448 195.420 L 194.809 195.420 194.809 196.234 L 194.809 197.048 196.619 197.048 C 198.785 197.048,198.677 196.898,198.677 199.916 L 198.677 202.140 214.911 202.088 L 231.145 202.036 231.201 198.937 L 231.257 195.838 234.356 195.781 L 237.455 195.725 237.512 192.680 C 237.580 189.034,237.286 189.320,240.967 189.316 C 244.040 189.313,244.171 189.266,243.679 188.343 C 243.575 188.149,243.441 187.830,243.380 187.634 C 243.289 187.340,243.025 187.277,241.870 187.277 C 239.818 187.277,239.597 187.029,239.579 184.709 C 239.562 182.577,239.409 181.980,239.003 182.468 "
            stroke="none" fill="#ff4844" fill-rule="evenodd"></path>
        <path id="path4"
            d="M225.072 0.543 C 224.997 0.617,224.936 2.896,224.936 5.605 L 224.936 10.532 219.695 10.682 C 216.135 10.784,214.405 10.907,214.303 11.065 C 214.221 11.193,214.152 13.552,214.151 16.307 L 214.148 21.317 208.804 21.498 L 203.461 21.679 203.409 39.469 C 203.371 52.311,203.420 57.334,203.583 57.532 C 203.760 57.744,204.947 57.817,208.928 57.859 L 214.046 57.913 214.100 62.986 C 214.136 66.271,214.233 68.153,214.377 68.326 C 214.547 68.531,215.791 68.606,219.717 68.648 L 224.835 68.702 224.889 73.775 C 224.925 77.100,225.021 78.941,225.169 79.118 C 225.515 79.536,280.457 79.519,281.030 79.101 C 281.398 78.832,281.432 78.461,281.527 73.757 L 281.628 68.702 286.683 68.601 C 291.387 68.506,291.758 68.471,292.027 68.104 C 292.544 67.396,292.444 54.842,291.920 54.561 C 291.652 54.418,285.992 54.366,274.464 54.401 L 257.405 54.453 257.350 59.796 L 257.296 65.140 253.228 65.140 L 249.160 65.140 249.160 59.869 C 249.160 55.251,249.120 54.583,248.838 54.475 C 248.661 54.407,246.233 54.351,243.443 54.351 L 238.369 54.351 238.421 39.644 L 238.473 24.936 243.766 24.835 L 249.059 24.733 249.113 19.491 L 249.167 14.249 253.235 14.249 L 257.303 14.249 257.303 19.543 L 257.303 24.837 274.758 24.785 L 292.214 24.733 292.267 18.136 C 292.314 12.388,292.280 11.494,292.003 11.188 C 291.725 10.881,291.040 10.817,286.606 10.687 L 281.527 10.537 281.527 5.671 L 281.527 0.804 281.005 0.606 C 280.414 0.381,225.296 0.319,225.072 0.543 M1.110 0.866 C 1.056 1.008,1.036 4.008,1.066 7.534 L 1.120 13.944 11.807 14.050 C 17.684 14.109,22.517 14.178,22.545 14.203 C 22.573 14.229,22.595 28.659,22.595 46.272 C 22.595 73.606,22.638 78.352,22.884 78.689 C 23.264 79.208,56.243 79.321,56.864 78.805 C 57.175 78.547,57.201 76.034,57.201 46.387 C 57.201 28.711,57.224 14.229,57.252 14.205 C 57.280 14.180,62.112 14.112,67.990 14.052 L 78.677 13.944 78.677 7.328 L 78.677 0.712 39.943 0.661 C 8.913 0.620,1.189 0.661,1.110 0.866 M78.372 7.226 L 78.372 13.639 67.976 13.639 C 61.200 13.639,57.444 13.712,57.188 13.849 C 56.801 14.056,56.794 14.632,56.794 46.185 L 56.794 78.311 48.440 78.459 C 43.846 78.540,36.242 78.540,31.544 78.459 L 23.003 78.311 23.003 46.098 C 23.003 16.913,22.972 13.874,22.681 13.762 C 22.503 13.694,17.694 13.639,11.994 13.639 L 1.628 13.639 1.628 7.226 L 1.628 0.814 40.000 0.814 L 78.372 0.814 78.372 7.226 M280.916 5.675 C 280.916 11.443,280.584 10.910,284.275 11.081 C 285.842 11.154,288.132 11.278,289.364 11.358 L 291.603 11.501 291.657 18.066 L 291.710 24.631 274.608 24.631 L 257.506 24.631 257.506 19.360 C 257.506 14.742,257.467 14.074,257.184 13.966 C 256.625 13.751,249.363 13.828,248.943 14.053 C 248.570 14.253,248.550 14.531,248.550 19.447 L 248.550 24.631 243.499 24.631 C 239.780 24.631,238.358 24.698,238.103 24.885 C 237.782 25.122,237.761 26.198,237.810 39.796 L 237.863 54.453 243.155 54.555 L 248.448 54.656 248.502 59.895 C 248.556 65.127,248.557 65.134,249.011 65.246 C 249.261 65.307,251.252 65.331,253.435 65.299 L 257.405 65.242 257.506 59.949 L 257.608 54.656 274.606 54.656 L 291.603 54.656 291.657 61.157 C 291.686 64.733,291.641 67.725,291.555 67.807 C 291.470 67.889,289.247 68.019,286.616 68.096 C 280.277 68.282,280.936 67.633,280.869 73.743 L 280.814 78.677 275.522 78.910 C 268.624 79.213,237.432 79.213,230.534 78.910 L 225.242 78.677 225.187 73.696 C 225.153 70.621,225.052 68.635,224.923 68.505 C 224.801 68.384,222.552 68.209,219.583 68.092 L 214.453 67.888 214.398 62.907 C 214.366 59.916,214.262 57.845,214.139 57.722 C 214.025 57.607,211.670 57.425,208.799 57.308 L 203.664 57.099 203.664 39.695 L 203.664 22.290 206.107 22.134 C 207.450 22.048,209.832 21.911,211.399 21.829 L 214.249 21.679 214.351 16.590 L 214.453 11.501 216.896 11.351 C 218.239 11.268,220.621 11.130,222.188 11.045 L 225.038 10.891 225.093 5.852 L 225.147 0.814 253.032 0.814 L 280.916 0.814 280.916 5.675 M149.955 87.293 C 149.502 87.794,149.443 95.886,149.890 96.257 C 150.074 96.410,152.306 96.500,156.760 96.537 L 163.359 96.590 163.411 112.621 L 163.463 128.651 156.993 128.651 C 151.467 128.651,150.457 128.698,150.071 128.968 C 149.410 129.431,149.356 137.861,150.012 138.212 C 150.276 138.353,157.536 138.422,172.104 138.422 L 193.801 138.422 194.000 137.900 C 194.331 137.030,194.255 129.620,193.910 129.148 C 193.637 128.775,193.255 128.748,186.938 128.651 L 180.254 128.550 180.254 112.570 L 180.254 96.590 187.029 96.537 L 193.804 96.483 194.001 95.964 C 194.259 95.286,194.258 88.121,194.000 87.443 L 193.801 86.921 172.047 86.921 C 151.230 86.921,150.278 86.937,149.955 87.293 M340.693 87.293 C 340.189 87.850,340.172 137.599,340.676 138.103 C 341.119 138.546,356.451 138.591,356.817 138.150 C 356.970 137.967,357.060 135.709,357.096 131.178 L 357.150 124.478 359.186 124.478 L 361.221 124.478 361.273 127.634 C 361.341 131.720,361.118 131.501,365.213 131.501 L 368.244 131.501 368.244 134.642 C 368.244 137.226,368.301 137.839,368.564 138.103 C 368.891 138.430,390.708 138.616,391.536 138.299 C 391.816 138.191,391.858 137.585,391.858 133.612 L 391.858 129.048 391.335 128.850 C 391.048 128.741,389.491 128.651,387.875 128.651 L 384.936 128.651 384.936 125.511 C 384.936 121.462,385.204 121.730,381.156 121.730 L 378.015 121.730 378.015 119.596 L 378.015 117.461 384.885 117.407 L 391.756 117.354 391.808 105.875 C 391.846 97.692,391.796 94.319,391.635 94.125 C 391.468 93.923,390.579 93.838,388.224 93.796 L 385.038 93.740 384.936 90.585 C 384.880 88.850,384.760 87.316,384.670 87.176 C 384.362 86.700,341.126 86.816,340.693 87.293 M216.115 87.464 C 215.946 87.634,215.934 95.523,216.103 95.963 C 216.212 96.247,216.975 96.285,222.566 96.288 C 226.053 96.289,229.112 96.346,229.364 96.413 L 229.822 96.536 229.822 116.984 C 229.822 130.689,229.891 137.561,230.033 137.825 C 230.351 138.420,245.029 138.440,245.566 137.847 C 245.875 137.505,245.903 135.766,245.903 117.003 C 245.903 98.524,245.935 96.520,246.225 96.409 C 246.402 96.341,249.420 96.285,252.931 96.285 C 259.298 96.285,259.316 96.284,259.632 95.833 C 260.042 95.248,260.106 87.974,259.705 87.573 C 259.438 87.306,216.381 87.199,216.115 87.464 M193.745 91.577 C 193.783 94.313,193.729 95.606,193.567 95.801 C 193.378 96.028,192.125 96.081,186.934 96.081 C 182.911 96.081,180.387 96.160,180.139 96.292 C 179.682 96.537,179.505 128.025,179.956 128.868 C 180.158 129.245,180.448 129.262,186.585 129.262 C 190.621 129.262,193.150 129.340,193.398 129.473 C 193.987 129.788,194.005 137.148,193.418 137.679 C 193.074 137.990,191.343 138.013,171.688 137.965 L 150.331 137.913 150.331 133.639 L 150.331 129.364 156.929 129.310 C 161.384 129.274,163.616 129.183,163.799 129.031 C 164.187 128.709,164.205 96.599,163.817 96.348 C 163.677 96.257,160.585 96.137,156.947 96.081 L 150.331 95.980 150.276 91.755 L 150.221 87.530 171.955 87.582 L 193.690 87.634 193.745 91.577 M384.484 90.775 C 384.555 94.721,384.268 94.430,388.163 94.499 L 391.349 94.555 391.401 105.524 C 391.439 113.456,391.390 116.570,391.224 116.771 C 391.038 116.994,389.741 117.048,384.545 117.048 C 376.964 117.048,377.608 116.803,377.608 119.695 C 377.608 122.466,377.448 122.341,380.991 122.341 C 384.883 122.341,384.529 122.007,384.529 125.681 C 384.529 129.522,384.283 129.262,387.912 129.262 C 389.504 129.262,390.951 129.318,391.128 129.386 C 391.546 129.546,391.618 137.359,391.206 137.771 C 390.785 138.192,369.141 138.116,368.979 137.693 C 368.911 137.516,368.855 136.069,368.855 134.477 C 368.855 130.857,369.098 131.094,365.394 131.094 C 361.687 131.094,361.935 131.341,361.931 127.644 C 361.927 123.929,362.032 124.088,359.520 124.002 C 356.363 123.894,356.641 123.221,356.641 130.959 C 356.641 135.796,356.577 137.591,356.397 137.771 C 355.978 138.189,341.252 138.115,341.090 137.693 C 340.920 137.250,340.933 87.837,341.104 87.667 C 341.179 87.591,350.957 87.553,362.834 87.582 L 384.427 87.634 384.484 90.775 M259.088 91.654 L 259.033 95.573 252.259 95.626 L 245.484 95.680 245.287 96.199 C 245.164 96.522,245.089 104.410,245.089 117.062 L 245.089 137.405 237.761 137.405 L 230.433 137.405 230.433 117.062 C 230.433 104.336,230.358 96.523,230.234 96.196 L 230.036 95.674 223.211 95.674 L 216.387 95.674 216.387 91.705 L 216.387 87.735 237.765 87.735 L 259.144 87.735 259.088 91.654 M356.997 96.301 C 356.472 96.608,356.445 114.584,356.970 115.109 C 357.444 115.583,368.352 115.493,368.656 115.013 C 368.762 114.845,368.850 113.375,368.852 111.746 C 368.856 108.040,368.590 108.295,372.436 108.295 C 375.069 108.295,375.547 108.247,375.653 107.973 C 376.021 107.013,375.778 96.504,375.382 96.292 C 374.848 96.006,357.489 96.015,356.997 96.301 M375.165 102.087 L 375.165 107.684 372.241 107.684 C 368.133 107.684,368.272 107.549,368.199 111.614 L 368.142 114.707 362.646 114.707 L 357.150 114.707 357.097 105.852 C 357.068 100.982,357.088 96.883,357.142 96.743 C 357.218 96.545,359.220 96.489,366.202 96.489 L 375.165 96.489 375.165 102.087 M52.072 144.132 C 51.882 144.243,51.332 144.415,50.850 144.514 C 50.369 144.613,49.471 144.891,48.855 145.131 C 46.836 145.917,46.113 146.183,45.700 146.291 C 45.476 146.350,45.018 146.517,44.682 146.662 C 43.062 147.364,42.596 147.539,41.986 147.673 C 41.624 147.753,41.276 147.902,41.212 148.005 C 41.148 148.109,40.941 148.196,40.751 148.200 C 40.562 148.204,40.041 148.384,39.593 148.601 C 39.145 148.817,38.675 148.997,38.547 149.001 C 38.420 149.005,38.054 149.144,37.733 149.312 C 37.413 149.479,37.008 149.616,36.835 149.617 C 36.661 149.618,36.432 149.701,36.326 149.803 C 36.219 149.905,35.812 150.080,35.420 150.194 C 35.028 150.307,34.204 150.595,33.588 150.833 C 31.273 151.729,30.822 151.890,30.153 152.059 C 29.776 152.155,29.368 152.332,29.247 152.452 C 29.127 152.573,28.886 152.672,28.712 152.673 C 28.539 152.674,28.151 152.802,27.851 152.959 C 27.551 153.116,27.024 153.306,26.680 153.381 C 26.337 153.457,26.056 153.593,26.056 153.684 C 26.056 153.775,25.817 153.909,25.524 153.982 C 24.834 154.156,23.753 155.311,23.164 156.507 L 22.697 157.455 22.697 172.316 L 22.697 187.176 23.386 188.193 C 23.765 188.753,24.242 189.328,24.445 189.470 C 24.648 189.613,24.944 189.859,25.103 190.017 C 25.493 190.407,29.247 192.366,29.604 192.366 C 29.761 192.366,29.920 192.441,29.958 192.531 C 29.995 192.622,31.308 193.315,32.875 194.071 C 34.443 194.827,35.863 195.527,36.031 195.627 C 36.883 196.133,39.654 197.455,39.863 197.455 C 39.994 197.455,40.102 197.530,40.102 197.622 C 40.102 197.713,40.628 198.001,41.272 198.263 C 41.916 198.524,42.580 198.839,42.748 198.963 C 42.916 199.088,43.420 199.359,43.868 199.566 C 44.316 199.773,44.819 200.019,44.987 200.113 C 45.870 200.603,49.703 202.436,50.585 202.789 C 51.694 203.233,54.064 203.235,54.860 202.793 C 55.084 202.669,56.321 202.052,57.608 201.423 C 58.896 200.794,60.087 200.200,60.254 200.103 C 60.422 200.006,61.001 199.714,61.539 199.455 C 64.092 198.223,64.448 198.046,64.733 197.868 C 64.901 197.762,65.542 197.435,66.158 197.140 C 67.936 196.290,68.882 195.821,69.211 195.628 C 69.379 195.529,69.929 195.254,70.433 195.017 C 70.936 194.780,71.486 194.507,71.654 194.412 C 72.071 194.174,73.799 193.306,74.911 192.775 C 75.415 192.534,75.964 192.256,76.132 192.157 C 76.300 192.057,76.941 191.737,77.557 191.446 C 79.765 190.400,80.063 190.218,80.891 189.413 C 81.353 188.965,81.939 188.171,82.193 187.650 L 82.657 186.703 82.600 171.978 L 82.544 157.252 82.071 156.398 C 81.530 155.423,79.957 153.893,79.496 153.893 C 79.325 153.893,79.186 153.809,79.186 153.706 C 79.186 153.603,78.888 153.454,78.524 153.374 C 78.160 153.295,77.682 153.105,77.461 152.951 C 77.240 152.797,76.874 152.669,76.647 152.665 C 76.420 152.662,76.056 152.524,75.839 152.360 C 75.622 152.196,75.250 152.061,75.013 152.061 C 74.776 152.061,74.404 151.927,74.186 151.762 C 73.969 151.598,73.603 151.460,73.372 151.457 C 73.142 151.453,72.775 151.316,72.558 151.152 C 72.341 150.987,72.006 150.850,71.814 150.846 C 71.621 150.843,71.163 150.709,70.796 150.549 C 70.428 150.388,69.578 150.057,68.906 149.812 C 68.234 149.567,67.525 149.286,67.331 149.187 C 67.137 149.088,66.862 149.005,66.720 149.001 C 66.579 148.997,66.097 148.817,65.649 148.601 C 65.201 148.384,64.697 148.201,64.529 148.194 C 64.361 148.186,64.046 148.046,63.829 147.882 C 63.611 147.717,63.278 147.583,63.089 147.583 C 62.899 147.583,62.481 147.446,62.161 147.279 C 61.840 147.111,61.440 146.971,61.272 146.967 C 61.104 146.963,60.789 146.825,60.572 146.660 C 60.354 146.496,60.014 146.361,59.815 146.361 C 59.617 146.361,59.153 146.233,58.786 146.077 C 58.418 145.920,57.705 145.638,57.201 145.450 C 56.697 145.261,56.026 144.977,55.709 144.818 C 55.392 144.659,54.908 144.529,54.633 144.529 C 54.359 144.529,53.806 144.392,53.404 144.224 C 52.554 143.869,52.527 143.867,52.072 144.132 M54.803 145.029 C 56.314 145.538,57.051 145.806,59.033 146.569 C 61.176 147.393,63.419 148.225,64.835 148.719 C 65.618 148.993,66.419 149.307,66.613 149.418 C 66.807 149.528,67.082 149.619,67.224 149.620 C 67.365 149.620,67.737 149.755,68.051 149.918 C 68.365 150.082,68.914 150.303,69.272 150.410 C 69.631 150.516,70.427 150.801,71.043 151.042 C 71.659 151.284,72.392 151.559,72.672 151.654 C 72.952 151.749,73.684 152.025,74.300 152.267 C 74.916 152.509,76.107 152.954,76.947 153.255 C 80.108 154.390,81.305 155.342,81.887 157.188 C 82.414 158.860,82.427 186.218,81.902 187.297 C 80.890 189.374,81.613 188.938,67.225 196.144 C 52.646 203.445,52.960 203.326,50.763 202.425 C 47.244 200.982,25.358 189.836,24.646 189.124 C 22.898 187.377,23.003 188.437,23.003 172.387 C 23.003 156.326,22.962 156.762,24.622 155.142 C 25.370 154.413,25.892 154.161,29.313 152.884 C 30.265 152.529,31.410 152.096,31.858 151.923 C 32.305 151.750,32.992 151.491,33.384 151.349 C 33.776 151.206,34.463 150.953,34.911 150.787 C 35.359 150.620,36.275 150.281,36.947 150.033 C 37.618 149.786,38.351 149.502,38.575 149.404 C 38.799 149.305,39.623 148.999,40.407 148.723 C 41.812 148.229,44.018 147.410,46.209 146.571 C 46.824 146.335,47.832 145.966,48.448 145.751 C 49.064 145.537,50.071 145.177,50.687 144.953 C 52.167 144.412,53.021 144.428,54.803 145.029 M144.972 146.832 C 144.564 147.266,144.529 147.513,144.529 149.941 L 144.529 152.579 143.211 152.829 C 142.487 152.966,141.306 153.079,140.588 153.079 C 139.645 153.079,139.161 153.178,138.848 153.435 L 138.414 153.791 138.283 169.926 L 138.152 186.060 138.628 186.567 C 139.150 187.122,141.082 187.291,142.174 186.876 L 142.695 186.678 142.747 171.151 L 142.799 155.623 145.751 155.569 C 149.426 155.501,149.211 155.722,149.211 152.022 L 149.211 149.211 165.496 149.211 L 181.781 149.211 181.781 152.122 C 181.781 155.757,181.546 155.522,185.181 155.522 L 188.092 155.522 188.092 171.908 L 188.092 188.295 185.060 188.295 C 181.460 188.295,181.781 187.954,181.781 191.772 L 181.781 194.606 165.496 194.606 L 149.211 194.606 149.208 191.908 C 149.204 187.966,149.473 188.295,146.258 188.295 C 143.209 188.295,143.308 188.240,143.308 189.934 C 143.308 190.804,143.385 190.986,143.919 191.381 C 144.264 191.636,144.529 192.020,144.529 192.265 C 144.529 192.997,145.260 193.588,146.166 193.588 L 146.972 193.588 146.972 194.662 C 146.972 196.139,147.353 196.641,148.472 196.641 C 149.196 196.641,149.411 196.740,149.783 197.243 C 150.195 197.801,150.336 197.849,151.704 197.905 L 153.181 197.964 153.282 200.170 C 153.426 203.284,151.359 202.952,170.593 202.952 C 189.944 202.952,187.647 203.417,187.729 199.482 L 187.786 196.743 190.500 196.686 C 192.560 196.643,193.332 196.551,193.706 196.306 C 194.286 195.926,194.360 195.123,193.842 194.834 C 193.506 194.646,193.486 193.339,193.486 171.872 L 193.486 149.109 209.647 149.057 C 221.417 149.019,225.883 149.068,226.085 149.235 C 226.293 149.408,226.361 150.154,226.361 152.278 C 226.361 155.656,226.088 155.392,229.720 155.522 L 232.570 155.623 232.626 158.623 C 232.693 162.159,232.307 161.810,236.234 161.884 L 238.880 161.934 238.880 171.908 L 238.880 181.883 235.827 181.985 L 232.774 182.087 232.672 185.140 L 232.570 188.193 229.517 188.295 L 226.463 188.397 226.361 191.450 L 226.260 194.504 210.605 194.556 C 193.070 194.614,194.352 194.483,194.444 196.216 L 194.504 197.354 196.063 197.413 C 198.085 197.489,198.141 197.563,198.270 200.285 L 198.372 202.443 214.962 202.443 L 231.552 202.443 231.609 199.607 C 231.681 196.035,231.461 196.258,234.982 196.189 L 237.863 196.132 237.919 193.296 C 237.991 189.721,237.800 189.924,241.094 189.921 C 244.450 189.917,244.385 189.956,244.153 188.061 L 243.969 186.565 242.137 186.463 L 240.305 186.361 240.182 174.046 C 240.043 160.184,240.007 159.725,239.048 159.632 C 238.109 159.541,237.987 159.271,237.922 157.139 L 237.863 155.216 235.831 155.115 L 233.800 155.013 233.615 154.402 C 233.514 154.066,233.400 153.677,233.363 153.537 C 233.326 153.397,233.036 153.282,232.719 153.282 C 231.795 153.282,231.654 152.970,231.654 150.923 C 231.654 148.724,231.742 148.804,229.321 148.804 C 227.483 148.804,227.256 148.688,227.143 147.684 L 227.074 147.074 224.733 146.886 C 221.745 146.646,194.859 146.651,191.756 146.892 L 189.415 147.074 189.358 149.870 C 189.302 152.654,189.299 152.667,188.799 152.793 C 187.806 153.042,187.684 152.833,187.684 150.878 C 187.684 148.531,187.587 148.435,185.133 148.355 L 183.308 148.295 183.244 147.636 C 183.114 146.288,184.230 146.361,163.858 146.361 L 145.414 146.361 144.972 146.832 M322.492 146.775 C 322.162 147.160,322.130 148.494,322.036 165.757 L 321.934 184.326 318.270 184.326 L 314.606 184.326 314.547 182.569 C 314.471 180.288,314.367 180.189,311.953 180.110 L 310.127 180.051 310.063 179.385 C 309.940 178.105,309.878 178.096,301.962 178.201 C 293.372 178.315,291.325 178.440,290.840 178.877 C 290.527 179.159,290.483 179.624,290.483 182.717 C 290.483 186.965,290.425 186.870,293.052 186.870 C 295.067 186.870,294.962 187.051,294.962 183.597 L 294.962 180.967 301.781 180.967 L 308.601 180.967 308.601 183.878 C 308.601 185.871,308.678 186.866,308.845 187.033 C 309.324 187.513,326.247 187.369,326.507 186.884 C 326.648 186.620,326.718 180.309,326.718 167.848 L 326.718 149.206 333.486 149.259 L 340.254 149.313 340.254 168.753 L 340.254 188.193 337.201 188.295 L 334.148 188.397 334.046 191.450 L 333.944 194.504 317.659 194.504 L 301.374 194.504 301.272 191.450 L 301.170 188.397 298.553 188.340 C 295.467 188.272,295.369 188.319,295.369 189.841 C 295.369 190.814,295.434 190.977,295.980 191.381 C 296.316 191.629,296.590 191.988,296.590 192.179 C 296.590 192.844,297.302 193.445,298.237 193.570 L 299.135 193.690 299.198 194.807 C 299.276 196.187,299.643 196.641,300.679 196.641 C 301.299 196.641,301.531 196.758,301.877 197.243 C 302.280 197.810,302.399 197.849,303.876 197.905 L 305.445 197.964 305.504 200.094 C 305.592 203.309,303.449 202.952,322.639 202.952 C 336.480 202.952,339.119 202.906,339.452 202.663 C 339.801 202.409,339.859 202.043,339.949 199.559 L 340.051 196.743 342.799 196.688 C 345.089 196.643,345.590 196.577,345.802 196.293 C 346.106 195.886,346.138 194.884,345.852 194.707 C 345.740 194.638,345.647 194.335,345.646 194.034 C 345.640 193.099,345.444 192.998,343.505 192.935 L 341.679 192.875 341.569 169.975 C 341.508 157.379,341.439 147.057,341.416 147.037 C 341.393 147.017,341.230 146.857,341.054 146.681 C 340.491 146.118,322.979 146.206,322.492 146.775 M180.145 146.948 L 182.478 147.074 182.617 147.754 C 182.825 148.777,183.062 148.897,185.098 149.008 L 186.972 149.109 187.074 150.983 C 187.184 153.020,187.304 153.257,188.327 153.464 C 188.878 153.576,189.020 153.710,189.073 154.167 C 189.111 154.489,189.242 154.697,189.379 154.652 C 189.548 154.596,189.635 153.511,189.674 150.976 L 189.729 147.379 208.249 147.379 L 226.768 147.379 226.768 148.092 C 226.768 148.778,226.522 149.024,226.260 148.601 C 226.177 148.468,220.461 148.397,209.774 148.397 L 193.414 148.397 192.992 148.933 C 192.426 149.653,192.313 192.138,192.875 192.701 C 193.148 192.974,193.227 193.508,193.270 195.369 L 193.282 195.929 190.398 196.031 C 186.906 196.154,187.197 195.862,187.074 199.355 L 186.972 202.239 170.483 202.239 L 153.995 202.239 153.941 200.102 C 153.875 197.442,153.723 197.252,151.664 197.252 C 150.405 197.252,150.276 197.211,150.065 196.749 C 149.838 196.250,149.473 196.092,148.295 195.985 C 147.699 195.930,147.683 195.900,147.622 194.714 C 147.545 193.209,147.359 192.977,146.228 192.977 C 145.309 192.977,145.280 192.950,145.050 191.901 C 144.977 191.569,144.714 191.238,144.413 191.101 C 143.942 190.887,143.905 190.775,143.960 189.734 L 144.020 188.601 146.085 188.543 C 148.868 188.465,148.804 188.387,148.804 191.831 C 148.804 193.654,148.883 194.603,149.048 194.768 C 149.402 195.122,181.590 195.122,181.944 194.768 C 182.110 194.602,182.188 193.631,182.188 191.727 C 182.188 188.367,181.916 188.628,185.547 188.499 L 188.397 188.397 188.449 172.033 C 188.486 160.305,188.437 155.591,188.276 155.397 C 188.112 155.199,187.265 155.110,185.170 155.069 L 182.290 155.013 182.233 152.176 C 182.200 150.510,182.085 149.230,181.954 149.072 C 181.721 148.792,149.846 148.651,149.126 148.928 C 148.854 149.032,148.804 149.485,148.804 151.839 C 148.804 155.305,148.983 155.115,145.727 155.115 C 144.303 155.115,142.993 155.170,142.816 155.238 C 142.526 155.349,142.494 156.911,142.494 170.807 L 142.494 186.252 142.029 186.368 C 141.774 186.432,140.972 186.457,140.248 186.423 L 138.931 186.361 138.830 185.344 C 138.774 184.784,138.774 177.410,138.830 168.957 L 138.931 153.588 140.967 153.452 C 145.310 153.162,145.139 153.301,145.143 150.051 C 145.147 146.827,145.011 147.001,147.590 146.921 C 151.510 146.798,177.782 146.820,180.145 146.948 M338.524 146.948 L 340.865 147.074 340.967 169.801 C 341.085 196.085,340.819 193.382,343.289 193.387 C 345.023 193.391,345.078 193.425,345.401 194.671 C 345.752 196.029,345.749 196.031,342.724 196.031 C 339.165 196.031,339.359 195.841,339.291 199.389 L 339.237 202.239 322.748 202.239 L 306.260 202.239 306.158 200.034 C 306.035 197.381,305.933 197.252,303.938 197.252 C 302.745 197.252,302.567 197.197,302.179 196.710 C 301.871 196.325,301.488 196.134,300.848 196.049 L 299.949 195.929 299.847 194.790 C 299.721 193.375,299.412 192.977,298.438 192.977 C 297.582 192.977,297.201 192.687,297.201 192.034 C 297.201 191.762,296.957 191.406,296.590 191.145 C 296.076 190.779,295.980 190.574,295.980 189.849 C 295.980 188.624,296.193 188.499,298.273 188.499 C 300.958 188.499,300.865 188.382,300.865 191.756 C 300.865 194.351,300.899 194.609,301.259 194.802 C 301.861 195.124,333.682 195.092,334.005 194.768 C 334.170 194.604,334.250 193.659,334.252 191.868 C 334.257 188.399,334.038 188.622,337.549 188.499 L 340.458 188.397 340.510 168.766 C 340.551 153.195,340.509 149.101,340.306 148.973 C 340.011 148.785,327.115 148.742,326.632 148.928 C 326.342 149.039,326.310 150.885,326.310 167.732 C 326.310 183.276,326.264 186.452,326.032 186.644 C 325.833 186.810,323.406 186.860,317.432 186.822 L 309.109 186.768 309.053 183.888 C 309.012 181.783,308.923 180.947,308.724 180.781 C 308.532 180.622,306.394 180.570,301.553 180.608 L 294.656 180.662 294.555 183.511 L 294.453 186.361 292.723 186.361 L 290.992 186.361 290.937 182.777 C 290.892 179.907,290.938 179.145,291.166 178.956 C 291.536 178.649,302.528 178.441,306.455 178.666 L 309.297 178.830 309.437 179.517 C 309.627 180.447,309.864 180.553,311.766 180.557 C 313.831 180.561,313.893 180.624,313.893 182.731 C 313.893 184.186,313.946 184.442,314.287 184.624 C 314.784 184.890,321.820 184.900,322.239 184.635 C 322.506 184.467,322.557 182.070,322.646 165.758 L 322.748 147.074 324.885 146.961 C 327.857 146.804,335.711 146.797,338.524 146.948 M231.247 151.450 L 231.349 153.588 232.214 153.650 L 233.079 153.713 233.079 154.547 C 233.079 155.336,233.059 155.363,232.714 155.051 C 232.424 154.789,231.801 154.708,229.711 154.663 L 227.074 154.606 227.017 151.901 L 226.960 149.197 229.053 149.255 L 231.145 149.313 231.247 151.450 M52.010 152.003 C 51.786 152.059,51.219 152.278,50.749 152.490 C 50.279 152.702,49.771 152.875,49.619 152.875 C 49.468 152.875,49.256 152.958,49.150 153.060 C 49.044 153.162,48.636 153.337,48.244 153.451 C 47.852 153.564,47.028 153.855,46.412 154.096 C 45.796 154.337,45.064 154.612,44.784 154.707 C 44.504 154.803,43.771 155.077,43.155 155.318 C 42.539 155.559,41.807 155.834,41.527 155.929 C 41.247 156.024,40.560 156.280,40.000 156.499 C 39.440 156.717,38.295 157.146,37.455 157.453 C 36.616 157.759,35.640 158.137,35.287 158.292 C 34.935 158.448,34.522 158.578,34.371 158.582 C 34.220 158.585,33.919 158.723,33.702 158.887 C 33.484 159.051,33.151 159.186,32.961 159.186 C 32.772 159.186,32.354 159.323,32.033 159.490 C 31.713 159.657,31.295 159.794,31.106 159.795 C 30.258 159.798,30.477 160.667,31.414 161.021 C 32.209 161.321,33.307 161.803,34.026 162.168 C 34.323 162.319,34.705 162.443,34.875 162.443 C 35.045 162.443,35.443 162.569,35.760 162.723 C 36.441 163.055,37.414 163.474,38.677 163.980 C 40.489 164.706,41.431 165.107,41.778 165.300 C 41.973 165.408,42.230 165.496,42.349 165.496 C 42.546 165.496,43.275 165.794,45.120 166.630 C 45.473 166.790,45.855 166.921,45.968 166.921 C 46.082 166.921,46.458 167.059,46.803 167.226 C 47.148 167.394,47.712 167.669,48.057 167.837 C 48.402 168.005,48.807 168.142,48.957 168.142 C 49.107 168.142,49.511 168.280,49.856 168.448 C 50.201 168.616,50.766 168.891,51.111 169.059 C 51.902 169.444,53.329 169.452,54.080 169.075 C 54.397 168.916,55.069 168.629,55.573 168.438 C 56.668 168.023,57.704 167.584,58.490 167.202 C 58.807 167.047,59.205 166.921,59.374 166.921 C 59.544 166.921,59.926 166.795,60.223 166.641 C 61.350 166.057,62.649 165.496,62.875 165.496 C 63.004 165.496,63.269 165.408,63.463 165.300 C 63.819 165.102,64.958 164.619,66.463 164.026 C 69.930 162.663,71.357 162.077,72.522 161.539 C 72.884 161.372,73.435 161.176,73.746 161.103 C 75.268 160.747,74.925 160.039,72.924 159.404 C 72.110 159.146,71.395 158.854,71.334 158.755 C 71.273 158.656,71.082 158.575,70.909 158.575 C 70.737 158.575,70.307 158.448,69.954 158.292 C 69.602 158.137,68.626 157.759,67.786 157.453 C 66.947 157.146,65.802 156.717,65.242 156.499 C 64.682 156.280,63.995 156.024,63.715 155.929 C 63.435 155.834,62.702 155.559,62.087 155.318 C 61.471 155.077,60.738 154.803,60.458 154.707 C 60.178 154.612,59.445 154.337,58.830 154.096 C 58.214 153.855,57.417 153.570,57.059 153.463 C 56.700 153.356,56.151 153.135,55.837 152.972 C 55.524 152.808,55.167 152.674,55.044 152.673 C 54.921 152.672,54.555 152.543,54.230 152.386 C 53.498 152.032,52.548 151.868,52.010 152.003 M53.910 152.689 C 53.948 152.792,54.337 152.933,54.775 153.003 C 55.214 153.074,55.573 153.207,55.573 153.299 C 55.573 153.392,55.916 153.531,56.336 153.607 C 56.756 153.684,57.280 153.872,57.501 154.024 C 57.722 154.176,58.100 154.300,58.341 154.300 C 58.582 154.300,58.894 154.438,59.033 154.606 C 59.172 154.774,59.527 154.914,59.821 154.917 C 60.116 154.921,60.534 155.058,60.751 155.223 C 60.969 155.387,61.335 155.525,61.566 155.528 C 61.796 155.532,62.163 155.669,62.380 155.833 C 62.597 155.998,62.918 156.133,63.092 156.134 C 63.267 156.134,63.672 156.272,63.993 156.439 C 64.313 156.606,64.680 156.746,64.807 156.750 C 64.934 156.754,65.405 156.934,65.852 157.150 C 66.300 157.366,66.771 157.547,66.898 157.550 C 67.025 157.554,67.391 157.694,67.712 157.861 C 68.033 158.029,68.433 158.169,68.601 158.173 C 68.768 158.177,69.084 158.315,69.301 158.480 C 69.518 158.644,69.914 158.779,70.181 158.779 C 70.447 158.779,70.803 158.916,70.971 159.084 C 71.138 159.252,71.475 159.392,71.719 159.396 C 71.963 159.399,72.341 159.537,72.558 159.701 C 72.775 159.866,73.218 160.000,73.542 160.000 C 74.151 160.000,74.226 160.348,73.677 160.631 C 72.459 161.258,71.599 161.628,71.359 161.628 C 71.203 161.628,70.771 161.782,70.398 161.969 C 70.025 162.157,69.477 162.431,69.180 162.580 C 68.883 162.728,68.459 162.850,68.238 162.850 C 68.017 162.850,67.722 162.987,67.583 163.155 C 67.443 163.323,67.129 163.461,66.884 163.461 C 66.639 163.461,66.261 163.595,66.044 163.759 C 65.827 163.924,65.454 164.061,65.216 164.065 C 64.978 164.068,64.669 164.209,64.529 164.377 C 64.390 164.545,64.104 164.682,63.893 164.682 C 63.682 164.682,63.168 164.865,62.750 165.089 C 62.333 165.313,61.829 165.496,61.632 165.496 C 61.434 165.496,61.272 165.588,61.272 165.700 C 61.272 165.812,61.122 165.903,60.938 165.903 C 60.755 165.903,60.228 166.077,59.768 166.288 C 59.308 166.500,58.519 166.832,58.015 167.026 C 57.511 167.221,56.824 167.497,56.489 167.640 C 56.153 167.784,55.466 168.055,54.962 168.242 C 54.458 168.429,53.786 168.712,53.470 168.871 C 53.153 169.030,52.771 169.160,52.621 169.160 C 52.471 169.160,52.089 169.030,51.772 168.871 C 51.455 168.712,50.784 168.429,50.280 168.242 C 49.776 168.055,49.089 167.784,48.753 167.640 C 48.417 167.497,47.730 167.221,47.226 167.026 C 46.723 166.832,45.934 166.500,45.474 166.288 C 45.014 166.077,44.487 165.903,44.303 165.903 C 44.120 165.903,43.969 165.812,43.969 165.700 C 43.969 165.588,43.808 165.496,43.610 165.496 C 43.413 165.496,42.909 165.313,42.491 165.089 C 42.074 164.865,41.559 164.682,41.349 164.682 C 41.138 164.682,40.852 164.545,40.712 164.377 C 40.573 164.209,40.264 164.068,40.026 164.065 C 39.788 164.061,39.415 163.924,39.198 163.759 C 38.980 163.595,38.602 163.461,38.358 163.461 C 38.113 163.461,37.798 163.323,37.659 163.155 C 37.520 162.987,37.241 162.850,37.040 162.850 C 36.839 162.850,36.392 162.712,36.047 162.545 C 35.702 162.377,35.138 162.102,34.793 161.934 C 34.448 161.766,33.996 161.628,33.789 161.628 C 33.583 161.628,33.291 161.507,33.142 161.357 C 32.993 161.208,32.598 161.018,32.264 160.934 C 31.109 160.644,30.741 160.000,31.731 160.000 C 32.053 160.000,32.431 159.863,32.570 159.695 C 32.709 159.527,33.069 159.389,33.370 159.389 C 33.671 159.389,34.095 159.255,34.312 159.090 C 34.530 158.926,34.896 158.789,35.126 158.785 C 35.357 158.782,35.723 158.644,35.941 158.480 C 36.158 158.315,36.473 158.177,36.641 158.173 C 36.809 158.169,37.209 158.029,37.530 157.861 C 37.850 157.694,38.217 157.554,38.344 157.550 C 38.471 157.547,38.941 157.366,39.389 157.150 C 39.837 156.934,40.308 156.754,40.435 156.750 C 40.562 156.746,40.928 156.606,41.249 156.439 C 41.570 156.272,41.985 156.134,42.172 156.134 C 42.359 156.133,42.794 155.995,43.139 155.827 C 43.484 155.659,44.048 155.384,44.393 155.216 C 44.738 155.048,45.231 154.911,45.488 154.911 C 45.745 154.911,46.069 154.774,46.209 154.606 C 46.348 154.438,46.719 154.300,47.033 154.300 C 47.347 154.300,47.728 154.177,47.879 154.026 C 48.029 153.875,48.494 153.688,48.911 153.610 C 49.328 153.532,49.669 153.380,49.669 153.273 C 49.669 153.166,49.861 153.079,50.096 153.079 C 50.331 153.079,50.812 152.950,51.165 152.792 C 51.518 152.634,51.944 152.455,52.112 152.394 C 52.527 152.244,53.826 152.457,53.910 152.689 M237.557 157.761 L 237.659 159.898 238.524 159.961 C 239.365 160.022,239.389 160.043,239.389 160.736 C 239.389 161.259,239.321 161.405,239.135 161.284 C 238.995 161.194,237.644 161.074,236.132 161.018 L 233.384 160.916 233.327 158.485 C 233.251 155.283,233.095 155.496,235.467 155.565 L 237.455 155.623 237.557 157.761 M156.677 156.673 C 156.343 157.008,156.524 187.024,156.861 187.154 C 157.345 187.339,173.904 187.296,174.200 187.109 C 174.402 186.980,174.445 183.781,174.403 171.794 L 174.351 156.641 165.583 156.588 C 160.761 156.559,156.753 156.597,156.677 156.673 M207.437 156.933 C 207.209 157.359,207.125 186.166,207.350 186.752 C 207.459 187.035,208.152 187.074,213.046 187.074 L 218.618 187.074 218.725 186.616 C 218.784 186.364,218.854 184.967,218.882 183.511 L 218.931 180.865 221.875 180.808 C 223.916 180.769,224.866 180.676,224.976 180.503 C 225.063 180.366,225.135 176.428,225.137 171.751 L 225.140 163.247 224.618 163.048 C 224.331 162.939,222.911 162.850,221.463 162.850 L 218.830 162.850 218.830 160.015 C 218.830 157.708,218.770 157.120,218.510 156.859 C 217.967 156.317,207.731 156.385,207.437 156.933 M173.944 171.908 L 173.944 186.768 165.598 186.822 C 157.932 186.871,157.231 186.847,156.997 186.529 C 156.664 186.075,156.623 157.957,156.955 157.338 C 157.160 156.954,157.425 156.944,165.555 156.995 L 173.944 157.048 173.944 171.908 M217.971 160.095 C 218.049 163.694,217.989 163.634,221.557 163.709 L 224.224 163.766 224.224 171.908 L 224.224 180.051 221.455 180.153 C 217.852 180.285,218.041 180.100,217.970 183.583 L 217.913 186.361 213.028 186.361 L 208.142 186.361 208.090 172.112 C 208.061 164.275,208.081 157.746,208.136 157.604 C 208.212 157.404,209.313 157.358,213.074 157.401 L 217.913 157.455 217.971 160.095 M212.335 164.353 C 212.071 164.671,212.097 184.888,212.362 185.153 C 212.443 185.234,212.954 185.343,213.496 185.395 C 215.069 185.547,215.165 185.350,215.165 181.989 L 215.165 179.173 218.066 179.103 C 221.877 179.011,221.476 179.836,221.476 172.095 L 221.476 165.486 220.886 165.368 C 220.440 165.279,220.268 165.107,220.179 164.661 L 220.061 164.071 216.315 164.071 C 213.371 164.071,212.519 164.132,212.335 164.353 M162.356 164.595 C 161.935 165.015,161.863 184.173,162.280 184.590 C 162.452 184.762,163.614 184.835,166.209 184.835 C 168.803 184.835,169.965 184.762,170.137 184.590 C 170.321 184.407,170.382 181.915,170.382 174.627 L 170.382 164.909 169.929 164.592 C 169.260 164.123,162.825 164.125,162.356 164.595 M219.602 165.088 C 219.793 165.423,220.018 165.698,220.102 165.698 C 220.981 165.706,221.069 166.294,221.069 172.189 C 221.069 178.930,221.350 178.342,218.064 178.461 C 214.399 178.593,214.758 178.268,214.758 181.455 C 214.758 184.437,214.656 184.716,213.600 184.595 L 213.028 184.529 212.975 174.782 C 212.937 167.753,212.987 164.956,213.153 164.756 C 213.328 164.545,214.088 164.478,216.319 164.478 L 219.256 164.478 219.602 165.088 M169.722 174.707 L 169.775 184.427 166.109 184.427 L 162.443 184.427 162.443 174.792 C 162.443 169.493,162.506 165.094,162.583 165.017 C 162.660 164.939,164.286 164.901,166.196 164.932 L 169.669 164.987 169.722 174.707 M73.893 168.807 C 73.613 168.948,72.835 169.276,72.163 169.536 C 71.491 169.797,70.758 170.089,70.534 170.185 C 70.310 170.281,69.623 170.555,69.008 170.793 C 68.392 171.032,67.613 171.347,67.277 171.494 C 66.941 171.642,66.163 171.960,65.547 172.202 C 64.931 172.445,64.244 172.720,64.020 172.814 C 63.796 172.909,63.109 173.184,62.494 173.425 C 61.878 173.666,61.191 173.948,60.967 174.051 C 60.743 174.154,60.056 174.427,59.440 174.658 C 58.824 174.888,58.046 175.206,57.710 175.363 C 57.374 175.520,56.939 175.697,56.743 175.757 C 56.344 175.878,56.176 193.026,56.571 193.271 C 56.673 193.333,57.245 193.142,57.843 192.845 C 59.528 192.010,60.896 191.328,61.359 191.092 C 61.993 190.771,61.940 190.797,68.571 187.454 C 73.315 185.063,74.793 184.228,74.933 183.861 C 75.033 183.598,75.115 180.156,75.115 176.211 C 75.115 168.221,75.111 168.197,73.893 168.807 M74.707 176.353 C 74.707 183.995,74.654 184.427,73.703 184.427 C 73.499 184.427,73.218 184.565,73.079 184.733 C 72.940 184.901,72.665 185.038,72.468 185.038 C 72.272 185.038,71.997 185.176,71.858 185.344 C 71.718 185.511,71.443 185.649,71.247 185.649 C 71.050 185.649,70.776 185.786,70.636 185.954 C 70.497 186.122,70.216 186.260,70.013 186.260 C 69.809 186.260,69.595 186.336,69.537 186.429 C 69.480 186.523,68.077 187.263,66.421 188.075 C 64.765 188.886,63.272 189.628,63.104 189.723 C 61.341 190.719,56.953 192.770,56.794 192.672 C 56.511 192.497,56.517 176.803,56.801 176.272 C 56.917 176.054,57.226 175.878,57.489 175.878 C 57.751 175.878,58.079 175.740,58.219 175.573 C 58.358 175.405,58.645 175.267,58.855 175.267 C 59.066 175.267,59.580 175.084,59.998 174.860 C 60.416 174.636,60.874 174.453,61.018 174.453 C 61.161 174.453,61.437 174.366,61.631 174.259 C 62.467 173.801,67.001 172.010,67.325 172.010 C 67.439 172.010,67.647 171.873,67.786 171.705 C 67.926 171.537,68.209 171.399,68.415 171.399 C 68.782 171.399,69.753 171.035,70.907 170.463 C 71.224 170.307,71.573 170.178,71.682 170.178 C 71.883 170.178,73.542 169.491,74.097 169.177 C 74.677 168.850,74.707 169.212,74.707 176.353 M239.579 184.709 C 239.597 187.029,239.818 187.277,241.870 187.277 C 243.025 187.277,243.289 187.340,243.380 187.634 C 243.441 187.830,243.575 188.149,243.679 188.343 C 244.171 189.266,244.040 189.313,240.967 189.316 C 237.286 189.320,237.580 189.034,237.512 192.680 L 237.455 195.725 234.356 195.781 L 231.257 195.838 231.201 198.937 L 231.145 202.036 214.911 202.088 L 198.677 202.140 198.677 199.916 C 198.677 196.898,198.785 197.048,196.619 197.048 L 194.809 197.048 194.809 196.234 L 194.809 195.420 210.448 195.420 L 226.087 195.420 226.523 194.956 C 226.915 194.538,226.965 194.225,227.016 191.851 L 227.074 189.211 229.741 189.155 C 233.309 189.079,233.249 189.139,233.327 185.541 L 233.384 182.901 236.061 182.844 C 238.195 182.799,238.792 182.723,239.003 182.468 C 239.409 181.980,239.562 182.577,239.579 184.709 "
            stroke="none" fill="ff4844" fill-rule="evenodd"></path>
    </g>
</svg>