<?xml version="1.0" encoding="UTF-8"?>
<!DOCTYPE svg PUBLIC "-//W3C//DTD SVG 1.1//EN" "http://www.w3.org/Graphics/SVG/1.1/DTD/svg11.dtd">
<!-- Creator: CorelDRAW X5 -->
<svg xmlns="http://www.w3.org/2000/svg" xml:space="preserve" width="1673px" height="300px" style="shape-rendering:geometricPrecision; text-rendering:geometricPrecision; image-rendering:optimizeQuality; fill-rule:evenodd; clip-rule:evenodd"
viewBox="0 0 176175732 31560059"
 xmlns:xlink="http://www.w3.org/1999/xlink">
 <defs>
  <style type="text/css">
   <![CDATA[
    .fil2 {fill:#008DD2}
    .fil1 {fill:#D9DADA;fill-rule:nonzero}
    .fil0 {fill:#212120;fill-rule:nonzero}
   ]]>
  </style>
 </defs>
 <g id="Warstwa_x0020_1">
  <metadata id="CorelCorpID_0Corel-Layer"/>
  <path class="fil0" d="M5172003 2982108l0 9340175 -2137652 0 0 -9340175 -3034352 0 0 -1735559 8203401 0 0 1735559 -3031398 0zm12380280 4373572c0,141805 -2954,324037 -11662,552605 -8707,225613 -23168,436766 -40427,633459l-5660858 0c0,378925 57842,711514 173525,1000722 115839,289364 280656,529437 491809,726130 214107,193738 468641,341297 763602,442519 297915,104177 624752,153311 986417,153311 419352,0 867780,-31875 1344973,-98424 477349,-63595 971957,-170571 1486778,-315175l0 1642888c-219705,60796 -459934,118637 -720221,167772 -260287,52089 -526483,98424 -798276,136052 -268995,40427 -543898,69348 -821600,89561 -274748,20369 -543742,28921 -804029,28921 -656627,0 -1243905,-92515 -1761681,-277546 -520574,-188141 -960295,-462888 -1321805,-827353 -361666,-364464 -639367,-815691 -833106,-1350881 -190939,-537989 -286409,-1159942 -286409,-1865703 0,-700008 95470,-1336265 286409,-1909084 193738,-575617 465687,-1067271 815691,-1475116 350004,-410800 775264,-726130 1275625,-948789 497562,-222815 1055765,-335544 1671964,-335544 610291,0 1151235,95470 1619876,283455 468486,190939 861871,454181 1177201,792523 315330,338498 555404,743389 720221,1212030 164973,468641 245982,983463 245982,1541665zm-2102978 -294961c5753,-341297 -34674,-636413 -124391,-885194 -92515,-251580 -214107,-459934 -370217,-624752 -156266,-162019 -335544,-283455 -540943,-364464 -208199,-78055 -428059,-118637 -665334,-118637 -520574,0 -948789,173525 -1281378,520730 -332589,347050 -529282,838859 -593032,1472318l3575295 0zm11110408 4931774c-405047,162019 -827353,283455 -1261165,364464 -433968,78211 -890947,118637 -1365342,118637 -682593,0 -1295839,-92515 -1839581,-280656 -540943,-185031 -1000877,-462733 -1379802,-830151 -378925,-367263 -668133,-821444 -867780,-1365186 -202446,-540943 -300870,-1168649 -300870,-1880163 0,-688502 107131,-1313253 324037,-1874410 219860,-558358 526483,-1035551 919868,-1431891 396184,-393385 873533,-700008 1428936,-913960 555248,-214107 1177201,-321083 1859794,-321083 558358,0 1029798,28921 1411677,86762 381723,60640 723176,135897 1029643,225613l0 2007352c-350004,-173525 -731727,-309421 -1139573,-404891 -410800,-98424 -798432,-144604 -1165695,-144604 -384678,0 -728929,63595 -1035551,193738 -303824,130144 -561157,312376 -769511,543898 -208199,231366 -370217,511867 -480148,841658 -109930,332589 -164817,694255 -164817,1090439 0,410800 60796,781017 179278,1108009 118637,329635 286409,607337 503315,835904 216906,228412 480148,404891 783971,526483 306623,121436 644965,182232 1018137,182232 179278,0 370217,-14460 569864,-37628 202446,-26122 402092,-63750 601584,-112884 202446,-46180 399294,-101223 593032,-164817 196693,-60796 378925,-130144 546696,-202446l0 1839581zm7714546 329790l0 -5608770c0,-945835 -350004,-1417275 -1052966,-1417275 -350004,0 -682593,141650 -1003676,425260 -318129,280501 -656627,665178 -1012384,1151235l0 5449550 -2068304 0 0 -11975234 2068304 0 0 2950388 -101223 1559080c173525,-208199 352803,-396184 532236,-563956 182232,-167772 375970,-306623 587123,-419507 208199,-112729 433968,-199491 676840,-257488 243028,-60640 512023,-89561 804185,-89561 442519,0 824398,72302 1154189,216906 326836,141805 601584,347050 821444,610291 219860,260443 384678,578572 494608,948789 109930,370217 164817,783971 164817,1240951l0 5779340 -2065194 0zm7948711 -3126867c237275,0 457135,43381 659581,130144 205400,89717 381879,208354 529282,355757 150513,150513 268995,326836 352958,529437 83808,205400 127189,422306 127189,653672 0,225613 -43381,439721 -127189,639212 -83964,202601 -202446,376126 -352958,526483 -147403,150357 -323882,268995 -529282,355757 -202446,86762 -422306,130144 -659581,130144 -225613,0 -439565,-43381 -636258,-130144 -196693,-86762 -370373,-205400 -517776,-355757 -144604,-150357 -260443,-323882 -347205,-526483 -83808,-199491 -127189,-413599 -127189,-639212 0,-231366 43381,-448272 127189,-653672 86762,-202601 202601,-378925 347205,-529437 147403,-147403 321083,-266040 517776,-355757 196693,-86762 410644,-130144 636258,-130144zm13464966 3126867l-2447073 0 -1093393 -3416075 -399138 -1388509 -381879 1423183 -1075978 3381402 -2345850 0 -618998 -11075734 1836782 0 263086 7101301 69503 1940959 500361 -1729806 1217783 -3939604 1316207 0 1287131 4176879 413599 1475116 34829 -1729651 280501 -7295195 1770233 0 -627706 11075734zm7619077 -5261565c11662,-324037 -2799,-595831 -46180,-824398 -43537,-225613 -109930,-410800 -202601,-558203 -92515,-147558 -208199,-254690 -344095,-321083 -136052,-69503 -289364,-101378 -465843,-101378 -303668,0 -618998,124391 -945835,376126 -323882,251580 -679794,665334 -1070225,1240951l0 5449550 -2120237 0 0 -8611247 1874410 0 75101 1255412c141805,-219860 300870,-419352 480303,-593032 176324,-176324 375970,-326836 592876,-454025 216906,-127345 456980,-222815 723176,-292162 266040,-66549 558203,-101223 873533,-101223 433968,0 821444,75101 1156988,225613 335544,147558 618998,370217 847566,665334 228568,292007 399138,662380 509068,1104899 109930,442519 156266,954542 138851,1538867l-2076856 0zm9068226 -5704240c0,185186 -34674,361666 -101223,526483 -66549,162019 -162019,306623 -283455,428059 -121436,121592 -263241,217062 -428059,286409 -164973,72302 -341297,106976 -535190,106976 -190939,0 -370217,-34674 -537989,-106976 -164817,-69348 -309577,-164817 -431013,-286409 -121436,-121436 -216906,-266040 -283455,-428059 -69348,-164817 -101223,-341297 -101223,-526483 0,-185031 31875,-361510 101223,-526328 66549,-162019 162019,-306623 283455,-431013 121436,-124391 266196,-222815 431013,-292162 167772,-72302 347050,-106976 537989,-106976 193894,0 370217,34674 535190,106976 164817,69348 306623,167772 428059,292162 121436,124391 216906,268995 283455,431013 66549,164817 101223,341297 101223,526328zm-2288009 3965726l-2432613 0 0 -1611169 4552850 0 0 7000078 2481902 0 0 1611169 -7329869 0 0 -1611169 2727729 0 0 -5388910zm13864104 6916270c-373172,83808 -746188,150357 -1125113,202446 -378925,52089 -737636,75101 -1076134,75101 -566910,0 -1052810,-57842 -1463610,-176324 -407846,-118637 -749142,-300870 -1015338,-543898 -268995,-242873 -465687,-552450 -592876,-925621 -127345,-375970 -190939,-824398 -190939,-1344973l0 -4203001 -2314131 0 0 -1611169 2314131 0 0 -2201246 2117283 -552450 0 2753696 3346728 0 0 1611169 -3346728 0 0 4049690c0,491654 112884,864825 338498,1116561 225613,251580 604538,375970 1136774,375970 338498,0 668133,-28921 992170,-83808 321083,-57997 616044,-121592 879286,-196848l0 1654705zm9941915 -4882795c0,141805 -2954,324037 -11662,552605 -8707,225613 -23168,436766 -40427,633459l-5660858 0c0,378925 57842,711514 173525,1000722 115839,289364 280656,529437 491809,726130 214107,193738 468641,341297 763602,442519 297915,104177 624752,153311 986417,153311 419352,0 867780,-31875 1344973,-98424 477349,-63595 971957,-170571 1486778,-315175l0 1642888c-219705,60796 -459934,118637 -720221,167772 -260287,52089 -526483,98424 -798276,136052 -268995,40427 -543898,69348 -821600,89561 -274748,20369 -543742,28921 -804029,28921 -656627,0 -1243905,-92515 -1761681,-277546 -520574,-188141 -960295,-462888 -1321805,-827353 -361666,-364464 -639367,-815691 -833106,-1350881 -190939,-537989 -286409,-1159942 -286409,-1865703 0,-700008 95470,-1336265 286409,-1909084 193738,-575617 465687,-1067271 815691,-1475116 350004,-410800 775264,-726130 1275625,-948789 497562,-222815 1055765,-335544 1671964,-335544 610291,0 1151235,95470 1619876,283455 468486,190939 861871,454181 1177201,792523 315330,338498 555404,743389 720221,1212030 164973,468641 245982,983463 245982,1541665zm-2102978 -294961c5753,-341297 -34674,-636413 -124391,-885194 -92515,-251580 -214107,-459934 -370217,-624752 -156266,-162019 -335544,-283455 -540943,-364464 -208199,-78055 -428059,-118637 -665334,-118637 -520574,0 -948789,173525 -1281378,520730 -332589,347050 -529282,838859 -593032,1472318l3575295 0zm9687225 0c11662,-324037 -2799,-595831 -46180,-824398 -43537,-225613 -109930,-410800 -202601,-558203 -92515,-147558 -208199,-254690 -344095,-321083 -136052,-69503 -289364,-101378 -465843,-101378 -303668,0 -618998,124391 -945835,376126 -323882,251580 -679794,665334 -1070225,1240951l0 5449550 -2120237 0 0 -8611247 1874410 0 75101 1255412c141805,-219860 300870,-419352 480303,-593032 176324,-176324 375970,-326836 592876,-454025 216906,-127345 456980,-222815 723176,-292162 266040,-66549 558203,-101223 873533,-101223 433968,0 821444,75101 1156988,225613 335544,147558 618998,370217 847566,665334 228568,292007 399138,662380 509068,1104899 109930,442519 156266,954542 138851,1538867l-2076856 0zm7543820 2134697c237275,0 457135,43381 659581,130144 205400,89717 381879,208354 529282,355757 150513,150513 268995,326836 352958,529437 83808,205400 127189,422306 127189,653672 0,225613 -43381,439721 -127189,639212 -83964,202601 -202446,376126 -352958,526483 -147403,150357 -323882,268995 -529282,355757 -202446,86762 -422306,130144 -659581,130144 -225613,0 -439565,-43381 -636258,-130144 -196693,-86762 -370373,-205400 -517776,-355757 -144604,-150357 -260443,-323882 -347205,-526483 -83808,-199491 -127189,-413599 -127189,-639212 0,-231366 43381,-448272 127189,-653672 86762,-202601 202601,-378925 347205,-529437 147403,-147403 321083,-266040 517776,-355757 196693,-86762 410644,-130144 636258,-130144z"/>
  <path class="fil1" d="M111048418 14295273l64686195 0 441120 0 0 427903 0 16408979 0 427903 -441120 0 -64686195 0 -441120 0 0 -427903 0 -16408979 0 -427903 441120 0zm64245075 855807l-63803955 0 0 15553172 63803955 0 0 -15553172z"/>
  <polygon class="fil2" points="111048418,14723176 175734612,14723176 175734612,31132155 111048418,31132155 "/>
  <path class="fil1" d="M134574713 26108799l-2307600 -3124380 0 3124380 -1499217 0 0 -8692722 1499217 0 0 5087573 2183676 -2645631 1877053 0 -2534302 2849321 2744366 3401460 -1963194 0zm8686347 -3174758c0,493519 -69348,942725 -210065,1350104 -138540,409400 -340053,758005 -602517,1049856 -262464,291851 -583703,516532 -965893,676063 -380013,159686 -814603,239452 -1303924,239452 -463977,0 -877575,-67171 -1242973,-201668 -365397,-136363 -674041,-338031 -928109,-606715 -254068,-268839 -449361,-604694 -583703,-1007874 -136519,-405202 -203690,-875554 -203690,-1413077 0,-495541 71369,-946923 212086,-1352281 140717,-407224 344406,-753651 608892,-1039283 264641,-287653 587901,-510157 968069,-667666 382034,-157510 812581,-237275 1293351,-237275 466154,0 883950,69192 1247171,205711 365397,138540 676063,342229 930130,613090 254068,270860 447340,604694 581681,1005853 132320,398827 199491,860783 199491,1385711zm-1562190 37784c0,-648697 -121747,-1135841 -367419,-1461278 -243650,-325437 -602672,-489321 -1079243,-489321 -262464,0 -485123,52555 -669843,153311 -184720,102933 -335854,243494 -455580,421995 -117549,178500 -205866,386388 -260443,623663 -56598,239296 -83964,493364 -83964,764224 0,650874 132320,1142216 394785,1471851 262464,331812 619465,495541 1075045,495541 249870,0 468175,-50378 653050,-151135 184720,-98735 333833,-239296 449205,-417797 113506,-178500 199491,-388409 258266,-629883 56753,-241473 86140,-501916 86140,-781173zm6790325 3136974l-35607 -921734c-132320,159531 -266662,304446 -407379,436766 -138540,130144 -287653,241473 -449361,333833 -159531,92360 -329635,163729 -512334,216284 -182699,50378 -384211,75567 -606715,75567 -367574,0 -697209,-73546 -982685,-220482 -287653,-146936 -529126,-359022 -724419,-629883 -193116,-273037 -342229,-604694 -445163,-995280 -102933,-388409 -153311,-823154 -153311,-1303924 0,-573285 79921,-1070847 241473,-1490821 163885,-419818 386388,-768423 674041,-1045658 287653,-277080 627861,-482946 1022490,-615111 392763,-134342 820978,-199491 1285110,-199491 155333,0 312842,10418 470352,29387 157354,20991 298071,48357 421995,79765l0 -2441942 1499217 0 0 8692722 -1297704 0zm-2742190 -3076023c0,344406 23168,638279 69348,883950 48201,243494 117549,442986 209909,598474 92360,155333 205866,270860 342229,342229 134497,71369 287653,106976 459934,106976 254068,0 497562,-102778 726441,-306467 228879,-205866 474550,-487144 732816,-844145l0 -2731616c-119726,-44159 -266662,-81942 -440964,-109153 -174302,-29387 -348605,-44159 -524928,-44159 -243494,0 -459779,50378 -653050,149113 -193116,96558 -356845,237275 -495385,417797 -136519,180522 -241473,401004 -317196,661447 -73390,260287 -109153,552139 -109153,875554zm7227091 -3174758l0 4073479c0,340053 62973,598319 191095,772621 128122,174302 319217,260287 577483,260287 251891,0 491343,-102778 724419,-310665 230900,-207888 476571,-487144 734837,-839947l0 -3955775 1501238 0 0 6250781 -1299726 0 -35607 -921734c-132320,159531 -264641,304446 -401160,436766 -134342,130144 -281278,241473 -438788,333833 -157510,92360 -329635,163729 -516532,216284 -186897,50378 -392608,75567 -619309,75567 -319217,0 -598474,-52555 -837770,-155488 -241473,-104955 -440964,-253912 -600651,-447184 -159531,-193116 -279257,-421995 -359022,-690834 -81787,-268684 -121747,-568931 -121747,-902764l0 -4195227 1501238 0zm10015460 6072280c0,468330 -69192,875554 -205711,1221982 -138540,346583 -333833,632059 -590078,860938 -258266,226702 -564733,396806 -923755,510157 -359022,113506 -760182,168083 -1203168,168083 -361199,0 -697054,-29387 -1007874,-90339 -312842,-62973 -568931,-136519 -768423,-222504l0 -1377470c113351,60951 243494,121747 390586,180522 144759,60951 296050,113506 453404,159686 159686,48201 319217,83964 482946,111174 165906,27366 327614,39960 487144,39960 455580,0 795789,-130144 1020469,-392608 226702,-262464 338031,-648852 338031,-1156988l0 -4915292 -2971068 0 0 -1169582 4497496 0 0 6072280zm123924 -7781406c0,134342 -25189,262464 -75567,382190 -48357,117549 -117549,222504 -205711,310665 -88317,88162 -193272,157510 -312842,207888 -121903,52555 -252046,77744 -390586,77744 -140717,0 -268839,-25189 -388409,-77744 -117705,-50378 -222659,-119726 -310821,-207888 -88162,-88162 -155333,-193116 -205711,-310665 -48357,-119726 -73546,-247848 -73546,-382190 0,-134342 25189,-262464 73546,-382190 50378,-117549 117549,-222504 205711,-312842 88162,-90183 193116,-161708 310821,-212086 119570,-52400 247693,-77589 388409,-77589 138540,0 268684,25189 390586,77589 119570,50378 224525,121903 312842,212086 88162,90339 157354,195293 205711,312842 50378,119726 75567,247848 75567,382190zm7670077 4354758c0,102933 -2021,235098 -8396,401004 -6220,163729 -16793,317040 -29387,459779l-4109086 0c0,275059 42137,516532 126101,726596 83964,209909 203690,384211 356845,526949 155488,140717 340208,247848 554315,321239 216284,75723 453559,111330 716023,111330 304446,0 629883,-23012 976310,-71369 346583,-46180 705605,-123924 1079243,-228879l0 1192594c-159531,44159 -333833,86140 -522751,121747 -188918,37784 -382190,71525 -579504,98735 -195293,29387 -394785,50378 -596297,65150 -199491,14616 -394785,20991 -583703,20991 -476727,0 -902920,-67171 -1278735,-201668 -377992,-136363 -697054,-335854 -959518,-600495 -262464,-264485 -464132,-592099 -604694,-980508 -138695,-390586 -207888,-841969 -207888,-1354302 0,-508135 69192,-970091 207888,-1385711 140561,-417952 338031,-774798 592099,-1070847 254068,-298226 562712,-527105 925932,-688813 361044,-161708 766401,-243494 1213585,-243494 442986,0 835749,69192 1175802,205711 340208,138540 625684,329635 854563,575306 228879,245671 403181,539699 522907,879752 119570,340208 178345,714002 178345,1119204zm-1526428 -214107c4198,-247848 -25189,-461955 -90183,-642633 -67326,-182543 -155488,-333833 -268839,-453404 -113351,-117705 -243494,-205866 -392608,-264641 -151135,-56753 -310821,-86140 -482946,-86140 -377992,0 -688657,126101 -930130,377992 -241473,252046 -384211,608892 -430547,1068826l2595253 0z"/>
  <path class="fil1" d="M120987533 22588080l-4175013 -2112307 23168 4558292 4138784 2770488 13061 -5216473zm-3682271 -2772510l4070525 2059596 3449661 -2110441 -3431313 -2025545 -4088873 2076389zm-1302525 -243184l5420785 -2773909 4590322 2726019 777 230123 -34518 5714346 -4613023 3587890 -5341641 -3622253 933 -181610 -27677 -5442864 4043 -237741zm9212208 905408l-3416853 2090383 -12906 5146659 3384356 -2639101 45403 -4597941z"/>
 </g>
</svg>
