<?xml version="1.0" encoding="UTF-8"?>
<!DOCTYPE svg PUBLIC "-//W3C//DTD SVG 1.1//EN" "http://www.w3.org/Graphics/SVG/1.1/DTD/svg11.dtd">
<!-- Creator: CorelDRAW X5 -->
<svg xmlns="http://www.w3.org/2000/svg" xml:space="preserve" width="1200px" height="1200px" style="shape-rendering:geometricPrecision; text-rendering:geometricPrecision; image-rendering:optimizeQuality; fill-rule:evenodd; clip-rule:evenodd"
viewBox="0 0 641 641"
 xmlns:xlink="http://www.w3.org/1999/xlink">
 <defs>
  <style type="text/css">
   <![CDATA[
    .fil3 {fill:#008DD2}
    .fil0 {fill:#212120}
    .fil1 {fill:#2B2A29;fill-rule:nonzero}
    .fil2 {fill:#D9DADA;fill-rule:nonzero}
   ]]>
  </style>
 </defs>
 <g id="Warstwa_x0020_1">
  <metadata id="CorelCorpID_0Corel-Layer"/>
  <polygon class="fil0" points="1,1 639,1 639,639 1,639 "/>
  <path class="fil1" d="M1 0l638 0 1 0 0 1 0 638 0 1 -1 0 -638 0 -1 0 0 -1 0 -638 0 -1 1 0zm637 3l-635 0 0 635 635 0 0 -635z"/>
  <path class="fil2" d="M122 114l0 113 -26 0 0 -113 -37 0 0 -21 99 0 0 21 -37 0zm150 53c0,2 0,4 0,7 0,3 0,5 0,8l-68 0c0,5 1,9 2,12 1,3 3,6 6,9 3,2 6,4 9,5 4,1 8,2 12,2 5,0 10,0 16,-1 6,-1 12,-2 18,-4l0 20c-3,1 -6,1 -9,2 -3,1 -6,1 -10,2 -3,0 -7,1 -10,1 -3,0 -7,0 -10,0 -8,0 -15,-1 -21,-3 -6,-2 -12,-6 -16,-10 -4,-4 -8,-10 -10,-16 -2,-7 -3,-14 -3,-23 0,-8 1,-16 3,-23 2,-7 6,-13 10,-18 4,-5 9,-9 15,-11 6,-3 13,-4 20,-4 7,0 14,1 20,3 6,2 10,5 14,10 4,4 7,9 9,15 2,6 3,12 3,19zm-25 -4c0,-4 0,-8 -2,-11 -1,-3 -3,-6 -4,-8 -2,-2 -4,-3 -7,-4 -3,-1 -5,-1 -8,-1 -6,0 -11,2 -15,6 -4,4 -6,10 -7,18l43 0zm134 60c-5,2 -10,3 -15,4 -5,1 -11,1 -17,1 -8,0 -16,-1 -22,-3 -7,-2 -12,-6 -17,-10 -5,-4 -8,-10 -10,-17 -2,-7 -4,-14 -4,-23 0,-8 1,-16 4,-23 3,-7 6,-13 11,-17 5,-5 11,-8 17,-11 7,-3 14,-4 22,-4 7,0 12,0 17,1 5,1 9,2 12,3l0 24c-4,-2 -9,-4 -14,-5 -5,-1 -10,-2 -14,-2 -5,0 -9,1 -13,2 -4,2 -7,4 -9,7 -3,3 -4,6 -6,10 -1,4 -2,8 -2,13 0,5 1,9 2,13 1,4 3,7 6,10 3,3 6,5 9,6 4,1 8,2 12,2 2,0 4,0 7,0 2,0 5,-1 7,-1 2,-1 5,-1 7,-2 2,-1 5,-2 7,-2l0 22zm93 4l0 -68c0,-11 -4,-17 -13,-17 -4,0 -8,2 -12,5 -4,3 -8,8 -12,14l0 66 -25 0 0 -145 25 0 0 36 -1 19c2,-3 4,-5 6,-7 2,-2 5,-4 7,-5 3,-1 5,-2 8,-3 3,-1 6,-1 10,-1 5,0 10,1 14,3 4,2 7,4 10,7 3,3 5,7 6,11 1,4 2,9 2,15l0 70 -25 0zm96 -38c3,0 6,1 8,2 2,1 5,3 6,4 2,2 3,4 4,6 1,2 2,5 2,8 0,3 -1,5 -2,8 -1,2 -2,5 -4,6 -2,2 -4,3 -6,4 -2,1 -5,2 -8,2 -3,0 -5,-1 -8,-2 -2,-1 -4,-2 -6,-4 -2,-2 -3,-4 -4,-6 -1,-2 -2,-5 -2,-8 0,-3 1,-5 2,-8 1,-2 2,-5 4,-6 2,-2 4,-3 6,-4 2,-1 5,-2 8,-2z"/>
  <path class="fil2" d="M129 366l-20 0 -9 -29 -3 -12 -3 12 -9 28 -20 0 -5 -93 15 0 2 59 1 16 4 -14 10 -33 11 0 11 35 3 12 0 -14 2 -61 15 0 -5 93zm64 -44c0,-3 0,-5 0,-7 0,-2 -1,-3 -2,-5 -1,-1 -2,-2 -3,-3 -1,-1 -2,-1 -4,-1 -3,0 -5,1 -8,3 -3,2 -6,6 -9,10l0 46 -18 0 0 -72 16 0 1 11c1,-2 3,-4 4,-5 1,-1 3,-3 5,-4 2,-1 4,-2 6,-2 2,-1 5,-1 7,-1 4,0 7,1 10,2 3,1 5,3 7,6 2,2 3,6 4,9 1,4 1,8 1,13l-17 0zm76 -48c0,2 0,3 -1,4 -1,1 -1,3 -2,4 -1,1 -2,2 -4,2 -1,1 -3,1 -4,1 -2,0 -3,0 -5,-1 -1,-1 -3,-1 -4,-2 -1,-1 -2,-2 -2,-4 -1,-1 -1,-3 -1,-4 0,-2 0,-3 1,-4 1,-1 1,-3 2,-4 1,-1 2,-2 4,-2 1,-1 3,-1 5,-1 2,0 3,0 4,1 1,1 3,1 4,2 1,1 2,2 2,4 1,1 1,3 1,4zm-19 33l-20 0 0 -13 38 0 0 59 21 0 0 13 -61 0 0 -13 23 0 0 -45zm116 58c-3,1 -6,1 -9,2 -3,0 -6,1 -9,1 -5,0 -9,0 -12,-1 -3,-1 -6,-3 -8,-5 -2,-2 -4,-5 -5,-8 -1,-3 -2,-7 -2,-11l0 -35 -19 0 0 -13 19 0 0 -18 18 -5 0 23 28 0 0 13 -28 0 0 34c0,4 1,7 3,9 2,2 5,3 10,3 3,0 6,0 8,-1 3,0 5,-1 7,-2l0 14zm83 -41c0,1 0,3 0,5 0,2 0,4 0,5l-47 0c0,3 0,6 1,8 1,2 2,4 4,6 2,2 4,3 6,4 2,1 5,1 8,1 4,0 7,0 11,-1 4,-1 8,-1 12,-3l0 14c-2,1 -4,1 -6,1 -2,0 -4,1 -7,1 -2,0 -5,1 -7,1 -2,0 -5,0 -7,0 -5,0 -10,-1 -15,-2 -4,-2 -8,-4 -11,-7 -3,-3 -5,-7 -7,-11 -2,-5 -2,-10 -2,-16 0,-6 1,-11 2,-16 2,-5 4,-9 7,-12 3,-3 6,-6 11,-8 4,-2 9,-3 14,-3 5,0 10,1 14,2 4,2 7,4 10,7 3,3 5,6 6,10 1,4 2,8 2,13zm-18 -2c0,-3 0,-5 -1,-7 -1,-2 -2,-4 -3,-5 -1,-1 -3,-2 -5,-3 -2,-1 -4,-1 -6,-1 -4,0 -8,1 -11,4 -3,3 -4,7 -5,12l30 0zm81 0c0,-3 0,-5 0,-7 0,-2 -1,-3 -2,-5 -1,-1 -2,-2 -3,-3 -1,-1 -2,-1 -4,-1 -3,0 -5,1 -8,3 -3,2 -6,6 -9,10l0 46 -18 0 0 -72 16 0 1 11c1,-2 3,-4 4,-5 1,-1 3,-3 5,-4 2,-1 4,-2 6,-2 2,-1 5,-1 7,-1 4,0 7,1 10,2 3,1 5,3 7,6 2,2 3,6 4,9 1,4 1,8 1,13l-17 0zm63 18c2,0 4,0 6,1 2,1 3,2 4,3 1,1 2,3 3,4 1,2 1,4 1,5 0,2 0,4 -1,5 -1,2 -2,3 -3,4 -1,1 -3,2 -4,3 -2,1 -4,1 -6,1 -2,0 -4,0 -5,-1 -2,-1 -3,-2 -4,-3 -1,-1 -2,-3 -3,-4 -1,-2 -1,-3 -1,-5 0,-2 0,-4 1,-5 1,-2 2,-3 3,-4 1,-1 3,-2 4,-3 2,-1 3,-1 5,-1z"/>
  <path class="fil2" d="M62 422l523 0 4 0 0 3 0 133 0 3 -4 0 -523 0 -4 0 0 -3 0 -133 0 -3 4 0zm520 7l-516 0 0 126 516 0 0 -126z"/>
  <polygon class="fil3" points="62,426 585,426 585,558 62,558 "/>
  <g id="_460588136">
   <path class="fil2" d="M253 518l-19 -25 0 25 -12 0 0 -70 12 0 0 41 18 -21 15 0 -20 23 22 28 -16 0zm70 -26c0,4 -1,8 -2,11 -1,3 -3,6 -5,8 -2,2 -5,4 -8,5 -3,1 -7,2 -11,2 -4,0 -7,-1 -10,-2 -3,-1 -5,-3 -8,-5 -2,-2 -4,-5 -5,-8 -1,-3 -2,-7 -2,-11 0,-4 1,-8 2,-11 1,-3 3,-6 5,-8 2,-2 5,-4 8,-5 3,-1 7,-2 10,-2 4,0 7,1 10,2 3,1 5,3 8,5 2,2 4,5 5,8 1,3 2,7 2,11zm-13 0c0,-5 -1,-9 -3,-12 -2,-3 -5,-4 -9,-4 -2,0 -4,0 -5,1 -1,1 -3,2 -4,3 -1,1 -2,3 -2,5 0,2 -1,4 -1,6 0,5 1,9 3,12 2,3 5,4 9,4 2,0 4,0 5,-1 1,-1 3,-2 4,-3 1,-1 2,-3 2,-5 0,-2 1,-4 1,-6zm55 25l0 -7c-1,1 -2,2 -3,4 -1,1 -2,2 -4,3 -1,1 -3,1 -4,2 -1,0 -3,1 -5,1 -3,0 -6,-1 -8,-2 -2,-1 -4,-3 -6,-5 -2,-2 -3,-5 -4,-8 -1,-3 -1,-7 -1,-11 0,-5 1,-9 2,-12 1,-3 3,-6 5,-8 2,-2 5,-4 8,-5 3,-1 7,-2 10,-2 1,0 3,0 4,0 1,0 2,0 3,1l0 -20 12 0 0 70 -10 0zm-22 -25c0,3 0,5 1,7 0,2 1,4 2,5 1,1 2,2 3,3 1,1 2,1 4,1 2,0 4,-1 6,-2 2,-2 4,-4 6,-7l0 -22c-1,0 -2,-1 -4,-1 -1,0 -3,0 -4,0 -2,0 -4,0 -5,1 -2,1 -3,2 -4,3 -1,1 -2,3 -3,5 -1,2 -1,4 -1,7zm58 -26l0 33c0,3 1,5 2,6 1,1 3,2 5,2 2,0 4,-1 6,-3 2,-2 4,-4 6,-7l0 -32 12 0 0 51 -11 0 0 -7c-1,1 -2,2 -3,4 -1,1 -2,2 -4,3 -1,1 -3,1 -4,2 -2,0 -3,1 -5,1 -3,0 -5,0 -7,-1 -2,-1 -4,-2 -5,-4 -1,-2 -2,-3 -3,-6 -1,-2 -1,-5 -1,-7l0 -34 12 0zm81 49c0,4 -1,7 -2,10 -1,3 -3,5 -5,7 -2,2 -5,3 -7,4 -3,1 -6,1 -10,1 -3,0 -6,0 -8,-1 -3,-1 -5,-1 -6,-2l0 -11c1,0 2,1 3,1 1,0 2,1 4,1 1,0 3,1 4,1 1,0 3,0 4,0 4,0 6,-1 8,-3 2,-2 3,-5 3,-9l0 -40 -24 0 0 -9 36 0 0 49zm1 -63c0,1 0,2 -1,3 0,1 -1,2 -2,3 -1,1 -2,1 -3,2 -1,0 -2,1 -3,1 -1,0 -2,0 -3,-1 -1,0 -2,-1 -3,-2 -1,-1 -1,-2 -2,-3 0,-1 -1,-2 -1,-3 0,-1 0,-2 1,-3 0,-1 1,-2 2,-3 1,-1 2,-1 3,-2 1,0 2,-1 3,-1 1,0 2,0 3,1 1,0 2,1 3,2 1,1 1,2 2,3 0,1 1,2 1,3zm62 35c0,1 0,2 0,3 0,1 0,3 0,4l-33 0c0,2 0,4 1,6 1,2 2,3 3,4 1,1 3,2 4,3 2,1 4,1 6,1 2,0 5,0 8,-1 3,0 6,-1 9,-2l0 10c-1,0 -3,1 -4,1 -2,0 -3,1 -5,1 -2,0 -3,0 -5,1 -2,0 -3,0 -5,0 -4,0 -7,-1 -10,-2 -3,-1 -6,-3 -8,-5 -2,-2 -4,-5 -5,-8 -1,-3 -2,-7 -2,-11 0,-4 1,-8 2,-11 1,-3 3,-6 5,-9 2,-2 5,-4 7,-6 3,-1 6,-2 10,-2 4,0 7,1 10,2 3,1 5,3 7,5 2,2 3,4 4,7 1,3 1,6 1,9zm-12 -2c0,-2 0,-4 -1,-5 -1,-1 -1,-3 -2,-4 -1,-1 -2,-2 -3,-2 -1,0 -3,-1 -4,-1 -3,0 -6,1 -8,3 -2,2 -3,5 -3,9l21 0z"/>
   <path class="fil2" d="M143 489l-34 -17 0 37 33 22 0 -42zm-30 -22l33 17 28 -17 -28 -16 -33 17zm-11 -2l44 -22 37 22 0 2 0 46 -37 29 -43 -29 0 -1 0 -44 0 -2zm75 7l-28 17 0 42 27 -21 0 -37z"/>
  </g>
 </g>
</svg>
