<?xml version="1.0" encoding="UTF-8"?>
<!DOCTYPE svg PUBLIC "-//W3C//DTD SVG 1.1//EN" "http://www.w3.org/Graphics/SVG/1.1/DTD/svg11.dtd">
<!-- Creator: CorelDRAW X5 -->
<svg xmlns="http://www.w3.org/2000/svg" xml:space="preserve" width="1700px" height="305px" style="shape-rendering:geometricPrecision; text-rendering:geometricPrecision; image-rendering:optimizeQuality; fill-rule:evenodd; clip-rule:evenodd"
viewBox="0 0 1790 321"
 xmlns:xlink="http://www.w3.org/1999/xlink">
 <defs>
  <style type="text/css">
   <![CDATA[
    .fil2 {fill:#008DD2}
    .fil1 {fill:#D9DADA;fill-rule:nonzero}
    .fil0 {fill:#212120;fill-rule:nonzero}
   ]]>
  </style>
 </defs>
 <g id="Warstwa_x0020_1">
  <metadata id="CorelCorpID_0Corel-Layer"/>
  <path class="fil0" d="M53 30l0 95 -22 0 0 -95 -31 0 0 -18 83 0 0 18 -31 0zm126 44c0,1 0,3 0,6 0,2 0,4 0,6l-58 0c0,4 1,7 2,10 1,3 3,5 5,7 2,2 5,3 8,4 3,1 6,2 10,2 4,0 9,0 14,-1 5,-1 10,-2 15,-3l0 17c-2,1 -5,1 -7,2 -3,1 -5,1 -8,1 -3,0 -6,1 -8,1 -3,0 -6,0 -8,0 -7,0 -13,-1 -18,-3 -5,-2 -10,-5 -13,-8 -4,-4 -6,-8 -8,-14 -2,-5 -3,-12 -3,-19 0,-7 1,-14 3,-19 2,-6 5,-11 8,-15 4,-4 8,-7 13,-10 5,-2 11,-3 17,-3 6,0 12,1 16,3 5,2 9,5 12,8 3,3 6,8 7,12 2,5 2,10 2,16zm-21 -3c0,-3 0,-6 -1,-9 -1,-3 -2,-5 -4,-6 -2,-2 -3,-3 -5,-4 -2,-1 -4,-1 -7,-1 -5,0 -10,2 -13,5 -3,4 -5,9 -6,15l36 0zm113 50c-4,2 -8,3 -13,4 -4,1 -9,1 -14,1 -7,0 -13,-1 -19,-3 -5,-2 -10,-5 -14,-8 -4,-4 -7,-8 -9,-14 -2,-5 -3,-12 -3,-19 0,-7 1,-13 3,-19 2,-6 5,-11 9,-15 4,-4 9,-7 15,-9 6,-2 12,-3 19,-3 6,0 10,0 14,1 4,1 7,1 10,2l0 20c-4,-2 -7,-3 -12,-4 -4,-1 -8,-1 -12,-1 -4,0 -7,1 -11,2 -3,1 -6,3 -8,6 -2,2 -4,5 -5,9 -1,3 -2,7 -2,11 0,4 1,8 2,11 1,3 3,6 5,8 2,2 5,4 8,5 3,1 7,2 10,2 2,0 4,0 6,0 2,0 4,-1 6,-1 2,0 4,-1 6,-2 2,-1 4,-1 6,-2l0 19zm78 3l0 -57c0,-10 -4,-14 -11,-14 -4,0 -7,1 -10,4 -3,3 -7,7 -10,12l0 55 -21 0 0 -122 21 0 0 30 -1 16c2,-2 4,-4 5,-6 2,-2 4,-3 6,-4 2,-1 4,-2 7,-3 2,-1 5,-1 8,-1 4,0 8,1 12,2 3,1 6,4 8,6 2,3 4,6 5,10 1,4 2,8 2,13l0 59 -21 0zm81 -32c2,0 5,0 7,1 2,1 4,2 5,4 2,2 3,3 4,5 1,2 1,4 1,7 0,2 0,4 -1,6 -1,2 -2,4 -4,5 -1,2 -3,3 -5,4 -2,1 -4,1 -7,1 -2,0 -4,0 -6,-1 -2,-1 -4,-2 -5,-4 -1,-2 -3,-3 -4,-5 -1,-2 -1,-4 -1,-6 0,-2 0,-5 1,-7 1,-2 2,-4 4,-5 1,-1 3,-3 5,-4 2,-1 4,-1 6,-1zm137 32l-25 0 -11 -35 -4 -14 -4 14 -11 34 -24 0 -6 -113 19 0 3 72 1 20 5 -18 12 -40 13 0 13 42 4 15 0 -18 3 -74 18 0 -6 113zm77 -53c0,-3 0,-6 0,-8 0,-2 -1,-4 -2,-6 -1,-1 -2,-3 -3,-3 -1,-1 -3,-1 -5,-1 -3,0 -6,1 -10,4 -3,3 -7,7 -11,13l0 55 -22 0 0 -88 19 0 1 13c1,-2 3,-4 5,-6 2,-2 4,-3 6,-5 2,-1 5,-2 7,-3 3,-1 6,-1 9,-1 4,0 8,1 12,2 3,1 6,4 9,7 2,3 4,7 5,11 1,4 2,10 1,16l-21 0zm92 -58c0,2 0,4 -1,5 -1,2 -2,3 -3,4 -1,1 -3,2 -4,3 -2,1 -3,1 -5,1 -2,0 -4,0 -5,-1 -2,-1 -3,-2 -4,-3 -1,-1 -2,-3 -3,-4 -1,-2 -1,-3 -1,-5 0,-2 0,-4 1,-5 1,-2 2,-3 3,-4 1,-1 3,-2 4,-3 2,-1 4,-1 5,-1 2,0 4,0 5,1 2,1 3,2 4,3 1,1 2,3 3,4 1,2 1,3 1,5zm-23 40l-25 0 0 -16 46 0 0 71 25 0 0 16 -74 0 0 -16 28 0 0 -55zm141 70c-4,1 -8,2 -11,2 -4,1 -7,1 -11,1 -6,0 -11,-1 -15,-2 -4,-1 -8,-3 -10,-6 -3,-2 -5,-6 -6,-9 -1,-4 -2,-8 -2,-14l0 -43 -24 0 0 -16 24 0 0 -22 22 -6 0 28 34 0 0 16 -34 0 0 41c0,5 1,9 3,11 2,3 6,4 12,4 3,0 7,0 10,-1 3,-1 6,-1 9,-2l0 17zm101 -50c0,1 0,3 0,6 0,2 0,4 0,6l-58 0c0,4 1,7 2,10 1,3 3,5 5,7 2,2 5,3 8,4 3,1 6,2 10,2 4,0 9,0 14,-1 5,-1 10,-2 15,-3l0 17c-2,1 -5,1 -7,2 -3,1 -5,1 -8,1 -3,0 -6,1 -8,1 -3,0 -6,0 -8,0 -7,0 -13,-1 -18,-3 -5,-2 -10,-5 -13,-8 -4,-4 -6,-8 -8,-14 -2,-5 -3,-12 -3,-19 0,-7 1,-14 3,-19 2,-6 5,-11 8,-15 4,-4 8,-7 13,-10 5,-2 11,-3 17,-3 6,0 12,1 16,3 5,2 9,5 12,8 3,3 6,8 7,12 2,5 2,10 2,16zm-21 -3c0,-3 0,-6 -1,-9 -1,-3 -2,-5 -4,-6 -2,-2 -3,-3 -5,-4 -2,-1 -4,-1 -7,-1 -5,0 -10,2 -13,5 -3,4 -5,9 -6,15l36 0zm98 0c0,-3 0,-6 0,-8 0,-2 -1,-4 -2,-6 -1,-1 -2,-3 -3,-3 -1,-1 -3,-1 -5,-1 -3,0 -6,1 -10,4 -3,3 -7,7 -11,13l0 55 -22 0 0 -88 19 0 1 13c1,-2 3,-4 5,-6 2,-2 4,-3 6,-5 2,-1 5,-2 7,-3 3,-1 6,-1 9,-1 4,0 8,1 12,2 3,1 6,4 9,7 2,3 4,7 5,11 1,4 2,10 1,16l-21 0zm77 22c2,0 5,0 7,1 2,1 4,2 5,4 2,2 3,3 4,5 1,2 1,4 1,7 0,2 0,4 -1,6 -1,2 -2,4 -4,5 -1,2 -3,3 -5,4 -2,1 -4,1 -7,1 -2,0 -4,0 -6,-1 -2,-1 -4,-2 -5,-4 -1,-2 -3,-3 -4,-5 -1,-2 -1,-4 -1,-6 0,-2 0,-5 1,-7 1,-2 2,-4 4,-5 1,-1 3,-3 5,-4 2,-1 4,-1 6,-1z"/>
  <path class="fil1" d="M1128 145l657 0 4 0 0 4 0 167 0 4 -4 0 -657 0 -4 0 0 -4 0 -167 0 -4 4 0zm653 9l-648 0 0 158 648 0 0 -158z"/>
  <polygon class="fil2" points="1128,150 1786,150 1786,316 1128,316 "/>
  <g id="_460589216">
   <path class="fil1" d="M1367 265l-23 -32 0 32 -15 0 0 -88 15 0 0 52 22 -27 19 0 -26 29 28 35 -20 0zm88 -32c0,5 -1,10 -2,14 -1,4 -3,8 -6,11 -3,3 -6,5 -10,7 -4,2 -8,2 -13,2 -5,0 -9,-1 -13,-2 -4,-1 -7,-3 -9,-6 -3,-3 -5,-6 -6,-10 -1,-4 -2,-9 -2,-14 0,-5 1,-10 2,-14 1,-4 3,-8 6,-11 3,-3 6,-5 10,-7 4,-2 8,-2 13,-2 5,0 9,1 13,2 4,1 7,3 9,6 3,3 5,6 6,10 1,4 2,9 2,14zm-16 0c0,-7 -1,-12 -4,-15 -2,-3 -6,-5 -11,-5 -3,0 -5,1 -7,2 -2,1 -3,2 -5,4 -1,2 -2,4 -3,6 -1,2 -1,5 -1,8 0,7 1,12 4,15 3,3 6,5 11,5 3,0 5,-1 7,-2 2,-1 3,-2 5,-4 1,-2 2,-4 3,-6 1,-2 1,-5 1,-8zm69 32l0 -9c-1,2 -3,3 -4,4 -1,1 -3,2 -5,3 -2,1 -3,2 -5,2 -2,1 -4,1 -6,1 -4,0 -7,-1 -10,-2 -3,-1 -5,-4 -7,-6 -2,-3 -3,-6 -5,-10 -1,-4 -2,-8 -2,-13 0,-6 1,-11 2,-15 2,-4 4,-8 7,-11 3,-3 6,-5 10,-6 4,-1 8,-2 13,-2 2,0 3,0 5,0 2,0 3,0 4,1l0 -25 15 0 0 88 -13 0zm-28 -31c0,3 0,6 1,9 0,2 1,5 2,6 1,2 2,3 3,3 1,1 3,1 5,1 3,0 5,-1 7,-3 2,-2 5,-5 7,-9l0 -28c-1,0 -3,-1 -4,-1 -2,0 -4,0 -5,0 -2,0 -5,1 -7,2 -2,1 -4,2 -5,4 -1,2 -2,4 -3,7 -1,3 -1,6 -1,9zm73 -32l0 41c0,3 1,6 2,8 1,2 3,3 6,3 3,0 5,-1 7,-3 2,-2 5,-5 7,-9l0 -40 15 0 0 64 -13 0 0 -9c-1,2 -3,3 -4,4 -1,1 -3,2 -4,3 -2,1 -3,2 -5,2 -2,1 -4,1 -6,1 -3,0 -6,-1 -9,-2 -2,-1 -4,-3 -6,-5 -2,-2 -3,-4 -4,-7 -1,-3 -1,-6 -1,-9l0 -43 15 0zm102 62c0,5 -1,9 -2,12 -1,4 -3,6 -6,9 -3,2 -6,4 -9,5 -4,1 -8,2 -12,2 -4,0 -7,0 -10,-1 -3,-1 -6,-1 -8,-2l0 -14c1,1 2,1 4,2 1,1 3,1 5,2 2,0 3,1 5,1 2,0 3,0 5,0 5,0 8,-1 10,-4 2,-3 3,-7 3,-12l0 -50 -30 0 0 -12 46 0 0 62zm1 -79c0,1 0,3 -1,4 0,1 -1,2 -2,3 -1,1 -2,2 -3,2 -1,1 -3,1 -4,1 -1,0 -3,0 -4,-1 -1,-1 -2,-1 -3,-2 -1,-1 -2,-2 -2,-3 0,-1 -1,-3 -1,-4 0,-1 0,-3 1,-4 1,-1 1,-2 2,-3 1,-1 2,-2 3,-2 1,-1 3,-1 4,-1 1,0 3,0 4,1 1,1 2,1 3,2 1,1 2,2 2,3 1,1 1,3 1,4zm78 44c0,1 0,2 0,4 0,2 0,3 0,5l-42 0c0,3 0,5 1,7 1,2 2,4 4,5 2,1 3,3 6,3 2,1 5,1 7,1 3,0 6,0 10,-1 4,0 7,-1 11,-2l0 12c-2,0 -3,1 -5,1 -2,0 -4,1 -6,1 -2,0 -4,1 -6,1 -2,0 -4,0 -6,0 -5,0 -9,-1 -13,-2 -4,-1 -7,-3 -10,-6 -3,-3 -5,-6 -6,-10 -1,-4 -2,-9 -2,-14 0,-5 1,-10 2,-14 1,-4 3,-8 6,-11 3,-3 6,-5 9,-7 4,-2 8,-2 12,-2 5,0 8,1 12,2 3,1 6,3 9,6 2,2 4,5 5,9 1,3 2,7 2,11zm-16 -2c0,-3 0,-5 -1,-7 -1,-2 -2,-3 -3,-5 -1,-1 -2,-2 -4,-3 -2,-1 -3,-1 -5,-1 -4,0 -7,1 -9,4 -2,3 -4,6 -4,11l26 0z"/>
   <path class="fil1" d="M1229 230l-42 -21 0 46 42 28 0 -53zm-37 -28l41 21 35 -21 -35 -21 -42 21zm-13 -2l55 -28 47 28 0 2 0 58 -47 36 -54 -37 0 -2 0 -55 0 -2zm94 9l-35 21 0 52 34 -27 0 -47z"/>
  </g>
 </g>
</svg>
