<?xml version="1.0" encoding="utf-8"?>
<!-- Generator: Adobe Illustrator 25.4.1, SVG Export Plug-In . SVG Version: 6.00 Build 0)  -->
<svg version="1.1" id="svg" xmlns="http://www.w3.org/2000/svg" xmlns:xlink="http://www.w3.org/1999/xlink" x="0px"
	y="0px" viewBox="0 0 400 400" style="enable-background:new 0 0 400 400;" width="400" height="400"
	xml:space="preserve">
	<style type="text/css">
		.st0 {
			fill-rule: evenodd;
			clip-rule: evenodd;
			fill: #F3F3F3;
		}
	</style>
	<path id="path0" class="st0" d="M0,10.2v10.1c7.3,0,22,0,29.2,0c0,31.4,0,94.5,0,125.9c7.2,0,22,0,29.2,0c0-31.3,0-94.3,0-125.6
	c7.3-0.1,22-0.2,29.2-0.3c0-5.1,0-15,0-20.1C65.9,0.2,21.9,0.1,0,0V10.2 M311.4,75.3v71.5c7.3,0,22,0,29.3,0c0-20.2,0.1-61,0.2-81.2
	c7.4,0,22.3,0,29.7,0c0,20.2,0.1,61,0.2,81.2c7.3,0,21,0,28.3,0c0-20.2,0-61,0-81.2c-3.7,0-11,0-14.6,0c0-5,0-15.2,0-20.2
	c-10.9-0.1-33-0.2-43.9-0.3c0-10-0.1-30.2-0.2-40.2c-7.2,0-21.8,0-29,0V75.3 M221.9,54.3c1.2,16.3-2.8,10.1-17.7,11.3
	c0,15,0,45.2,0,60.2c25.1-0.6,16.2-0.6,17.7,19.6c-3.5,1,59.5,0.5,70,0.6c0-5,0-14.7,0-19.9c-13.1,0-39.5,0-52.6,0
	c0-15.4,0-46.4,0-61.7c13.1,0,39.5,0,52.6,0c0-4.9,0-14.6,0-19.5c-17.5,0-52.7,0-70.2,0l0,9.7 M111.6,55.8v9.7c-3.6,0-11,0-14.6,0
	c0,15,0,45.4,0,60.7c3.6,0,11,0,14.6,0c0,5.1,0,15.5,0,20.6c14.5,0,43.6,0,58,0c-0.3-3.5-0.2-15.1-0.3-20.6c-10.8,0-32,0-43.1,0
	c0-5.1,0-15.5,0-20.6c14.9,0,43.9,0,58.5,0c0-10,0-30.2,0-40.2c-3.6-0.1-11-0.2-14.6-0.3c-0.1-2.8-0.1-15.1-0.2-20.1
	c-14.5,0-43.8,0-58.3,0V55.8 M152.1,75.3v7.6c-5.3,0-16,0-21.4,0c0-3.8,0-11.4,0-15.2c5.3,0,16,0,21.4,0V75.3 M-0.2,231.2v50.2
	c5.6,0,16.9,0,22.5,0c0-3.7,0-11.1,0-14.7c2.8,0,8.4,0,11.2,0c0-3.5,0-10.7,0-14.2c2.9,0,8.8,0,11.7,0c0,3.5,0,10.6,0,14.2
	c16.5,0.3,10.4-0.9,11.7,14.8c5.6,0,16.9,0,22.5,0c0-25,0-75.4,0-100.4c-5.6,0-16.9,0-22.5,0c0,14.3,0,43,0,57.3
	c-2.9,0-8.8,0-11.7,0C44,222.5,50.1,224,34,224.1c0,3.5,0,10.7,0,14.2c-2.9,0-8.8,0-11.7,0c0-14.3,0-43,0-57.3c-5.6,0-16.9,0-22.5,0
	V231.2 M224.1,202.3v7.1c-4.7,0-14.1,0-18.8,0c-0.6,2.5-0.2,10.1-0.2,13.9c4.7,0.1,14.3,0.2,19,0.3c0,10.7,0,32.3,0,43.1
	c2.4,0.1,7.2,0.2,9.6,0.3c0.1,3.6,0.2,10.9,0.2,14.5c7,0,21.2,0,28.2,0c0-3.5,0-10.7,0-14.2c-4.8,0-14.4,0-19.2,0
	c0-10.8,0.1-32.6,0.2-43.4c4.7-0.1,14.3-0.2,19-0.3c0-3.5,0-10.6,0-14.2c-4.8,0-14.4,0-19.2,0c0-3.5,0-10.7,0-14.2
	c-4.7,0-14.1,0-18.8,0V202.3 M90.5,245.4v36c4.7,0,14.3,0,19,0c0-14.4,0-43.4,0-57.8c4.8,0,14.5,0,19.4,0c0,3.7,0,11.1,0,14.7
	c4.7,0,14.3,0,19,0c0-3.5,0-10.7,0-14.2c-2.4,0-7.1,0-9.5,0c0-3.7,0-11.1,0-14.7c-11.9,0-35.9,0-47.8,0V245.4 M168.2,187.7
	c0,4,0.1,6.9,0.3,7c1,0.2,13.6-0.1,16.8-0.1c0-3.4,0-10.2,0-13.6c-4.3,0-12.9,0-17.1,0V187.7 M159.6,216.4v7.1c2.1,0,6.4,0,8.6,0
	c0,10.9,0,32.8,0,43.7c-2.1,0-6.4,0-8.6,0c0,3.5,0,10.7,0,14.2c8.6,0,26,0,34.6,0c0-3.5,0-10.6,0-14.2c-2.2-0.1-6.6-0.2-8.7-0.3
	c0-14.3-0.1-43.2-0.2-57.6c-6.4,0-19.3,0-25.7,0V216.4 M342.1,244.1v36c4.7,0,14.1,0,18.7,0c0-14.3,0.1-43.2,0.2-57.6
	c4.8-0.1,14.5-0.2,19.3-0.3c0,3.7,0,11.1,0,14.7c4.7,0,14.1,0,18.8,0c0-3.5,0-10.7,0-14.2c-2.3,0-7,0-9.4,0c0-3.6-0.2-10.9-0.2-14.5
	c-11.8-0.1-35.6-0.2-47.4-0.3V244.1 M282.9,215.5v7.4c-2.5,0-7.4,0-9.8,0c0,10.6,0,32,0,42.6c2.5,0,7.4,0,9.8,0c0,3.7,0,11.1,0,14.7
	c9.5,0,28.7,0,38.3,0c0-3.5,0-10.7,0-14.2c-7.2,0-21.6,0-28.8,0c0-3.7,0-11.1,0-14.7c9.5,0,28.7,0,38.3,0c0-7.1,0-21.3,0-28.4
	c-2.4,0-7.1,0-9.5,0c0-3.7,0-11.1,0-14.7c-9.5,0-28.7,0-38.3,0V215.5 M311.6,229.6v7.4c-4.8,0-14.5,0-19.3,0c0-3.7,0-11.1,0-14.7
	c4.8,0,14.5,0,19.3,0V229.6 M0,347.5v42c5,0,15.2,0,20.2,0c0-6,0-18.2,0-24.2c2.6,0,7.9,0,10.5,0c0,3,0,8.9,0,11.9
	c2.5,0,7.6,0,10.1,0c0,3.1,0,9.3,0,12.3c5,0,15.2,0,20.2,0c0-3,0-8.9,0-11.9c-2.5,0-7.6,0-10.1,0c0-3,0-8.9,0-11.9
	c-14.6,0.4-9.4,0-10.1-12.3c2.5,0,7.6,0,10.1,0c0-3,0-8.9,0-11.9c-5,0-15.2,0-20.2,0c0,3,0,8.9,0,11.9c-2.6,0-7.9,0-10.5,0
	c0-12,0-36,0-48c-5,0-15.2,0-20.2,0V347.5 M217.6,329.9c-0.3,2.5-0.2,38.4-0.2,47.2c2.6,0,8.2,0,10.7,0c0,3,0,9.1,0,12.1
	c12.5,0,37.8,0,50.3,0c0-14.7,0-45.4,0-60.4c-4.9,0-14.6,0-19.5,0c0,12,0,36.3,0,48.3c-4.9,0-15.9,0-21,0c-0.1-12-0.2-36.2-0.2-48.2
	c-3.6,0.2-21-0.8-20.1,0.5 M82.4,335.3v6.2c-2.5,0-7.5,0-10,0c0,8.9,0,26.7,0,35.6c2.5,0,7.5,0,10,0c0,3.1,0,9.3,0,12.3
	c10.1,0,30.3,0,40.4,0c0-3.1,0-9.3,0-12.3c2.5,0,7.5,0,10,0c0-8.9,0-26.7,0-35.6c-2.5,0-7.5,0-10,0c0-3.1,0-9.3,0-12.3
	c-10.1,0-30.3,0-40.4,0V335.3 M112.8,359.3v18.3c-5.1,0-15.3,0-20.4,0c0-9.1,0-27.4,0-36.5c5.1,0,15.3,0,20.4,0V359.3 M348.5,335
	v6.2c-2.6,0-7.8,0-10.4,0c0,8.9,0,26.7,0,35.6c2.6,0.1,7.7,0.2,10.2,0.3c0.1,3,0.2,9.1,0.2,12.1c10.1,0,30.4,0,40.5,0
	c0-3,0-8.9,0-11.9c-7.7-0.1-23.1-0.2-30.7-0.2c0-3,0-8.9,0-11.9c10.2-0.1,30.6-0.2,40.8-0.2c0-5.9,0-17.8,0-23.7c-2.5,0-7.5,0-10,0
	c-0.1-3-0.2-9.1-0.2-12.1c-10.1-0.1-30.3-0.2-40.4-0.2V335 M379,346.9v6.2c-5.2-0.1-15.5-0.2-20.7-0.2c-0.2-16.6-3.5-11.2,20.7-12.1
	V346.9 M308.1,321.9v5.9c4.5,0,13.5,0,17.9,0c0-3,0-8.9,0-11.9c-4.5,0-13.5,0-17.9,0V321.9 M308.1,364.1v24c-4.6,0-13.7,0-18.3,0
	c0,3,0,8.9,0,11.9c6.7,0,20.2,0,26.9,0c0-3,0-8.9,0-11.9c2.3,0,7,0,9.3,0c0-12,0-36,0-48c-4.5,0-13.5,0-17.9,0V364.1 M185.7,318.4
	v14.3c-7.7,0-23.1,0-30.7,0c0,3.5,0,10.6,0,14.1c-2.5,0-7.6,0-10.1,0c0,7,0,21.1,0,28.1c2.5,0,7.6,0,10.1,0c0,3.6,0,11,0,14.6
	c12.7,0,38.2,0,50.9,0c0-21.3,0-64.1,0-85.4c-5,0-15.2,0-20.2,0V318.4 M185.7,361.1v14.3c-5.1,0-15.5,0-20.6,0c0-7.1,0-21.5,0-28.6
	c5.1,0,15.5,0,20.6,0V361.1" />
</svg>