<svg xmlns="http://www.w3.org/2000/svg" width="1200" height="1200" viewBox="0 0 641 641" shape-rendering="geometricPrecision" text-rendering="geometricPrecision" image-rendering="optimizeQuality" fill-rule="evenodd" clip-rule="evenodd"><defs><style>.fil2{fill:#d9dada;fill-rule:nonzero}</style></defs><g id="Warstwa_x0020_1"><path fill="#212120" d="M1 1h638v638H1z"/><path d="M1 0h639v640H0V0h1zm637 3H3v635h635V3z" fill="#2b2a29" fill-rule="nonzero"/><path class="fil2" d="M122 114v113H96V114H59V93h99v21h-37zm150 53v15h-68c0 5 1 9 2 12s3 6 6 9c3 2 6 4 9 5 4 1 8 2 12 2 5 0 10 0 16-1s12-2 18-4v20c-3 1-6 1-9 2s-6 1-10 2c-3 0-7 1-10 1h-10c-8 0-15-1-21-3s-12-6-16-10-8-10-10-16c-2-7-3-14-3-23 0-8 1-16 3-23s6-13 10-18 9-9 15-11c6-3 13-4 20-4s14 1 20 3 10 5 14 10c4 4 7 9 9 15s3 12 3 19zm-25-4c0-4 0-8-2-11-1-3-3-6-4-8-2-2-4-3-7-4s-5-1-8-1c-6 0-11 2-15 6s-6 10-7 18h43zm134 60c-5 2-10 3-15 4s-11 1-17 1c-8 0-16-1-22-3-7-2-12-6-17-10s-8-10-10-17-4-14-4-23c0-8 1-16 4-23s6-13 11-17c5-5 11-8 17-11 7-3 14-4 22-4 7 0 12 0 17 1s9 2 12 3v24c-4-2-9-4-14-5s-10-2-14-2c-5 0-9 1-13 2-4 2-7 4-9 7-3 3-4 6-6 10-1 4-2 8-2 13s1 9 2 13 3 7 6 10 6 5 9 6c4 1 8 2 12 2h7c2 0 5-1 7-1 2-1 5-1 7-2s5-2 7-2v22zm93 4v-68c0-11-4-17-13-17-4 0-8 2-12 5s-8 8-12 14v66h-25V82h25v36l-1 19c2-3 4-5 6-7s5-4 7-5c3-1 5-2 8-3s6-1 10-1c5 0 10 1 14 3s7 4 10 7 5 7 6 11 2 9 2 15v70h-25zm96-38c3 0 6 1 8 2s5 3 6 4c2 2 3 4 4 6s2 5 2 8-1 5-2 8c-1 2-2 5-4 6-2 2-4 3-6 4s-5 2-8 2-5-1-8-2c-2-1-4-2-6-4s-3-4-4-6-2-5-2-8 1-5 2-8c1-2 2-5 4-6 2-2 4-3 6-4s5-2 8-2zM129 366h-20l-9-29-3-12-3 12-9 28H65l-5-93h15l2 59 1 16 4-14 10-33h11l11 35 3 12v-14l2-61h15l-5 93zm64-44v-7c0-2-1-3-2-5l-3-3c-1-1-2-1-4-1-3 0-5 1-8 3s-6 6-9 10v46h-18v-72h16l1 11c1-2 3-4 4-5s3-3 5-4 4-2 6-2c2-1 5-1 7-1 4 0 7 1 10 2s5 3 7 6c2 2 3 6 4 9 1 4 1 8 1 13h-17zm76-48c0 2 0 3-1 4s-1 3-2 4-2 2-4 2c-1 1-3 1-4 1-2 0-3 0-5-1-1-1-3-1-4-2s-2-2-2-4c-1-1-1-3-1-4 0-2 0-3 1-4s1-3 2-4 2-2 4-2c1-1 3-1 5-1s3 0 4 1 3 1 4 2 2 2 2 4c1 1 1 3 1 4zm-19 33h-20v-13h38v59h21v13h-61v-13h23v-45zm116 58c-3 1-6 1-9 2-3 0-6 1-9 1-5 0-9 0-12-1s-6-3-8-5-4-5-5-8-2-7-2-11v-35h-19v-13h19v-18l18-5v23h28v13h-28v34c0 4 1 7 3 9s5 3 10 3c3 0 6 0 8-1 3 0 5-1 7-2v14zm83-41v10h-47c0 3 0 6 1 8s2 4 4 6 4 3 6 4 5 1 8 1c4 0 7 0 11-1s8-1 12-3v14c-2 1-4 1-6 1s-4 1-7 1c-2 0-5 1-7 1h-7c-5 0-10-1-15-2-4-2-8-4-11-7s-5-7-7-11c-2-5-2-10-2-16s1-11 2-16c2-5 4-9 7-12s6-6 11-8c4-2 9-3 14-3s10 1 14 2c4 2 7 4 10 7s5 6 6 10 2 8 2 13zm-18-2c0-3 0-5-1-7s-2-4-3-5-3-2-5-3-4-1-6-1c-4 0-8 1-11 4s-4 7-5 12h30zm81 0v-7c0-2-1-3-2-5l-3-3c-1-1-2-1-4-1-3 0-5 1-8 3s-6 6-9 10v46h-18v-72h16l1 11c1-2 3-4 4-5s3-3 5-4 4-2 6-2c2-1 5-1 7-1 4 0 7 1 10 2s5 3 7 6c2 2 3 6 4 9 1 4 1 8 1 13h-17zm63 18c2 0 4 0 6 1s3 2 4 3 2 3 3 4c1 2 1 4 1 5 0 2 0 4-1 5-1 2-2 3-3 4s-3 2-4 3c-2 1-4 1-6 1s-4 0-5-1c-2-1-3-2-4-3s-2-3-3-4c-1-2-1-3-1-5s0-4 1-5c1-2 2-3 3-4s3-2 4-3c2-1 3-1 5-1zM62 422h527v139H58V422h4zm520 7H66v126h516V429z"/><path fill="#008dd2" d="M62 426h523v132H62z"/><path class="fil2" d="M253 518l-19-25v25h-12v-70h12v41l18-21h15l-20 23 22 28h-16zm70-26c0 4-1 8-2 11s-3 6-5 8-5 4-8 5-7 2-11 2-7-1-10-2-5-3-8-5c-2-2-4-5-5-8s-2-7-2-11 1-8 2-11 3-6 5-8 5-4 8-5 7-2 10-2c4 0 7 1 10 2s5 3 8 5c2 2 4 5 5 8s2 7 2 11zm-13 0c0-5-1-9-3-12s-5-4-9-4c-2 0-4 0-5 1s-3 2-4 3-2 3-2 5-1 4-1 6c0 5 1 9 3 12s5 4 9 4c2 0 4 0 5-1s3-2 4-3 2-3 2-5 1-4 1-6zm55 25v-7c-1 1-2 2-3 4-1 1-2 2-4 3-1 1-3 1-4 2-1 0-3 1-5 1-3 0-6-1-8-2s-4-3-6-5-3-5-4-8-1-7-1-11c0-5 1-9 2-12s3-6 5-8 5-4 8-5 7-2 10-2h4c1 0 2 0 3 1v-20h12v70h-10zm-22-25c0 3 0 5 1 7 0 2 1 4 2 5l3 3c1 1 2 1 4 1s4-1 6-2c2-2 4-4 6-7v-22c-1 0-2-1-4-1h-4c-2 0-4 0-5 1-2 1-3 2-4 3s-2 3-3 5-1 4-1 7zm58-26v33c0 3 1 5 2 6s3 2 5 2 4-1 6-3 4-4 6-7v-32h12v51h-11v-7c-1 1-2 2-3 4-1 1-2 2-4 3-1 1-3 1-4 2-2 0-3 1-5 1-3 0-5 0-7-1s-4-2-5-4-2-3-3-6c-1-2-1-5-1-7v-34h12zm81 49c0 4-1 7-2 10s-3 5-5 7-5 3-7 4c-3 1-6 1-10 1-3 0-6 0-8-1-3-1-5-1-6-2v-11c1 0 2 1 3 1s2 1 4 1c1 0 3 1 4 1h4c4 0 6-1 8-3s3-5 3-9v-40h-24v-9h36v49zm1-63c0 1 0 2-1 3 0 1-1 2-2 3s-2 1-3 2c-1 0-2 1-3 1s-2 0-3-1c-1 0-2-1-3-2s-1-2-2-3c0-1-1-2-1-3s0-2 1-3c0-1 1-2 2-3s2-1 3-2c1 0 2-1 3-1s2 0 3 1c1 0 2 1 3 2s1 2 2 3c0 1 1 2 1 3zm62 35v7h-33c0 2 0 4 1 6s2 3 3 4 3 2 4 3c2 1 4 1 6 1s5 0 8-1c3 0 6-1 9-2v10c-1 0-3 1-4 1-2 0-3 1-5 1s-3 0-5 1h-5c-4 0-7-1-10-2s-6-3-8-5-4-5-5-8-2-7-2-11 1-8 2-11 3-6 5-9c2-2 5-4 7-6 3-1 6-2 10-2s7 1 10 2 5 3 7 5 3 4 4 7 1 6 1 9zm-12-2c0-2 0-4-1-5s-1-3-2-4-2-2-3-2-3-1-4-1c-3 0-6 1-8 3s-3 5-3 9h21zm-390 4l-34-17v37l33 22v-42zm-30-22l33 17 28-17-28-16-33 17zm-11-2l44-22 37 22v48l-37 29-43-29v-47zm75 7l-28 17v42l27-21v-37z" id="_460588136"/></g></svg>