<svg xmlns="http://www.w3.org/2000/svg" width="1000" height="1000" viewBox="0 0 53377453 53377453" shape-rendering="geometricPrecision" text-rendering="geometricPrecision" image-rendering="optimizeQuality" fill-rule="evenodd" clip-rule="evenodd"><defs><style>.fil2{fill:#d9dada;fill-rule:nonzero}</style></defs><g id="Warstwa_x0020_1"><path fill="#212120" d="M106330 106330h53164793v53164793H106330z"/><path d="M106330 0h53271124v53377454H0V0h106330zm53058464 212659H212659v52952135h52952135V212659z" fill="#2b2a29" fill-rule="nonzero"/><path class="fil2" d="M10130445 9513627v9407404H7977484V9513627H4921253V7765675h8262553v1747952h-3053360zm12469377 4405128c0 142694-2871 326326-11696 556423-8719 227226-23286 439886-40724 638084h-5701499c0 381617 58269 716661 174806 1008004s282518 533137 495283 731229c215530 195221 471891 343764 769082 445734 300062 104947 629258 154497 993437 154497 422447 0 874029-32112 1354745-99099 480716-64117 978977-171935 1497546-317606v1654807c-221485 61246-463278 119514-725487 169064-262209 52420-530266 98993-804064 136846-270928 40831-547704 69965-827457 90380-276776 20415-547704 29134-809912 29134-661370 0-1252775-93251-1774216-279753-524418-189373-967280-466149-1331459-833199s-643826-821609-839047-1360593c-192244-541856-288366-1168243-288366-1879056 0-705071 96122-1346026 288366-1922864 195221-579815 469020-1075098 821609-1485850 352483-413728 780778-731229 1284780-955584 501131-224355 1063402-337915 1683942-337915 614691 0 1159524 96122 1631521 285495 471997 192244 868181 457430 1185788 798216 317500 340893 559294 748773 725380 1220770 166087 471891 247642 990566 247642 1552837zm-2118085-297191c5848-343764-34876-640955-125256-891467-93251-253490-215530-463278-372898-629365-157261-163110-337915-285495-544833-367050-209682-78684-431166-119408-670089-119408-524418 0-955584 174806-1290629 524418s-533137 844789-597253 1482872h3600958zm11190338 4967293c-407880 163216-833199 285601-1270213 367156-437015 78684-897315 119408-1375161 119408-687527 0-1305196-93251-1852899-282624-544833-186396-1008004-466149-1389728-836070-381617-370027-672960-827457-874029-1375161-203940-544833-302933-1176962-302933-1893730 0-693375 107818-1322634 326326-1887882 221378-562271 530159-1042987 926450-1442148 399055-396184 879771-704965 1439171-920602 559400-215530 1185788-323348 1873315-323348 562271 0 1037139 29134 1421733 87403 384594 61140 728358 136953 1037139 227226v2021857c-352483-174806-737077-311652-1147828-407880-413728-98993-804064-145672-1174091-145672-387465 0-734206 64117-1042987 195221-305910 131104-565248 314629-774930 547704-209788 233074-373004 515699-483693 847872-110689 335045-166087 699223-166087 1098278 0 413728 61246 786626 180654 1115823 119514 332174 288472 611820 506979 842024 218507 230097 483587 407880 789497 530266 308781 122279 649674 183525 1025549 183525 180654 0 372898-14567 573861-37853 203940-26263 405009-64117 606079-113666 203940-46572 402032-101970 597253-166087 198092-61140 381617-131104 550575-203940v1852899zm7769928 332174v-5649078c0-952713-352483-1427581-1060425-1427581-352483 0-687527 142801-1010982 428296-320477 282624-661264 670089-1019701 1159524v5488840h-2082997V6859535h2082997v2971699l-101970 1570275c174806-209682 355460-399055 536114-568013 183525-169064 378746-308887 591405-422447 209788-113666 437015-201069 681785-259338 244664-61140 515592-90274 809912-90274 445734 0 830328 72836 1162395 218507 329196 142694 605972 349612 827457 614691 221378 262209 387465 582686 498154 955584s166087 789497 166087 1249798v5821013h-2080232zm8006086-3149376c238923 0 460301 43701 664241 131104 206917 90274 384594 209788 533243 358331 151413 151520 270928 329196 355353 533137 84532 206917 128233 425425 128233 658499 0 227226-43701 442756-128233 643826-84426 203940-203940 378746-355353 530266-148649 151413-326326 270928-533243 358331-203940 87403-425318 131104-664241 131104-227226 0-442756-43701-640955-131104-198092-87403-372898-206917-521440-358331-145672-151520-262209-326326-349612-530266-84532-201069-128233-416599-128233-643826 0-233074 43701-451582 128233-658499 87403-203940 203940-381617 349612-533137 148542-148542 323348-268057 521440-358331 198198-87403 413728-131104 640955-131104zM10751516 30520632H9044607l-762596-2382740-278477-968450-266356 992587-750474 2358603H5350398l-431698-7725376h1281165l183525 4953258 48486 1353788 348974-1206522 849467-2747982h917943l897847 2913431 288472 1028951 24243-1206522 195753-5088402h1234699l-437759 7725376zm5314353-3669966c7975-225950-2020-415642-32324-575030-30304-157368-76664-286452-141206-389379s-145246-177570-240092-223930c-94846-48486-201814-70709-324837-70709-211915 0-431804 86765-659775 262315-225950 175550-474124 464022-746540 865523v3801176h-1478832v-6006346h1307322l52527 875624c98887-153327 209788-292513 334938-413622 123023-123023 262209-227971 413516-316756 151413-88785 318776-155348 504428-203727 185651-46466 389379-70603 609375-70603 302614 0 572904 52420 806935 157368 234138 102821 431804 258168 591193 464022 159388 203727 278477 462002 355141 770677s108881 665836 96760 1073397h-1448528zm6325016-3978747c0 129190-24243 252214-70603 367262-46466 112922-113028 213829-197773 298573-84745 84745-183631 151307-298573 199793-115049 50400-238072 74643-373323 74643-133125 0-258168-24243-375237-74643-114942-48486-215849-115049-300594-199793-84745-84745-151307-185651-197773-298573-48380-115049-70603-238072-70603-367262 0-129084 22223-252107 70603-367156 46466-113028 113028-213829 197773-300594s185651-155348 300594-203834c117069-50400 242112-74643 375237-74643 135251 0 258275 24243 373323 74643 114942 48486 213829 117069 298573 203834 84745 86765 151307 187565 197773 300594 46360 115049 70603 238072 70603 367156zm-1595901 2766164h-1696808v-1123797h3175639v4882548h1731152v1123797h-5112646v-1123797h1902662v-3758751zm9670251 4824067c-260295 58481-520590 104841-784819 141206-264335 36365-514529 52420-750581 52420-395440 0-734418-40299-1020870-123023-284538-82724-522610-209895-708155-379278-187672-169489-324837-385445-413622-645633-88785-262315-133125-575030-133125-938252v-2931507h-1614083v-1123797h1614083v-1535399l1476812-385338v1920738h2334360v1123797h-2334360v2824645c0 342913 78684 603208 236052 778758s421703 262315 792900 262315c236052 0 466043-20203 692099-58588 223930-40299 429678-84745 613309-137165v1154101zm6934390-3405737c0 98887-2020 225950-8081 385338-6061 157368-16162 304741-28284 441906h-3948337c0 264335 40405 496347 121109 698054 80704 201814 195646 369283 342913 506448 149393 135145 326857 238072 532711 308675 207768 72623 435739 106968 687952 106968 292619 0 605334-22223 938146-68583 332918-44446 677957-119089 1037032-219996v1146020c-153327 42319-320690 82724-502301 117069-181611 36258-367262 68583-556848 94740-187672 28284-379384 48486-573010 62628-191712 14036-379278 20096-560889 20096-457962 0-867543-64542-1228745-193626-363116-131211-669770-322817-921984-577051s-445946-568970-581091-942186c-133125-375343-199793-809062-199793-1301368 0-488265 66669-932085 199793-1331565 135145-401501 324837-744520 568970-1029058 244133-286452 540686-506341 889766-661689 346953-155348 736439-234031 1166117-234031 425744 0 803001 66562 1129858 197667 326857 133125 601294 316756 821183 552808 219890 236052 387252 518569 502301 845427 114942 326857 171510 685932 171510 1075311zm-1466710-205748c4041-238072-24243-443926-86765-617456-64542-175444-149287-320796-258275-435739-108988-113028-234031-197773-377257-254234-145246-54441-298573-82724-464022-82724-363222 0-661795 121109-893807 363222-232011 242112-369283 585025-413622 1026931h2493748zm6756820 0c7975-225950-2020-415642-32324-575030-30304-157368-76664-286452-141206-389379s-145246-177570-240092-223930c-94846-48486-201814-70709-324837-70709-211915 0-431804 86765-659775 262315-225950 175550-474124 464022-746540 865523v3801176h-1478832v-6006346h1307322l52527 875624c98887-153327 209788-292513 334938-413622 123023-123023 262209-227971 413516-316756 151413-88785 318776-155348 504428-203727 185651-46466 389379-70603 609375-70603 302614 0 572904 52420 806935 157368 234138 102821 431804 258168 591193 464022 159388 203727 278477 462002 355141 770677s108881 665836 96760 1073397h-1448528zm5261826 1488933c165449 0 318776 30304 459982 90805 143226 62522 266356 145246 369283 248173 104841 104947 187565 227971 246153 369176 58481 143332 88679 294639 88679 456048 0 157368-30198 306655-88679 445840-58588 141206-141312 262315-246153 367262-102927 104841-226057 187565-369283 248067-141206 60608-294533 90805-459982 90805-157368 0-306655-30198-443926-90805-137165-60502-258168-143226-361095-248067-100907-104947-181611-226057-242112-367262-58481-139185-88785-288472-88785-445840 0-161408 30304-312715 88785-456048 60502-141206 141206-264229 242112-369176 102927-102927 223930-185651 361095-248173 137271-60502 286558-90805 443926-90805zM5190798 35170744h43892429v11635541H4893500V35170744h297298zm43297833 576732H5488095v10482077h43000536V35747476z"/><path fill="#008dd2" d="M5190798 35459110h43595131v11058809H5190798z"/><path class="fil2" d="M21046347 43132385l-1555177-2105645v2105645h-1010344v-5858441h1010344v3428704l1471708-1782935h1265109l-1708078 1920206 1849603 2292466h-1323165zm5854294-2139564c0 332493-46785 635319-141525 909862-93464 275925-229247 510807-406179 707517-176826 196710-393419 348123-650950 455729-256042 107499-548980 161302-878708 161302-312715 0-591511-45296-837771-135889-246259-91975-454240-227864-625431-408944-171297-181186-302827-407561-393419-679233-91975-273161-137271-590129-137271-952394 0-333981 48167-638190 142907-911245 94846-274543 232117-508043 410432-700499 178315-193839 396184-343870 652332-449987 257530-106117 547597-159920 871690-159920 314098 0 595765 46679 840535 138654 246259 93357 455729 230629 626919 413197 171191 182568 301444 407561 391931 677851 89211 268908 134507 580134 134507 933999zm-1052876 25413c0-437227-82086-765573-247642-984931-164173-219252-406073-329622-727294-329622-176932 0-326963 35301-451475 103246-124512 69327-226376 164173-307080 284432-79216 120259-138654 260401-175444 420321-38172 161302-56567 332493-56567 515061 0 438716 89104 769826 266037 991949 176826 223611 417450 333981 724530 333981 168320 0 315480-33919 440098-101864 124512-66562 224993-161302 302827-281667 76345-120259 134401-261783 173955-424468 38279-162791 58056-338234 58056-526438zm4576425 2114151l-24030-621177c-89211 107499-179697 205110-274543 294320-93357 87722-193839 162684-302827 224993-107499 62203-222123 110370-345252 145778-123130 33919-259019 50932-408944 50932-247642 0-469870-49550-662327-148649-193839-98993-356629-241900-488159-424468-130254-183950-230735-407561-300062-670833-69327-261783-103246-554615-103246-878708 0-386295 53803-721659 162684-1004708 110370-283049 260401-517931 454240-704753 193945-186715 423192-325475 689228-414579 264548-90593 553233-134401 865948-134401 104735 0 210852 7018 316969 19777 106223 14142 200963 32537 284432 53803v-1645769h1010450v5858441h-874561zm-1848115-2073108c0 232117 15630 430210 46679 595765 32537 164173 79322 298573 141525 403308 62309 104735 138654 182568 230629 230629 90593 48167 193945 72198 309951 72198 171191 0 335364-69327 489648-206598 154178-138654 319839-328346 493795-568863v-1841097c-80598-29666-179697-55185-297085-73580-117494-19777-234988-29666-353759-29666-164173 0-309951 33919-440098 100481-130254 65074-240624 159920-333981 281561-91975 121747-162791 270290-213722 445734-49550 175550-73580 372260-73580 590129zm4870746-2139564v2745217c0 229247 42532 403308 128765 520802 86340 117388 215105 175444 389166 175444 169808 0 331110-69327 488265-209469 155667-140036 321222-328239 495283-565992v-2666002h1011726v4212672h-875943l-24030-621177c-89104 107499-178315 205110-270290 294320-90593 87722-189586 162684-295703 224993-106223 62203-222229 110370-348123 145778-126001 33919-264654 50932-417450 50932-215105 0-403308-35408-564610-104735-162791-70816-297191-171191-404797-301444-107499-130147-188203-284432-241900-465511-55185-181186-82086-383531-82086-608524v-2827304h1011726zm6750015 4092413c0 315586-46679 590023-138654 823523-93464 233500-224993 425956-397673 580241-174062 152796-380660 267419-622666 343870-241900 76345-512190 113135-810763 113135-243388 0-469870-19777-679233-60821-210852-42426-383531-91975-517931-150031v-928257c76345 41043 164067 82086 263166 121747 97611 41043 199581 76345 305698 107499 107499 32537 215105 56567 325475 74962 111752 18395 220740 26901 328239 26901 307080 0 536326-87722 687740-264548 152796-176932 227864-437334 227864-779715v-3312805h-2002399v-788115h3031138v4092413zm83469-5244388c0 90593-16906 176932-50932 257637-32537 79216-79216 149925-138654 209363s-130147 106117-210852 140142c-82086 35408-169808 52314-263166 52314-94846 0-181186-16906-261783-52314-79322-34025-150031-80704-209469-140142s-104735-130147-138654-209363c-32537-80704-49550-167044-49550-257637 0-90486 17013-176826 49550-257530 33919-79216 79216-149925 138654-210852 59438-60821 130147-108881 209469-142907 80598-35408 166937-52314 261783-52314 93357 0 181079 16906 263166 52314 80704 34025 151413 82086 210852 142907 59438 60927 106117 131636 138654 210852 34025 80704 50932 167044 50932 257530zm5169426 2934909c0 69327-1489 158537-5742 270290-4253 110370-11271 213722-19777 309951h-2769354c0 185332 28284 348123 84957 489648 56567 141418 137271 258913 240518 355141 104735 94846 229247 166937 373642 216487 145672 50932 305591 75069 482524 75069 205216 0 424468-15630 657967-48167 233500-31155 475506-83469 727401-154284v803852c-107606 29666-224993 57950-352376 82086-127383 25413-257530 48061-390549 66456-131636 19777-266037 33919-401926 43914-134401 9889-266037 14142-393419 14142-321222 0-608418-45296-861695-135889-254766-91975-469870-226376-646697-404690-176932-178315-312822-399055-407561-660838-93464-263272-140142-567481-140142-912733 0-342488 46679-653821 140142-933999 94740-281561 227758-522185 399055-721659 171191-200963 379171-355247 624048-464129 243388-108988 516443-164173 817887-164173 298573 0 563228 46679 792474 138654 229247 93357 421703 222229 575881 387784 154284 165555 271778 363647 352376 592894 80704 229247 120365 481141 120365 754196zm-1028845-144289c2871-167044-16906-311333-60821-433080-45296-123023-104735-224993-181186-305591-76345-79216-164067-138654-264548-178315-101864-38172-209469-58056-325475-58056-254766 0-464129 84957-626919 254766-162684 169808-258913 410326-290067 720277h1749015zm-32531643 201282l-2813800-1423647 15630 3072074 2789344 1867148 8825-3515575zm-2481626-1868530l2743303 1388026 2324896-1422265-2312562-1365166-2755638 1399404zm-877857-163960l3653272-1869487 3093659 1837163 638 155241-23393 3851045-3108864 2418147-3600001-2441327 638-122279-18714-3668264 2765-160239zm6208585 610226l-2302780 1408867-8825 3468577 2280982-1778681 30623-3098763z" id="_342674280"/></g></svg>