<svg xmlns="http://www.w3.org/2000/svg" width="1700" height="305" viewBox="0 0 1790 321" shape-rendering="geometricPrecision" text-rendering="geometricPrecision" image-rendering="optimizeQuality" fill-rule="evenodd" clip-rule="evenodd"><defs><style>.fil1{fill:#d9dada;fill-rule:nonzero}</style></defs><g id="Warstwa_x0020_1"><path d="M53 30v95H31V30H0V12h83v18H52zm126 44v12h-58c0 4 1 7 2 10s3 5 5 7 5 3 8 4 6 2 10 2 9 0 14-1l15-3v17c-2 1-5 1-7 2-3 1-5 1-8 1s-6 1-8 1h-8c-7 0-13-1-18-3s-10-5-13-8c-4-4-6-8-8-14-2-5-3-12-3-19s1-14 3-19c2-6 5-11 8-15 4-4 8-7 13-10 5-2 11-3 17-3s12 1 16 3c5 2 9 5 12 8s6 8 7 12c2 5 2 10 2 16zm-21-3c0-3 0-6-1-9s-2-5-4-6c-2-2-3-3-5-4s-4-1-7-1c-5 0-10 2-13 5-3 4-5 9-6 15h36zm113 50c-4 2-8 3-13 4-4 1-9 1-14 1-7 0-13-1-19-3-5-2-10-5-14-8-4-4-7-8-9-14-2-5-3-12-3-19s1-13 3-19 5-11 9-15 9-7 15-9 12-3 19-3c6 0 10 0 14 1s7 1 10 2v20c-4-2-7-3-12-4-4-1-8-1-12-1s-7 1-11 2c-3 1-6 3-8 6-2 2-4 5-5 9-1 3-2 7-2 11s1 8 2 11 3 6 5 8 5 4 8 5 7 2 10 2h6c2 0 4-1 6-1s4-1 6-2 4-1 6-2v19zm78 3V67c0-10-4-14-11-14-4 0-7 1-10 4s-7 7-10 12v55h-21V2h21v30l-1 16c2-2 4-4 5-6 2-2 4-3 6-4s4-2 7-3c2-1 5-1 8-1 4 0 8 1 12 2 3 1 6 4 8 6 2 3 4 6 5 10s2 8 2 13v59h-21zm81-32c2 0 5 0 7 1s4 2 5 4c2 2 3 3 4 5s1 4 1 7c0 2 0 4-1 6s-2 4-4 5c-1 2-3 3-5 4s-4 1-7 1c-2 0-4 0-6-1s-4-2-5-4-3-3-4-5-1-4-1-6 0-5 1-7 2-4 4-5c1-1 3-3 5-4s4-1 6-1zm137 32h-25l-11-35-4-14-4 14-11 34h-24l-6-113h19l3 72 1 20 5-18 12-40h13l13 42 4 15V83l3-74h18l-6 113zm77-53v-8c0-2-1-4-2-6-1-1-2-3-3-3-1-1-3-1-5-1-3 0-6 1-10 4-3 3-7 7-11 13v55h-22V37h19l1 13c1-2 3-4 5-6s4-3 6-5c2-1 5-2 7-3 3-1 6-1 9-1 4 0 8 1 12 2 3 1 6 4 9 7 2 3 4 7 5 11s2 10 1 16h-21zm92-58c0 2 0 4-1 5-1 2-2 3-3 4s-3 2-4 3c-2 1-3 1-5 1s-4 0-5-1c-2-1-3-2-4-3s-2-3-3-4c-1-2-1-3-1-5s0-4 1-5c1-2 2-3 3-4s3-2 4-3c2-1 4-1 5-1 2 0 4 0 5 1 2 1 3 2 4 3s2 3 3 4c1 2 1 3 1 5zm-23 40h-25V37h46v71h25v16h-74v-16h28V53zm141 70c-4 1-8 2-11 2-4 1-7 1-11 1-6 0-11-1-15-2s-8-3-10-6c-3-2-5-6-6-9-1-4-2-8-2-14V52h-24V36h24V14l22-6v28h34v16h-34v41c0 5 1 9 3 11 2 3 6 4 12 4 3 0 7 0 10-1s6-1 9-2v17zm101-50v12h-58c0 4 1 7 2 10s3 5 5 7 5 3 8 4 6 2 10 2 9 0 14-1l15-3v17c-2 1-5 1-7 2-3 1-5 1-8 1s-6 1-8 1h-8c-7 0-13-1-18-3s-10-5-13-8c-4-4-6-8-8-14-2-5-3-12-3-19s1-14 3-19c2-6 5-11 8-15 4-4 8-7 13-10 5-2 11-3 17-3s12 1 16 3c5 2 9 5 12 8s6 8 7 12c2 5 2 10 2 16zm-21-3c0-3 0-6-1-9s-2-5-4-6c-2-2-3-3-5-4s-4-1-7-1c-5 0-10 2-13 5-3 4-5 9-6 15h36zm98 0v-8c0-2-1-4-2-6-1-1-2-3-3-3-1-1-3-1-5-1-3 0-6 1-10 4-3 3-7 7-11 13v55h-22V36h19l1 13c1-2 3-4 5-6s4-3 6-5c2-1 5-2 7-3 3-1 6-1 9-1 4 0 8 1 12 2 3 1 6 4 9 7 2 3 4 7 5 11s2 10 1 16h-21zm77 22c2 0 5 0 7 1s4 2 5 4c2 2 3 3 4 5s1 4 1 7c0 2 0 4-1 6s-2 4-4 5c-1 2-3 3-5 4s-4 1-7 1c-2 0-4 0-6-1s-4-2-5-4-3-3-4-5-1-4-1-6 0-5 1-7 2-4 4-5c1-1 3-3 5-4s4-1 6-1z" fill="#212120" fill-rule="nonzero"/><path class="fil1" d="M1128 145h661v175h-665V145h4zm653 9h-648v158h648V154z"/><path fill="#008dd2" d="M1128 150h658v166h-658z"/><path class="fil1" d="M1367 265l-23-32v32h-15v-88h15v52l22-27h19l-26 29 28 35h-20zm88-32c0 5-1 10-2 14s-3 8-6 11-6 5-10 7-8 2-13 2-9-1-13-2-7-3-9-6c-3-3-5-6-6-10s-2-9-2-14 1-10 2-14 3-8 6-11 6-5 10-7 8-2 13-2 9 1 13 2 7 3 9 6c3 3 5 6 6 10s2 9 2 14zm-16 0c0-7-1-12-4-15-2-3-6-5-11-5-3 0-5 1-7 2s-3 2-5 4l-3 6c-1 2-1 5-1 8 0 7 1 12 4 15s6 5 11 5c3 0 5-1 7-2s3-2 5-4l3-6c1-2 1-5 1-8zm69 32v-9c-1 2-3 3-4 4s-3 2-5 3-3 2-5 2c-2 1-4 1-6 1-4 0-7-1-10-2s-5-4-7-6c-2-3-3-6-5-10-1-4-2-8-2-13 0-6 1-11 2-15 2-4 4-8 7-11s6-5 10-6 8-2 13-2h5c2 0 3 0 4 1v-25h15v88h-13zm-28-31c0 3 0 6 1 9 0 2 1 5 2 6 1 2 2 3 3 3 1 1 3 1 5 1 3 0 5-1 7-3s5-5 7-9v-28c-1 0-3-1-4-1h-5c-2 0-5 1-7 2s-4 2-5 4-2 4-3 7-1 6-1 9zm73-32v41c0 3 1 6 2 8s3 3 6 3 5-1 7-3 5-5 7-9v-40h15v64h-13v-9c-1 2-3 3-4 4s-3 2-4 3c-2 1-3 2-5 2-2 1-4 1-6 1-3 0-6-1-9-2-2-1-4-3-6-5s-3-4-4-7-1-6-1-9v-43h15zm102 62c0 5-1 9-2 12-1 4-3 6-6 9-3 2-6 4-9 5-4 1-8 2-12 2s-7 0-10-1-6-1-8-2v-14c1 1 2 1 4 2 1 1 3 1 5 2 2 0 3 1 5 1h5c5 0 8-1 10-4s3-7 3-12v-50h-30v-12h46v62zm1-79c0 1 0 3-1 4 0 1-1 2-2 3s-2 2-3 2c-1 1-3 1-4 1s-3 0-4-1-2-1-3-2-2-2-2-3-1-3-1-4 0-3 1-4 1-2 2-3 2-2 3-2c1-1 3-1 4-1s3 0 4 1 2 1 3 2 2 2 2 3c1 1 1 3 1 4zm78 44v9h-42c0 3 0 5 1 7s2 4 4 5 3 3 6 3c2 1 5 1 7 1 3 0 6 0 10-1 4 0 7-1 11-2v12c-2 0-3 1-5 1s-4 1-6 1-4 1-6 1h-6c-5 0-9-1-13-2s-7-3-10-6-5-6-6-10-2-9-2-14 1-10 2-14 3-8 6-11 6-5 9-7c4-2 8-2 12-2 5 0 8 1 12 2 3 1 6 3 9 6 2 2 4 5 5 9 1 3 2 7 2 11zm-16-2c0-3 0-5-1-7s-2-3-3-5c-1-1-2-2-4-3s-3-1-5-1c-4 0-7 1-9 4s-4 6-4 11h26zm-489 3l-42-21v46l42 28v-53zm-37-28l41 21 35-21-35-21-42 21zm-13-2l55-28 47 28v60l-47 36-54-37v-59zm94 9l-35 21v52l34-27v-47z" id="_460589216"/></g></svg>